<svg width="363" height="49" viewBox="0 0 363 49" fill="none" xmlns="http://www.w3.org/2000/svg">
<path d="M359.229 3.36062C358.737 3.35248 358.248 3.44144 357.79 3.6224C357.332 3.80337 356.914 4.0728 356.56 4.41532C356.206 4.75783 355.923 5.16671 355.727 5.6186C355.531 6.0705 355.426 6.55656 355.418 7.04902C355.423 7.54052 355.526 8.02613 355.719 8.4779C355.913 8.92968 356.194 9.33872 356.547 9.68149C356.899 10.0243 357.315 10.294 357.772 10.4752C358.229 10.6564 358.718 10.7455 359.209 10.7374C359.702 10.7456 360.192 10.6558 360.65 10.4733C361.109 10.2908 361.526 10.0192 361.878 9.67428C362.231 9.32933 362.512 8.91788 362.704 8.46373C362.897 8.00958 362.997 7.52177 363 7.02853C362.994 6.53972 362.893 6.05678 362.7 5.60749C362.507 5.1582 362.228 4.75141 361.877 4.41054C361.527 4.06967 361.112 3.80143 360.658 3.62125C360.204 3.44106 359.718 3.35249 359.229 3.36062V3.36062ZM359.229 10.3276C358.792 10.3385 358.357 10.2618 357.95 10.102C357.542 9.9421 357.171 9.70233 356.858 9.39679C356.545 9.09125 356.296 8.72612 356.126 8.3229C355.956 7.91969 355.869 7.48655 355.869 7.04902C355.872 6.61052 355.961 6.17694 356.134 5.77362C356.306 5.37031 356.556 5.00535 356.871 4.70009C357.186 4.39483 357.558 4.15538 357.967 3.99576C358.375 3.83614 358.811 3.75954 359.25 3.77044C359.685 3.7595 360.117 3.83569 360.522 3.99452C360.927 4.15335 361.296 4.39161 361.607 4.69524C361.918 4.99888 362.165 5.36176 362.334 5.76249C362.503 6.16321 362.59 6.59369 362.59 7.02853C362.59 7.46875 362.502 7.90455 362.331 8.31025C362.16 8.71595 361.91 9.08335 361.595 9.39079C361.28 9.69823 360.906 9.9395 360.497 10.1004C360.087 10.2613 359.649 10.3385 359.209 10.3276H359.229Z" fill="#333333"/>
<path d="M361.033 6.27067C361.033 5.45103 360.398 4.97974 359.435 4.97974H357.652V8.89354H358.533V7.64358H359.25L360.111 8.89354H361.136L360.152 7.50014C360.413 7.41964 360.641 7.25584 360.8 7.03381C360.959 6.81178 361.041 6.54373 361.033 6.27067V6.27067ZM359.435 6.88541H358.533V5.73791H359.415C359.845 5.73791 360.132 5.94281 360.132 6.31165C360.132 6.68049 359.886 6.88541 359.435 6.88541Z" fill="#333333"/>
<path d="M201.634 10.2249C199.756 10.1342 197.879 10.4203 196.114 11.0665C194.349 11.7127 192.731 12.7059 191.356 13.9874C189.981 15.2689 188.877 16.8128 188.108 18.5281C187.339 20.2434 186.921 22.0952 186.88 23.9745V23.9745C186.88 31.5767 193.027 37.6215 201.531 37.6215C203.407 37.7123 205.282 37.4268 207.046 36.7818C208.809 36.1369 210.426 35.1455 211.801 33.8662C213.176 32.5869 214.281 31.0454 215.051 29.3325C215.821 27.6196 216.241 25.77 216.285 23.8925V23.8925C216.285 16.2903 210.055 10.2249 201.634 10.2249ZM208.682 24.0564C208.728 25.0008 208.578 25.9444 208.242 26.8281C207.905 27.7118 207.39 28.5165 206.729 29.1918C206.067 29.8671 205.273 30.3983 204.396 30.7523C203.519 31.1063 202.579 31.2753 201.634 31.2488C200.682 31.2574 199.738 31.0742 198.858 30.7101C197.979 30.346 197.181 29.8085 196.514 29.1296C195.846 28.4507 195.323 27.6444 194.974 26.7587C194.624 25.873 194.457 24.9261 194.482 23.9745V23.9745C194.437 23.0301 194.587 22.0864 194.923 21.2027C195.259 20.3191 195.774 19.5143 196.436 18.8391C197.098 18.1638 197.892 17.6325 198.769 17.2786C199.646 16.9246 200.586 16.7556 201.531 16.7821C202.484 16.7763 203.428 16.962 204.308 17.3284C205.188 17.6948 205.985 18.2342 206.652 18.9147C207.319 19.5952 207.843 20.4028 208.191 21.2896C208.54 22.1764 208.707 23.1243 208.682 24.0769V24.0564Z" fill="#333333"/>
<path d="M14.3438 1.80322H0V33.0727C0.00801964 33.6835 0.136256 34.2868 0.377455 34.8481C0.618653 35.4094 0.968113 35.9176 1.40576 36.3439C1.84341 36.7701 2.36063 37.1059 2.92809 37.3322C3.49554 37.5585 4.1022 37.6708 4.71306 37.6627H14.3848C25.9828 37.6627 33.9947 29.8146 33.9947 19.7329V19.6305C33.9537 9.50787 25.9417 1.80322 14.3438 1.80322ZM25.4706 19.8354C25.5206 21.2905 25.2635 22.7399 24.7161 24.0891C24.1688 25.4383 23.3435 26.6572 22.2938 27.6662C21.2442 28.6753 19.9936 29.4519 18.6238 29.9457C17.2541 30.4394 15.7958 30.6391 14.3438 30.5318H12.6431C11.451 30.5482 10.3008 30.0917 9.44437 29.2622C8.58798 28.4327 8.09494 27.2977 8.07338 26.1057V8.93413H14.3438C15.8018 8.83867 17.2636 9.05 18.6349 9.55449C20.0061 10.059 21.2563 10.8454 22.3048 11.863C23.3533 12.8806 24.1769 14.1068 24.7222 15.4623C25.2674 16.8179 25.5224 18.2727 25.4706 19.7329V19.8354Z" fill="#333333"/>
<path d="M63.379 10.2253H58.8298V14.59C57.5727 13.1589 56.016 12.0223 54.2701 11.2609C52.5241 10.4995 50.6319 10.1319 48.7278 10.1844C46.8975 10.1133 45.072 10.4194 43.3649 11.0836C41.6578 11.7478 40.1054 12.756 38.8044 14.0455C37.5035 15.3349 36.4817 16.8781 35.8023 18.5792C35.1229 20.2803 34.8006 22.103 34.8553 23.9339V24.0364C34.7973 25.8672 35.1175 27.6903 35.7961 29.3917C36.4746 31.0932 37.4967 32.6364 38.7987 33.9249C40.1007 35.2134 41.6545 36.2195 43.3629 36.8803C45.0713 37.5411 46.8977 37.8424 48.7278 37.7654C50.6904 37.8287 52.6401 37.4296 54.4199 36.6002C56.1997 35.7708 57.7596 34.5345 58.9734 32.991V34.5893C59.1129 35.3485 59.4761 36.0488 60.0164 36.6001C60.5568 37.1514 61.2497 37.5287 62.006 37.6834H66.9034V14.0367C66.8876 13.0791 66.5193 12.161 65.8691 11.4579C65.2189 10.7548 64.3324 10.3159 63.379 10.2253V10.2253ZM58.9529 23.8519C58.939 24.8927 58.7121 25.9197 58.2863 26.8695C57.8604 27.8193 57.2445 28.6718 56.4765 29.3744C55.7086 30.0771 54.8049 30.615 53.8211 30.9551C52.8373 31.2952 51.7944 31.4301 50.7564 31.3517C49.7159 31.4425 48.6679 31.3162 47.6788 30.9807C46.6896 30.6452 45.7809 30.1079 45.0103 29.4028C44.2397 28.6977 43.6239 27.8402 43.2021 26.8847C42.7803 25.9292 42.5617 24.8964 42.56 23.8519V23.8519C42.5648 22.8084 42.7855 21.7771 43.2083 20.823C43.6312 19.8689 44.2469 19.0127 45.0168 18.3083C45.7867 17.6038 46.6942 17.0663 47.682 16.7297C48.6698 16.393 49.7165 16.2645 50.7564 16.3522C51.7944 16.2738 52.8373 16.4087 53.8211 16.7488C54.8049 17.0888 55.7086 17.6268 56.4765 18.3294C57.2445 19.0321 57.8604 19.8846 58.2863 20.8344C58.7121 21.7842 58.939 22.8111 58.9529 23.8519V23.8519Z" fill="#333333"/>
<path d="M81.5757 11.0852C79.5272 12.2276 77.9568 14.0672 77.1498 16.2695V13.4622C77.0084 12.608 76.5877 11.8249 75.9536 11.2353C75.3196 10.6458 74.5078 10.2831 73.6456 10.2041H69.1377V33.8099C69.143 34.3229 69.2497 34.8298 69.4516 35.3015C69.6535 35.7731 69.9466 36.2002 70.3141 36.5582C70.6816 36.9162 71.1162 37.1981 71.593 37.3875C72.0698 37.577 72.5796 37.6703 73.0926 37.6622H77.1908V28.0519C77.1908 21.4947 80.4488 18.3801 85.7765 18.3801H86.2067V13.8515C86.197 13.3117 86.0501 12.7832 85.7795 12.3161C85.5088 11.8489 85.1234 11.4585 84.6599 11.1816C84.1964 10.9047 83.6699 10.7506 83.1303 10.7337C82.5906 10.7168 82.0556 10.8378 81.5757 11.0852V11.0852Z" fill="#333333"/>
<path d="M102.926 0.266357H98.459V3.36051C98.4615 4.20923 98.7501 5.03228 99.2784 5.6965C99.6538 6.17335 100.133 6.55793 100.68 6.82077C101.227 7.08361 101.827 7.21773 102.434 7.21284H106.901V4.15966C106.902 3.31039 106.613 2.4863 106.082 1.82368C105.704 1.34604 105.225 0.958457 104.679 0.689079C104.134 0.419701 103.535 0.275297 102.926 0.266357Z" fill="#333333"/>
<path d="M164.544 10.308H159.708V14.6316C158.507 13.2133 157.004 12.0815 155.309 11.3192C153.615 10.5569 151.771 10.1834 149.913 10.2261C148.108 10.1822 146.312 10.5099 144.639 11.1889C142.966 11.8678 141.45 12.8835 140.185 14.1728C138.921 15.4622 137.935 16.9977 137.289 18.684C136.643 20.3704 136.35 22.1715 136.43 23.9756V24.0985C136.355 25.9054 136.655 27.7082 137.31 29.3937C137.966 31.0791 138.963 32.6108 140.239 33.8924C141.515 35.1741 143.042 36.178 144.724 36.8411C146.407 37.5042 148.208 37.8122 150.015 37.7456C151.906 37.8152 153.785 37.4245 155.491 36.6071C157.197 35.7897 158.68 34.5701 159.81 33.0532V34.4875C159.81 39.7742 157.044 42.52 151.142 42.52C149.732 42.5247 148.325 42.3874 146.942 42.1102C145.084 41.7312 143.29 41.0896 141.614 40.2045L140.897 39.8357L140.036 41.5365L139.565 42.4586C139.424 42.853 139.355 43.2693 139.36 43.688C139.356 44.3886 139.545 45.0767 139.907 45.6768C140.268 46.2768 140.788 46.7657 141.409 47.0896L142.721 47.4994C145.526 48.2994 148.43 48.6995 151.347 48.6879C157.228 48.6879 161.593 47.4789 164.421 44.7331C167.248 41.9873 167.986 38.8931 167.986 33.6064V13.6071C167.852 12.7562 167.443 11.9726 166.821 11.3766C166.2 10.7807 165.399 10.4053 164.544 10.308V10.308ZM160.118 23.9551C160.104 24.9935 159.877 26.018 159.451 26.9648C159.024 27.9116 158.407 28.7604 157.638 29.4582C156.869 30.1561 155.965 30.6881 154.981 31.021C153.997 31.3539 152.956 31.4807 151.921 31.3934C150.898 31.4695 149.87 31.3336 148.901 30.9943C147.933 30.655 147.045 30.1195 146.293 29.4214C145.541 28.7232 144.941 27.8774 144.531 26.9369C144.121 25.9963 143.909 24.9812 143.909 23.9551V23.8526C143.915 22.8283 144.131 21.8161 144.543 20.8783C144.955 19.9406 145.555 19.0973 146.306 18.4003C147.057 17.7034 147.942 17.1676 148.908 16.8261C149.874 16.4845 150.899 16.3444 151.921 16.4144C152.956 16.327 153.997 16.4538 154.981 16.7867C155.965 17.1197 156.869 17.6517 157.638 18.3495C158.407 19.0474 159.024 19.8962 159.451 20.843C159.877 21.7898 160.104 22.8143 160.118 23.8526V23.9551Z" fill="#333333"/>
<path d="M180.609 28.1349V16.8648H187.248V13.6067C187.15 12.7185 186.751 11.8907 186.117 11.2607C185.484 10.6307 184.653 10.2366 183.765 10.1437H180.609V6.39383C180.475 5.56116 180.075 4.79416 179.469 4.20707C178.864 3.61997 178.085 3.24421 177.248 3.13574H172.597V10.1437H169.216V13.6067C169.232 14.489 169.597 15.329 170.23 15.9433C170.864 16.5576 171.715 16.8962 172.597 16.8853V29.4463C172.597 35.7986 175.916 37.6428 180.793 37.6428C183.008 37.705 185.198 37.1593 187.125 36.065V29.9176C185.906 30.5596 184.548 30.8904 183.17 30.8807C181.408 30.7987 180.609 29.9996 180.609 28.1349Z" fill="#333333"/>
<path d="M125.611 10.2253C123.992 10.2489 122.402 10.6615 120.975 11.4282C119.549 12.1949 118.327 13.2934 117.414 14.6309V14.6309C117.435 14.454 117.435 14.2751 117.414 14.0982C117.435 13.9212 117.435 13.7424 117.414 13.5654C117.275 12.6543 116.818 11.8217 116.124 11.2144C115.431 10.6071 114.545 10.2641 113.623 10.2458H109.402V33.8311C109.419 34.871 109.846 35.8622 110.591 36.5879C111.336 37.3136 112.338 37.7149 113.377 37.7039H117.476V22.9298C117.476 19.2414 119.423 17.3358 122.496 17.3358C125.57 17.3358 127.332 19.2414 127.332 22.9298V33.954C127.38 34.9723 127.821 35.9323 128.562 36.6318C129.304 37.3313 130.288 37.7157 131.307 37.7039H135.405V20.4709C135.201 14.1187 131.676 10.2253 125.611 10.2253Z" fill="#333333"/>
<path d="M233.535 10.2253C231.915 10.2489 230.325 10.6615 228.899 11.4282C227.472 12.1949 226.251 13.2934 225.338 14.6309V14.6309C225.349 14.4535 225.349 14.2756 225.338 14.0982C225.348 13.9207 225.348 13.7428 225.338 13.5654C225.194 12.6526 224.733 11.8196 224.036 11.2126C223.339 10.6057 222.451 10.2634 221.527 10.2458H217.429V33.8311C217.445 34.871 217.872 35.8622 218.617 36.5879C219.362 37.3136 220.364 37.7149 221.404 37.7039H225.502V22.9298C225.502 19.2414 227.551 17.3358 230.502 17.3358C233.453 17.3358 235.358 19.2414 235.358 22.9298V33.954C235.401 34.9741 235.841 35.9371 236.583 36.6377C237.326 37.3382 238.313 37.7208 239.334 37.7039H243.432V20.4709C243.125 14.1187 239.6 10.2253 233.535 10.2253Z" fill="#333333"/>
<path d="M102.702 10.2046H98.6035V33.7899C98.6197 34.8297 99.047 35.8209 99.7919 36.5466C100.537 37.2724 101.539 37.6736 102.579 37.6627H106.677V14.0774C106.672 13.5617 106.564 13.0521 106.361 12.578C106.159 12.1038 105.864 11.6744 105.495 11.3145C105.125 10.9546 104.688 10.6713 104.209 10.4808C103.73 10.2903 103.217 10.1965 102.702 10.2046V10.2046Z" fill="#333333"/>
<path d="M91.6558 0.266576H87.5576V33.79C87.5738 34.8299 88.0011 35.8211 88.746 36.5468C89.4909 37.2726 90.4931 37.6738 91.533 37.6628H95.6312V4.13939C95.6151 3.09951 95.1878 2.10834 94.4428 1.3826C93.6979 0.656868 92.6958 0.255617 91.6558 0.266576V0.266576Z" fill="#333333"/>
<path d="M247.677 32.048L249.583 29.835C250.34 28.9936 251.362 28.4356 252.48 28.2531C253.597 28.0705 254.744 28.2744 255.73 28.8309C258.008 30.1577 260.593 30.8642 263.229 30.88C266.488 30.88 268.475 29.6301 268.475 27.5605V27.458C268.475 25.4089 267.225 24.4868 261.16 22.9705C253.824 21.1468 249.111 19.1796 249.111 12.1717C249.111 5.77843 254.398 1.53677 261.816 1.53677C264.78 1.50691 267.72 2.07127 270.463 3.19655C271.106 3.45129 271.683 3.84871 272.15 4.35882C272.617 4.86894 272.962 5.47844 273.16 6.14139C273.357 6.80434 273.401 7.50342 273.289 8.18595C273.177 8.86848 272.911 9.51664 272.512 10.0816L271.242 11.8848C268.508 9.81247 265.22 8.59991 261.795 8.40129C258.742 8.40129 257.123 9.7537 257.123 11.475V11.5569C257.123 13.8724 258.68 14.6306 264.971 16.1879C272.348 18.0526 276.487 20.6345 276.487 26.7818V26.8843C276.487 33.8922 270.996 37.8265 263.148 37.8265C257.461 37.8371 251.964 35.7838 247.677 32.048V32.048Z" fill="#333333"/>
<path d="M277.266 27.6834V10.184H281.364C281.878 10.1731 282.389 10.2636 282.868 10.4503C283.347 10.637 283.785 10.9162 284.156 11.2721C284.527 11.6279 284.824 12.0534 285.031 12.5242C285.237 12.9949 285.349 13.5018 285.36 14.0158V25.2654C285.36 28.8924 287.142 30.7571 290.216 30.7571C293.29 30.7571 295.216 28.8924 295.216 25.2654V10.184H303.228V37.6421H299.13C298.572 37.664 298.015 37.5675 297.497 37.3589C296.979 37.1502 296.511 36.8341 296.123 36.4314C295.736 36.0288 295.439 35.5486 295.251 35.0227C295.062 34.4967 294.988 33.9368 295.032 33.3799V33.3799C294.112 34.7061 292.887 35.7926 291.461 36.5484C290.035 37.3042 288.449 37.7073 286.835 37.724C280.79 37.724 277.266 33.8922 277.266 27.6834Z" fill="#333333"/>
<path d="M306.117 0.410224H311.096C311.964 0.404682 312.8 0.741416 313.421 1.34745C314.042 1.95349 314.4 2.77999 314.416 3.64781V7.21327H309.457C308.586 7.22425 307.745 6.88992 307.119 6.28331C306.494 5.67669 306.133 4.84708 306.117 3.97567V0.410224ZM306.322 10.1845H310.072C311.159 10.1845 312.201 10.6163 312.97 11.3848C313.738 12.1534 314.17 13.1958 314.17 14.2827V37.2942H310.42C309.333 37.2942 308.291 36.8624 307.522 36.0939C306.754 35.3253 306.322 34.2829 306.322 33.196V10.1845Z" fill="#333333"/>
<path d="M318.637 29.5488V16.7418C317.78 16.764 316.948 16.4473 316.323 15.8604C315.698 15.2735 315.329 14.4637 315.297 13.6067V10.2667H318.616V3.36115H323.186C324.054 3.35561 324.889 3.69235 325.51 4.29839C326.132 4.90442 326.489 5.73092 326.505 6.59875V10.2667H329.723C330.591 10.2611 331.426 10.5979 332.047 11.2039C332.669 11.8099 333.026 12.6364 333.042 13.5043V16.8238H326.505V28.3808C326.505 30.143 327.284 31.0037 329.046 31.0037C330.403 31.0033 331.739 30.6727 332.94 30.0406V36.1879C331.07 37.2552 328.945 37.7935 326.792 37.7452C321.895 37.6633 318.637 35.7986 318.637 29.5488Z" fill="#333333"/>
<path d="M333.739 23.852C333.681 22.0162 333.995 20.1877 334.661 18.4762C335.328 16.7647 336.333 15.2057 337.618 13.8927C338.902 12.5797 340.438 11.5399 342.135 10.8357C343.831 10.1315 345.652 9.77756 347.489 9.79505C356.792 9.79505 361.033 16.803 361.033 24.4667C361.033 25.0609 361.033 25.7781 361.033 26.5158H341.669C341.944 28.086 342.792 29.4982 344.049 30.4787C345.306 31.4593 346.882 31.9383 348.472 31.823C349.807 31.852 351.131 31.5788 352.345 31.0238C353.347 30.5725 354.455 30.4138 355.543 30.5661C356.631 30.7184 357.653 31.1755 358.492 31.8845L359.702 32.9295C358.317 34.5824 356.572 35.8962 354.6 36.77C352.629 37.6438 350.484 38.0544 348.329 37.9703C339.887 37.8269 333.739 32.0484 333.739 23.852ZM353.349 21.5774C353.317 20.0446 352.685 18.5853 351.59 17.5127C350.494 16.4401 349.022 15.8396 347.489 15.8399C345.948 15.8673 344.474 16.4722 343.358 17.5348C342.243 18.5973 341.567 20.0401 341.464 21.5774H353.349Z" fill="#333333"/>
</svg>
