<svg width="208" height="29" viewBox="0 0 208 29" fill="none" xmlns="http://www.w3.org/2000/svg">
<path d="M205.84 2.57183C205.557 2.56716 205.277 2.61814 205.015 2.72183C204.752 2.82552 204.513 2.97991 204.31 3.17617C204.107 3.37243 203.945 3.60672 203.833 3.86566C203.721 4.1246 203.66 4.40311 203.656 4.68529C203.659 4.96693 203.718 5.24518 203.828 5.50405C203.939 5.76292 204.101 5.9973 204.302 6.19371C204.504 6.39012 204.743 6.54469 205.005 6.64852C205.267 6.75236 205.546 6.80341 205.828 6.79876C206.111 6.80342 206.391 6.75198 206.654 6.64741C206.916 6.54284 207.156 6.38723 207.358 6.18957C207.56 5.99192 207.72 5.75615 207.831 5.49593C207.941 5.2357 207.999 4.95618 208 4.67355C207.997 4.39346 207.939 4.11673 207.828 3.85929C207.718 3.60184 207.558 3.36876 207.357 3.17344C207.156 2.97811 206.919 2.82441 206.658 2.72117C206.398 2.61792 206.12 2.56717 205.84 2.57183ZM205.84 6.56393C205.589 6.5702 205.34 6.52623 205.106 6.43463C204.873 6.34303 204.66 6.20565 204.481 6.03057C204.301 5.8555 204.159 5.64627 204.062 5.41523C203.964 5.18419 203.914 4.936 203.914 4.68529C203.916 4.43403 203.967 4.18559 204.066 3.95449C204.164 3.72338 204.308 3.51426 204.489 3.33935C204.669 3.16443 204.882 3.02723 205.116 2.93577C205.35 2.8443 205.6 2.80041 205.851 2.80666C206.1 2.80039 206.348 2.84404 206.58 2.93505C206.812 3.02606 207.024 3.16258 207.202 3.33657C207.38 3.51056 207.522 3.71848 207.619 3.9481C207.716 4.17772 207.765 4.42439 207.765 4.67355C207.765 4.9258 207.715 5.17551 207.617 5.40798C207.519 5.64045 207.376 5.85097 207.195 6.02713C207.015 6.2033 206.801 6.34155 206.566 6.43374C206.331 6.52593 206.08 6.5702 205.828 6.56393H205.84Z" fill="white"/>
<path d="M206.873 4.2391C206.873 3.76944 206.509 3.49939 205.957 3.49939H204.936V5.74201H205.44V5.02578H205.851L206.344 5.74201H206.932L206.368 4.94359C206.518 4.89746 206.648 4.80361 206.739 4.67638C206.83 4.54915 206.877 4.39556 206.873 4.2391ZM205.957 4.59135H205.44V3.93382H205.945C206.192 3.93382 206.356 4.05124 206.356 4.26258C206.356 4.47393 206.215 4.59135 205.957 4.59135Z" fill="white"/>
<path d="M115.535 6.50526C114.46 6.45326 113.384 6.61723 112.373 6.98751C111.362 7.35778 110.434 7.92686 109.647 8.66118C108.859 9.39549 108.226 10.2802 107.785 11.263C107.345 12.2459 107.105 13.307 107.082 14.3838C107.082 18.7399 110.604 22.2036 115.477 22.2036C116.552 22.2556 117.626 22.092 118.637 21.7224C119.647 21.3529 120.574 20.7849 121.362 20.0518C122.149 19.3187 122.782 18.4354 123.224 17.4539C123.665 16.4725 123.905 15.4126 123.931 14.3368C123.931 9.98073 120.361 6.50526 115.535 6.50526ZM119.574 14.4308C119.601 14.9719 119.515 15.5126 119.322 16.019C119.129 16.5253 118.834 16.9864 118.455 17.3733C118.076 17.7603 117.621 18.0647 117.118 18.2675C116.616 18.4703 116.077 18.5672 115.535 18.552C114.99 18.5569 114.449 18.4519 113.945 18.2433C113.441 18.0347 112.984 17.7267 112.602 17.3377C112.219 16.9487 111.919 16.4867 111.719 15.9792C111.519 15.4717 111.424 14.9291 111.438 14.3838C111.412 13.8426 111.498 13.3019 111.69 12.7956C111.883 12.2892 112.178 11.8281 112.557 11.4412C112.936 11.0543 113.392 10.7499 113.894 10.547C114.396 10.3442 114.935 10.2473 115.477 10.2625C116.023 10.2592 116.564 10.3657 117.068 10.5756C117.572 10.7855 118.029 11.0946 118.411 11.4845C118.793 11.8744 119.093 12.3372 119.293 12.8454C119.493 13.3535 119.589 13.8966 119.574 14.4425V14.4308Z" fill="white"/>
<path d="M8.21903 1.67944H0V19.5969C0.00459528 19.9469 0.0780752 20.2926 0.216283 20.6143C0.35449 20.9359 0.554732 21.2271 0.805506 21.4713C1.05628 21.7156 1.35265 21.908 1.6778 22.0377C2.00296 22.1673 2.35057 22.2317 2.7006 22.227H8.24254C14.8882 22.227 19.4791 17.73 19.4791 11.9532V11.8945C19.4556 6.09423 14.8647 1.67944 8.21903 1.67944ZM14.5947 12.0119C14.6234 12.8457 14.4761 13.6762 14.1624 14.4493C13.8488 15.2224 13.3759 15.9208 12.7744 16.499C12.173 17.0772 11.4564 17.5222 10.6715 17.8052C9.88666 18.0881 9.05106 18.2025 8.21903 18.141H7.24454C6.56144 18.1504 5.90237 17.8889 5.41165 17.4135C4.92094 16.9382 4.63843 16.2879 4.62607 15.6048V5.76547H8.21903C9.05447 5.71077 9.89209 5.83187 10.6778 6.12094C11.4636 6.41002 12.18 6.86064 12.7807 7.44373C13.3815 8.02682 13.8534 8.72942 14.1659 9.50616C14.4783 10.2829 14.6244 11.1165 14.5947 11.9532V12.0119Z" fill="white"/>
<path d="M36.3168 6.50519H33.71V9.00613C32.9897 8.18614 32.0977 7.53486 31.0973 7.09856C30.0969 6.66226 29.0126 6.45166 27.9216 6.48171C26.8728 6.441 25.8268 6.61639 24.8486 6.99699C23.8705 7.37759 22.9809 7.95527 22.2354 8.69414C21.49 9.433 20.9045 10.3173 20.5152 11.292C20.1259 12.2667 19.9412 13.3111 19.9726 14.3602V14.4189C19.9394 15.468 20.1228 16.5127 20.5116 17.4876C20.9004 18.4625 21.4861 19.3468 22.2321 20.0851C22.9782 20.8234 23.8685 21.3999 24.8475 21.7786C25.8264 22.1572 26.8729 22.3299 27.9216 22.2857C29.0461 22.322 30.1633 22.0933 31.1832 21.6181C32.203 21.1428 33.0968 20.4344 33.7923 19.55V20.4658C33.8723 20.9009 34.0804 21.3021 34.39 21.618C34.6996 21.9339 35.0967 22.1501 35.53 22.2388H38.3363V8.68911C38.3272 8.14042 38.1162 7.61434 37.7436 7.21144C37.371 6.80855 36.8631 6.55711 36.3168 6.50519ZM33.7806 14.3133C33.7726 14.9097 33.6426 15.4981 33.3986 16.0423C33.1546 16.5866 32.8016 17.075 32.3616 17.4777C31.9216 17.8803 31.4037 18.1886 30.84 18.3834C30.2763 18.5783 29.6787 18.6556 29.084 18.6107C28.4877 18.6627 27.8872 18.5903 27.3205 18.3981C26.7537 18.2058 26.233 17.898 25.7914 17.4939C25.3499 17.0899 24.997 16.5986 24.7553 16.0511C24.5136 15.5035 24.3884 14.9118 24.3874 14.3133C24.3901 13.7153 24.5166 13.1244 24.7589 12.5777C25.0012 12.031 25.354 11.5404 25.7952 11.1367C26.2363 10.7331 26.7563 10.4251 27.3223 10.2322C27.8883 10.0393 28.4881 9.96565 29.084 10.0159C29.6787 9.97095 30.2763 10.0483 30.84 10.2431C31.4037 10.438 31.9216 10.7462 32.3616 11.1489C32.8016 11.5515 33.1546 12.04 33.3986 12.5842C33.6426 13.1284 33.7726 13.7169 33.7806 14.3133Z" fill="white"/>
<path d="M46.7427 6.99829C45.5689 7.65289 44.6691 8.70696 44.2067 9.96888V8.3603C44.1256 7.87087 43.8846 7.42213 43.5213 7.08432C43.158 6.7465 42.6928 6.53869 42.1988 6.49341H39.6157V20.0196C39.6188 20.3136 39.6799 20.604 39.7956 20.8743C39.9113 21.1445 40.0792 21.3893 40.2898 21.5944C40.5004 21.7995 40.7494 21.961 41.0226 22.0696C41.2958 22.1781 41.5879 22.2316 41.8819 22.227H44.2302V16.7202C44.2302 12.963 46.097 11.1783 49.1498 11.1783H49.3963V8.58339C49.3908 8.27407 49.3066 7.97127 49.1515 7.70358C48.9964 7.43589 48.7756 7.21216 48.51 7.05351C48.2444 6.89486 47.9427 6.80653 47.6335 6.79687C47.3243 6.78721 47.0177 6.85653 46.7427 6.99829Z" fill="white"/>
<path d="M58.977 0.798706H56.4175V2.57167C56.4189 3.05799 56.5843 3.5296 56.887 3.91019C57.1021 4.18343 57.377 4.4038 57.6904 4.55441C58.0038 4.70501 58.3475 4.78186 58.6953 4.77906H61.255V3.02958C61.2554 2.54295 61.0897 2.07074 60.7853 1.69106C60.5691 1.41737 60.2945 1.19528 59.9818 1.04093C59.669 0.886572 59.3258 0.803829 58.977 0.798706Z" fill="white"/>
<path d="M94.2837 6.55225H91.5125V9.0297C90.8245 8.21698 89.9635 7.56847 88.9924 7.13167C88.0213 6.69487 86.9648 6.48084 85.9002 6.50528C84.8658 6.48015 83.8371 6.66793 82.8783 7.05697C81.9195 7.44601 81.0508 8.028 80.3263 8.7668C79.6018 9.50561 79.0369 10.3855 78.6667 11.3517C78.2965 12.318 78.1289 13.35 78.1743 14.3838V14.4543C78.1315 15.4896 78.3033 16.5226 78.6789 17.4884C79.0545 18.4542 79.6258 19.3318 80.3569 20.0662C81.0879 20.8006 81.963 21.3758 82.927 21.7558C83.8911 22.1357 84.9233 22.3122 85.9589 22.2741C87.0422 22.3139 88.119 22.0901 89.0966 21.6217C90.0742 21.1533 90.9235 20.4545 91.5713 19.5853V20.4072C91.5713 23.4365 89.9862 25.0098 86.6047 25.0098C85.7965 25.0125 84.9901 24.9338 84.1976 24.775C83.1333 24.5578 82.1055 24.1902 81.1449 23.6831L80.734 23.4717L80.2408 24.4462L79.9707 24.9746C79.8901 25.2006 79.8503 25.4392 79.8533 25.6791C79.851 26.0805 79.9594 26.4748 80.1665 26.8186C80.3737 27.1625 80.6716 27.4426 81.0275 27.6282L81.779 27.863C83.3864 28.3215 85.0505 28.5507 86.7221 28.544C90.0919 28.544 92.5928 27.8513 94.2131 26.2779C95.8335 24.7046 96.2561 22.9316 96.2561 19.9023V8.44262C96.1796 7.95505 95.9451 7.50606 95.5888 7.16457C95.2325 6.82309 94.774 6.60797 94.2837 6.55225ZM91.7475 14.3721C91.7399 14.9671 91.6098 15.5541 91.3653 16.0966C91.1209 16.6391 90.7674 17.1255 90.3268 17.5254C89.8862 17.9252 89.3678 18.2301 88.8042 18.4208C88.2406 18.6116 87.6438 18.6843 87.0509 18.6342C86.4645 18.6778 85.8755 18.6 85.3206 18.4056C84.7657 18.2111 84.2569 17.9043 83.826 17.5043C83.3951 17.1042 83.0513 16.6196 82.8162 16.0806C82.5812 15.5417 82.4599 14.96 82.4599 14.3721V14.3134C82.4634 13.7264 82.587 13.1464 82.8233 12.6091C83.0595 12.0718 83.4033 11.5885 83.8334 11.1892C84.2636 10.7898 84.771 10.4828 85.3243 10.2871C85.8777 10.0914 86.4653 10.0111 87.0509 10.0512C87.6438 10.0012 88.2406 10.0738 88.8042 10.2646C89.3678 10.4554 89.8862 10.7602 90.3268 11.1601C90.7674 11.5599 91.1209 12.0463 91.3653 12.5888C91.6098 13.1313 91.7399 13.7184 91.7475 14.3134V14.3721Z" fill="white"/>
<path d="M103.489 16.7671V10.3093H107.293V8.4424C107.237 7.93348 107.009 7.45911 106.646 7.09813C106.282 6.73715 105.807 6.51129 105.297 6.45809H103.489V4.3094C103.412 3.83228 103.183 3.39278 102.836 3.05638C102.489 2.71997 102.043 2.50466 101.564 2.4425H98.8983V6.45809H96.9609V8.4424C96.9702 8.94795 97.1791 9.42929 97.5421 9.78128C97.9051 10.1333 98.3927 10.3273 98.8983 10.321V17.5186C98.8983 21.1584 100.8 22.2151 103.595 22.2151C104.864 22.2508 106.119 21.9381 107.223 21.3111V17.7886C106.525 18.1564 105.746 18.346 104.957 18.3405C103.947 18.2935 103.489 17.8356 103.489 16.7671Z" fill="white"/>
<path d="M71.9755 6.50525C71.0477 6.51876 70.1366 6.75515 69.3192 7.19449C68.5019 7.63383 67.8021 8.26324 67.2789 9.02967C67.291 8.92827 67.291 8.82579 67.2789 8.72439C67.2906 8.62296 67.2906 8.52054 67.2789 8.41911C67.1989 7.89702 66.937 7.41996 66.5397 7.07199C66.1423 6.72402 65.6347 6.52748 65.1067 6.51699H62.688V20.0314C62.6973 20.6273 62.9421 21.1952 63.3689 21.6111C63.7958 22.0269 64.3699 22.2568 64.9658 22.2506H67.3141V13.785C67.3141 11.6715 68.4296 10.5795 70.1908 10.5795C71.952 10.5795 72.9618 11.6715 72.9618 13.785V20.1019C72.9891 20.6853 73.2419 21.2354 73.6668 21.6362C74.0917 22.0371 74.6555 22.2573 75.2396 22.2506H77.5878V12.376C77.4704 8.73613 75.451 6.50525 71.9755 6.50525Z" fill="white"/>
<path d="M133.817 6.50525C132.889 6.51876 131.978 6.75515 131.16 7.19449C130.343 7.63383 129.643 8.26324 129.12 9.02967C129.126 8.928 129.126 8.82605 129.12 8.72439C129.126 8.62271 129.126 8.52079 129.12 8.41911C129.037 7.89605 128.773 7.41877 128.374 7.07098C127.975 6.72318 127.466 6.52705 126.936 6.51699H124.588V20.0314C124.597 20.6273 124.842 21.1952 125.269 21.6111C125.696 22.0269 126.27 22.2568 126.866 22.2506H129.214V13.785C129.214 11.6715 130.388 10.5795 132.079 10.5795C133.77 10.5795 134.862 11.6715 134.862 13.785V20.1019C134.886 20.6864 135.138 21.2382 135.564 21.6396C135.989 22.041 136.555 22.2603 137.14 22.2506H139.488V12.376C139.312 8.73613 137.292 6.50525 133.817 6.50525Z" fill="white"/>
<path d="M58.8483 6.49332H56.5V20.0078C56.5093 20.6036 56.7541 21.1716 57.181 21.5874C57.6078 22.0033 58.1819 22.2332 58.7778 22.2269H61.1261V8.71246C61.123 8.41695 61.0616 8.12496 60.9453 7.85327C60.8291 7.58158 60.6602 7.33555 60.4486 7.12933C60.2369 6.9231 59.9865 6.76075 59.7118 6.6516C59.4372 6.54245 59.1438 6.48866 58.8483 6.49332Z" fill="white"/>
<path d="M52.5197 0.798709H50.1714V20.0078C50.1807 20.6036 50.4255 21.1716 50.8523 21.5874C51.2792 22.0033 51.8534 22.2332 52.4493 22.2269H54.7976V3.01785C54.7883 2.42199 54.5435 1.85405 54.1166 1.4382C53.6898 1.02235 53.1156 0.792429 52.5197 0.798709Z" fill="white"/>
<path d="M141.919 19.0098L143.011 17.7417C143.446 17.2596 144.031 16.9399 144.671 16.8353C145.312 16.7307 145.969 16.8475 146.534 17.1664C147.839 17.9266 149.321 18.3315 150.831 18.3406C152.698 18.3406 153.837 17.6243 153.837 16.4384V16.3797C153.837 15.2056 153.121 14.6772 149.645 13.8083C145.442 12.7634 142.741 11.6362 142.741 7.62059C142.741 3.95725 145.771 1.52677 150.021 1.52677C151.72 1.50966 153.404 1.83304 154.976 2.47782C155.344 2.6238 155.675 2.85152 155.943 3.14381C156.21 3.43611 156.408 3.78536 156.521 4.16523C156.634 4.5451 156.66 4.94568 156.595 5.33677C156.531 5.72786 156.379 6.09926 156.15 6.42296L155.422 7.45621C153.856 6.26877 151.972 5.57397 150.009 5.46016C148.26 5.46016 147.332 6.2351 147.332 7.22138V7.26835C147.332 8.59513 148.225 9.02957 151.829 9.92192C156.056 10.9904 158.428 12.4698 158.428 15.9923V16.051C158.428 20.0666 155.281 22.3209 150.784 22.3209C147.526 22.327 144.376 21.1504 141.919 19.0098Z" fill="white"/>
<path d="M158.874 16.5089V6.4817H161.222C161.517 6.47547 161.81 6.52732 162.084 6.6343C162.359 6.74128 162.609 6.90129 162.822 7.10519C163.035 7.30909 163.205 7.55288 163.323 7.82264C163.442 8.0924 163.506 8.38283 163.512 8.67736V15.1234C163.512 17.2017 164.533 18.2701 166.295 18.2701C168.056 18.2701 169.16 17.2017 169.16 15.1234V6.4817H173.751V22.2153H171.402C171.082 22.2279 170.764 22.1726 170.467 22.053C170.17 21.9334 169.901 21.7523 169.68 21.5216C169.458 21.2908 169.287 21.0157 169.179 20.7143C169.072 20.413 169.029 20.0922 169.054 19.773C168.527 20.533 167.825 21.1555 167.008 21.5886C166.191 22.0217 165.282 22.2527 164.357 22.2622C160.894 22.2622 158.874 20.0666 158.874 16.5089Z" fill="white"/>
<path d="M175.406 0.88102H178.259C178.756 0.877845 179.235 1.07079 179.591 1.41805C179.947 1.76531 180.152 2.2389 180.161 2.73617V4.77919H177.32C176.82 4.78548 176.339 4.59391 175.98 4.24632C175.621 3.89872 175.415 3.42336 175.406 2.92403V0.88102ZM175.523 6.4817H177.672C178.295 6.4817 178.892 6.72911 179.332 7.1695C179.773 7.60989 180.02 8.20719 180.02 8.83V22.0157H177.871C177.249 22.0157 176.651 21.7683 176.211 21.3279C175.771 20.8875 175.523 20.2902 175.523 19.6674V6.4817Z" fill="white"/>
<path d="M182.58 17.5775V10.2391C182.089 10.2518 181.612 10.0703 181.254 9.73404C180.896 9.39773 180.684 8.93373 180.666 8.44267V6.52881H182.568V2.57194H185.186C185.684 2.56876 186.162 2.76172 186.518 3.10898C186.874 3.45624 187.079 3.92982 187.089 4.42709V6.52881H188.932C189.429 6.52564 189.908 6.71859 190.264 7.06585C190.62 7.41311 190.825 7.8867 190.834 8.38397V10.2861H187.089V16.9083C187.089 17.918 187.535 18.4112 188.544 18.4112C189.322 18.411 190.088 18.2216 190.775 17.8593V21.3818C189.704 21.9933 188.486 22.3018 187.253 22.2741C184.447 22.2272 182.58 21.1587 182.58 17.5775Z" fill="white"/>
<path d="M191.233 14.3132C191.2 13.2613 191.38 12.2135 191.762 11.2329C192.144 10.2522 192.72 9.35883 193.456 8.60648C194.192 7.85413 195.072 7.25831 196.044 6.85482C197.016 6.45134 198.06 6.24851 199.112 6.25853C204.443 6.25853 206.873 10.2741 206.873 14.6654C206.873 15.0059 206.873 15.4169 206.873 15.8396H195.777C195.935 16.7393 196.421 17.5485 197.141 18.1103C197.861 18.6722 198.764 18.9467 199.675 18.8806C200.44 18.8973 201.199 18.7407 201.895 18.4227C202.468 18.1641 203.104 18.0732 203.727 18.1604C204.35 18.2477 204.936 18.5096 205.417 18.9158L206.11 19.5147C205.316 20.4618 204.316 21.2146 203.187 21.7152C202.057 22.2159 200.828 22.4512 199.593 22.4031C194.756 22.3209 191.233 19.0098 191.233 14.3132ZM202.47 13.0099C202.451 12.1315 202.09 11.2954 201.462 10.6808C200.834 10.0662 199.99 9.72207 199.112 9.72227C198.229 9.73797 197.385 10.0846 196.745 10.6934C196.106 11.3023 195.719 12.129 195.66 13.0099H202.47Z" fill="white"/>
</svg>
