<svg width="118" height="48" viewBox="0 0 118 48" fill="none" xmlns="http://www.w3.org/2000/svg">
<path d="M37.7911 8.82456C37.6987 7.97042 37.8668 7.28546 38.2818 6.66981C38.3238 6.58777 38.3774 6.51212 38.4407 6.44516C38.9693 6.01532 39.6032 6.05415 40.202 6.15399C40.7214 6.23995 41.0402 6.64946 41.1705 7.16342C41.3475 7.86365 41.4378 8.583 41.4394 9.30527C41.4449 13.0851 41.4514 16.8659 41.4348 20.6458C41.4292 21.7674 41.2908 22.8845 41.0226 23.9736C40.5125 26.0646 38.6117 27.9624 36.2173 28.1944C34.3895 28.3719 32.569 28.5411 30.7652 28.0706C29.5983 27.78 28.5013 27.2592 27.5383 26.5388C26.9072 26.059 26.4807 25.3584 26.3443 24.5773C26.1299 23.4976 27.2906 22.5722 28.4522 22.8717C28.9937 23.0113 29.4123 23.3339 29.7626 23.7619C30.2246 24.3304 30.6358 24.9359 31.3002 25.3242C32.5829 26.0729 33.8997 25.9361 35.2212 25.5238C36.1684 25.229 36.8014 24.6078 37.1248 23.627C37.402 22.795 37.4381 21.9436 37.4852 21.0886C37.5016 20.6114 37.5473 20.1356 37.622 19.6641C37.3512 19.9543 37.1701 20.1577 36.9797 20.3518C34.3673 23.0132 30.1294 22.7858 27.8053 19.8702C26.7158 18.503 26.1817 16.9436 26.0366 15.2131C25.9054 13.6314 25.9987 12.084 26.5218 10.58C27.0762 8.97801 28.1666 7.83085 29.6637 7.0562C30.2181 6.76964 30.6728 6.30465 31.3335 6.21314C33.7288 5.88128 35.7747 6.50618 37.3836 8.36792C37.4834 8.48901 37.5952 8.60733 37.7911 8.82456ZM33.3323 9.14903C32.0885 9.20819 31.0221 9.75821 30.402 11.0496C29.94 12.0073 29.8014 13.0056 29.7801 14.0724C29.7395 15.2571 30.0665 16.4254 30.7162 17.4169C32.0765 19.5143 35.2748 19.543 36.6443 17.4594C37.2523 16.535 37.4519 15.4987 37.4695 14.3654C37.5066 13.0881 37.1518 11.83 36.453 10.7603C35.7553 9.67595 34.7443 9.18046 33.3323 9.14903Z" fill="url(#paint0_linear_543_296)"/>
<path d="M88.4827 19.833C87.6677 20.8943 86.6244 21.5515 85.4859 22.0211C83.7911 22.7209 82.0667 22.7477 80.4181 21.8556C77.9822 20.5384 76.9482 18.3087 76.561 15.7075C76.3189 14.1389 76.4099 12.537 76.828 11.006C78.1218 6.29708 83.7144 4.56754 87.4329 7.72805C87.7102 7.96378 87.9985 8.19026 88.2886 8.42413C88.4254 8.25866 88.3681 8.10059 88.369 7.96193C88.374 6.1951 88.374 4.42825 88.369 2.66142C88.3806 2.09302 88.4994 1.53194 88.7193 1.00768C88.9826 0.331947 89.5232 0.10362 90.1766 0.0832833C90.7754 0.0675686 91.3437 0.195136 91.7189 0.730362C91.9903 1.12522 92.1424 1.5899 92.1569 2.06889C92.18 2.59025 92.1754 3.11346 92.1754 3.64037C92.1754 9.04871 92.1754 14.4571 92.1754 19.8654C92.1754 20.2805 92.1754 20.6927 92.0599 21.0995C91.7771 22.1163 90.8696 22.6765 89.8346 22.45C88.9346 22.2531 88.3311 21.313 88.4836 20.3378C88.5086 20.2019 88.5742 20.0725 88.4827 19.833ZM88.2119 14.6028C88.1888 13.1099 88.0817 11.996 87.4403 11.0189C86.5966 9.73029 85.4498 8.89279 83.8511 9.20154C82.3153 9.49735 81.2775 10.4763 80.7601 11.9831C80.3645 13.1339 80.5623 14.2941 80.675 15.4468C80.7674 16.3462 81.0641 17.1809 81.662 17.8844C82.5482 18.9271 83.6525 19.4744 85.0349 19.2599C86.5458 19.0251 87.4625 18.0869 87.8765 16.6494C88.102 15.8665 88.2341 15.0631 88.2119 14.6028Z" fill="url(#paint1_linear_543_296)"/>
<path d="M102.22 39.3785C102.188 35.1966 105.526 31.8992 109.814 31.878C111.845 31.8706 113.795 32.6688 115.238 34.0977C116.681 35.5266 117.499 37.4695 117.512 39.5006C117.531 43.6604 114.106 47.1269 109.941 47.1574C105.634 47.1879 102.253 43.7833 102.22 39.3785Z" fill="url(#paint2_linear_543_296)"/>
<path d="M33.6225 47.1573C29.4105 47.1573 25.9654 43.7019 25.9756 39.4848C25.9867 35.2372 29.3504 31.8835 33.6068 31.8779C37.8243 31.8733 41.2767 35.3204 41.2712 39.5338C41.2657 43.7223 37.8206 47.1573 33.6225 47.1573Z" fill="url(#paint3_linear_543_296)"/>
<path d="M84.3576 47.166C80.1586 47.1549 76.7274 43.6875 76.7413 39.4704C76.7542 35.2181 80.1438 31.8589 84.4177 31.8672C88.6168 31.8755 92.0646 35.3429 92.0553 39.548C92.0461 43.7531 88.5743 47.178 84.3576 47.166Z" fill="url(#paint4_linear_543_296)"/>
<path d="M0.513699 39.5008C0.523864 35.2892 3.98182 31.8625 8.19938 31.8819C10.2199 31.8966 12.1527 32.7097 13.5763 34.144C14.9999 35.5783 15.7989 37.5175 15.7991 39.5387C15.7927 43.7493 12.3365 47.1761 8.11529 47.1585C3.92545 47.1391 0.50261 43.6911 0.513699 39.5008Z" fill="url(#paint5_linear_543_296)"/>
<path d="M66.5744 39.5524C66.5624 43.7584 63.097 47.1796 58.873 47.1565C54.6887 47.1334 51.2603 43.6669 51.2853 39.484C51.3033 37.4632 52.1176 35.5312 53.5512 34.1074C54.9849 32.6837 56.9222 31.8832 58.9423 31.8799C60.9709 31.8867 62.9139 32.6985 64.3448 34.137C65.7757 35.5754 66.5776 37.5231 66.5744 39.5524Z" fill="url(#paint6_linear_543_296)"/>
<path d="M15.3234 14.0382C15.3502 16.1172 15.231 17.6572 15.609 19.1695C15.7171 19.5994 15.8566 20.0209 15.9148 20.4637C16.0618 21.6016 15.0397 22.6351 13.8929 22.4974C13.6631 22.4761 13.4408 22.4045 13.2418 22.2875C13.0427 22.1706 12.8719 22.0112 12.7415 21.8207C12.4208 21.3696 12.0752 20.936 11.774 20.4738C11.5827 20.1808 11.4505 20.1309 11.1493 20.3703C9.85012 21.4159 8.30663 22.1141 6.66374 22.3994C5.09278 22.6767 3.61423 22.4299 2.30479 21.5332C0.0148842 19.9617 -0.0451818 16.6126 1.92221 14.8933C2.93872 14.0031 4.11786 13.5806 5.43377 13.4373C7.13872 13.2525 8.7605 12.745 10.3832 12.2162C11.238 11.9389 11.2472 11.95 11.0929 11.0468C11.0056 10.5617 10.8286 10.0971 10.5708 9.67689C10.3268 9.26646 9.90823 9.15368 9.47945 9.0751C8.18572 8.83753 6.94189 9.03626 5.75165 9.58535C5.24618 9.81922 4.88208 10.2075 4.60301 10.6817C4.44229 10.9803 4.24788 11.2594 4.0236 11.5137C3.544 12.0221 2.99324 12.1607 2.35376 11.9102C1.71429 11.6597 1.30492 11.1411 1.32063 10.4728C1.35482 8.96694 2.20314 7.95195 3.4368 7.23739C4.59198 6.58286 5.88544 6.21069 7.21172 6.15122C8.90743 6.05878 10.5828 6.15585 12.2259 6.66797C14.0149 7.22261 14.8623 8.50011 15.1598 10.2629C15.3983 11.6995 15.3123 13.1434 15.3234 14.0382ZM7.08789 19.7833C7.1803 19.7833 7.24222 19.7833 7.30321 19.7833C9.43509 19.6484 11.0717 18.601 11.226 16.1671C11.2583 15.6494 11.104 15.1364 11.2666 14.6132C11.3498 14.346 11.1049 14.493 11.0033 14.5207C9.76499 14.8119 8.53318 15.1271 7.29027 15.3952C6.70717 15.5209 6.10651 15.5505 5.56499 15.8445C5.31538 15.9732 5.09682 16.1548 4.92456 16.3766C4.7523 16.5985 4.63048 16.8552 4.56757 17.129C4.50467 17.4028 4.50221 17.687 4.56036 17.9618C4.61851 18.2366 4.73587 18.4955 4.90426 18.7203C5.45317 19.4737 6.18043 19.8388 7.08789 19.7833Z" fill="url(#paint7_linear_543_296)"/>
<path d="M116.878 14.3342C116.896 16.2172 116.785 17.7416 117.171 19.2336C117.282 19.6634 117.382 20.096 117.475 20.5277C117.702 21.588 116.869 22.187 116.166 22.407C115.464 22.627 114.818 22.493 114.31 21.8653C113.962 21.4359 113.639 20.9868 113.342 20.5203C113.145 20.2088 113.006 20.1136 112.657 20.3946C111.359 21.4425 109.811 22.1353 108.166 22.4052C106.595 22.6723 105.116 22.4172 103.815 21.5002C101.528 19.8862 101.516 16.5426 103.538 14.8251C104.574 13.9451 105.768 13.5661 107.071 13.4154C108.925 13.2019 110.687 12.6065 112.48 12.1332C112.796 12.05 112.883 11.8957 112.862 11.5786C112.819 10.9959 112.664 10.427 112.406 9.90268C112.312 9.69075 112.171 9.50283 111.994 9.35301C111.817 9.20318 111.609 9.0953 111.384 9.03743C109.554 8.54565 107.333 8.74995 106.188 10.8631C105.906 11.3836 105.541 11.819 104.9 11.9567C104.023 12.1416 103.091 11.4723 103.038 10.5701C102.969 9.40997 103.523 8.52163 104.344 7.7969C105.35 6.90763 106.59 6.46206 107.89 6.26054C109.763 5.95634 111.68 6.06678 113.506 6.58408C115.413 7.1304 116.434 8.43287 116.721 10.3741C116.934 11.8152 116.859 13.2573 116.878 14.3342ZM112.853 14.4332C111.215 14.9203 109.601 15.1394 108.02 15.511C107.095 15.7282 106.342 16.1581 106.105 17.1463C105.858 18.1825 106.647 19.3787 107.747 19.6819C108.399 19.8612 109.056 19.8095 109.709 19.6773C111.414 19.3343 112.389 18.36 112.715 16.673C112.855 15.9492 112.646 15.2078 112.853 14.4332Z" fill="url(#paint8_linear_543_296)"/>
<path d="M66.8919 13.863C66.8596 16.6362 66.0954 18.68 64.4431 20.3661C63.5606 21.2665 62.4101 21.7028 61.2383 22.0023C58.0354 22.8213 55.1393 22.2732 52.7607 19.8392C51.6721 18.7299 51.1269 17.3304 50.8515 15.8245C50.4819 13.7853 50.724 11.8053 51.6342 9.94999C52.4659 8.25465 53.7828 7.08434 55.6365 6.51399C58.162 5.73564 60.6164 5.77911 62.9424 7.08806C64.3904 7.90338 65.3284 9.21417 66.0353 10.7061C66.5768 11.8487 66.9585 13.0116 66.8919 13.863ZM54.949 14.1033C54.9138 14.523 54.9878 14.9353 55.0497 15.3429C55.2705 16.7961 55.7169 18.0939 57.1326 18.8815C58.6047 19.7005 60.6802 19.3243 61.7179 18.0024C62.5921 16.8931 62.9405 15.6702 62.935 14.2457C62.9294 12.8683 62.6346 11.6472 61.8649 10.5185C60.585 8.63919 57.8617 8.45801 56.3037 10.1108C55.2271 11.2525 55.0118 12.6428 54.949 14.1033Z" fill="url(#paint9_linear_543_296)"/>
<defs>
<linearGradient id="paint0_linear_543_296" x1="-23.5558" y1="17.2311" x2="134.437" y2="17.2311" gradientUnits="userSpaceOnUse">
<stop offset="0.28" stop-color="#782671"/>
<stop offset="0.5" stop-color="#7E256F"/>
<stop offset="0.8" stop-color="#8F2269"/>
<stop offset="0.99" stop-color="#9D2064"/>
</linearGradient>
<linearGradient id="paint1_linear_543_296" x1="-23.5562" y1="11.3092" x2="134.437" y2="11.3092" gradientUnits="userSpaceOnUse">
<stop offset="0.28" stop-color="#782671"/>
<stop offset="0.5" stop-color="#7E256F"/>
<stop offset="0.8" stop-color="#8F2269"/>
<stop offset="0.99" stop-color="#9D2064"/>
</linearGradient>
<linearGradient id="paint2_linear_543_296" x1="-23.5556" y1="39.5181" x2="134.438" y2="39.5181" gradientUnits="userSpaceOnUse">
<stop offset="0.28" stop-color="#782671"/>
<stop offset="0.5" stop-color="#7E256F"/>
<stop offset="0.8" stop-color="#8F2269"/>
<stop offset="0.99" stop-color="#9D2064"/>
</linearGradient>
<linearGradient id="paint3_linear_543_296" x1="-23.5558" y1="39.5181" x2="134.437" y2="39.5181" gradientUnits="userSpaceOnUse">
<stop offset="0.28" stop-color="#782671"/>
<stop offset="0.5" stop-color="#7E256F"/>
<stop offset="0.8" stop-color="#8F2269"/>
<stop offset="0.99" stop-color="#9D2064"/>
</linearGradient>
<linearGradient id="paint4_linear_543_296" x1="-23.5561" y1="39.5166" x2="134.437" y2="39.5166" gradientUnits="userSpaceOnUse">
<stop offset="0.28" stop-color="#782671"/>
<stop offset="0.5" stop-color="#7E256F"/>
<stop offset="0.8" stop-color="#8F2269"/>
<stop offset="0.99" stop-color="#9D2064"/>
</linearGradient>
<linearGradient id="paint5_linear_543_296" x1="-23.5562" y1="39.5184" x2="134.437" y2="39.5184" gradientUnits="userSpaceOnUse">
<stop offset="0.28" stop-color="#782671"/>
<stop offset="0.5" stop-color="#7E256F"/>
<stop offset="0.8" stop-color="#8F2269"/>
<stop offset="0.99" stop-color="#9D2064"/>
</linearGradient>
<linearGradient id="paint6_linear_543_296" x1="-23.5561" y1="39.5182" x2="134.437" y2="39.5182" gradientUnits="userSpaceOnUse">
<stop offset="0.28" stop-color="#782671"/>
<stop offset="0.5" stop-color="#7E256F"/>
<stop offset="0.8" stop-color="#8F2269"/>
<stop offset="0.99" stop-color="#9D2064"/>
</linearGradient>
<linearGradient id="paint7_linear_543_296" x1="-23.556" y1="14.3174" x2="134.437" y2="14.3174" gradientUnits="userSpaceOnUse">
<stop offset="0.28" stop-color="#782671"/>
<stop offset="0.5" stop-color="#7E256F"/>
<stop offset="0.8" stop-color="#8F2269"/>
<stop offset="0.99" stop-color="#9D2064"/>
</linearGradient>
<linearGradient id="paint8_linear_543_296" x1="-23.5557" y1="14.3065" x2="134.438" y2="14.3065" gradientUnits="userSpaceOnUse">
<stop offset="0.28" stop-color="#782671"/>
<stop offset="0.5" stop-color="#7E256F"/>
<stop offset="0.8" stop-color="#8F2269"/>
<stop offset="0.99" stop-color="#9D2064"/>
</linearGradient>
<linearGradient id="paint9_linear_543_296" x1="-23.5555" y1="14.1791" x2="134.438" y2="14.1791" gradientUnits="userSpaceOnUse">
<stop offset="0.28" stop-color="#782671"/>
<stop offset="0.5" stop-color="#7E256F"/>
<stop offset="0.8" stop-color="#8F2269"/>
<stop offset="0.99" stop-color="#9D2064"/>
</linearGradient>
</defs>
</svg>
