<svg width="129" height="40" viewBox="0 0 129 40" fill="none" xmlns="http://www.w3.org/2000/svg">
<path d="M0.512695 30.5482C0.646218 30.3445 0.621852 30.1037 0.664735 29.8804C0.892795 28.6763 1.39472 27.5727 1.89567 26.4681C5.05927 19.4759 8.47725 12.6055 11.9839 5.77994C12.5287 4.71824 13.0706 3.6575 13.8035 2.70694C16.4428 -0.715086 21.3899 -0.80283 24.1549 2.51195C25.0194 3.54734 25.6041 4.73775 26.2172 5.91742C29.4198 12.0751 32.4788 18.303 35.3942 24.6011C36.0228 25.966 36.6914 27.3075 37.1894 28.7251C38.6805 32.9651 36.2041 38.8089 30.5211 39.8637C30.2492 39.9144 29.9714 39.9339 29.6966 39.968C27.1528 40.0909 24.9044 39.269 22.8499 37.8232C21.5313 36.881 20.3174 35.8001 19.2292 34.5991C19.0791 34.4372 18.9816 34.3895 18.8393 34.5854C18.7713 34.6674 18.6981 34.745 18.6201 34.8175C17.1523 36.3774 15.5607 37.7842 13.6408 38.7728C11.8085 39.7156 9.86607 40.2186 7.80866 39.8803C4.41798 39.3236 2.12666 37.3903 0.941527 34.1604C0.717365 33.5491 0.649141 32.9056 0.512695 32.2738V30.5482ZM12.2539 21.5037C12.249 20.0589 12.6437 18.654 13.4712 17.5689C15.1797 15.3265 17.4778 14.4969 20.233 14.879C21.7861 15.0841 23.2119 15.8465 24.2452 17.0243C25.2786 18.2022 25.8491 19.7153 25.8507 21.2824C25.8673 23.1972 25.3391 24.9794 24.5418 26.6962C23.613 28.6997 22.384 30.5131 20.9981 32.2222C20.7837 32.4874 20.7896 32.6278 21.0293 32.8666C21.694 33.5286 22.3372 34.2111 23.0526 34.8165C24.2865 35.8675 25.6051 36.781 27.1889 37.2256C29.374 37.8378 31.3875 37.5034 33.1028 35.9708C35.1037 34.1828 35.6466 31.3467 34.5326 28.7621C34.0696 27.6897 33.5853 26.6173 33.0931 25.5595C30.3304 19.5968 27.4465 13.687 24.4414 7.83026C23.884 6.74223 23.3694 5.62788 22.6715 4.61297C21.5117 2.93218 19.4953 2.28089 17.6299 2.99357C16.551 3.40499 15.8093 4.19763 15.2557 5.17646C14.3386 6.79876 13.516 8.4708 12.6642 10.1272C9.91383 15.4757 7.30381 20.8915 4.76981 26.3463C4.26886 27.4265 3.73087 28.4911 3.37027 29.6328C2.43171 32.6063 3.69774 35.6774 6.4403 36.9584C8.35444 37.8554 10.2764 37.6926 12.1525 36.8122C14.0871 35.9036 15.6338 34.4889 17.0685 32.9397C17.3891 32.5936 17.3823 32.5907 17.1006 32.23C15.6933 30.4293 14.4175 28.5447 13.4848 26.4486C12.7909 24.8936 12.2929 23.285 12.2539 21.5037ZM14.8464 21.533C14.8416 22.0341 14.8996 22.534 15.0189 23.0208C15.6728 25.8188 17.2371 28.1333 18.9485 30.3679C19.046 30.4888 19.0986 30.4839 19.1834 30.3679C19.3315 30.1602 19.4943 29.9623 19.6454 29.7566C20.9679 27.9559 22.1608 26.083 22.8616 23.9411C23.2631 22.7195 23.4678 21.4706 23.1306 20.2041C22.5458 18.0125 20.5527 16.9332 18.3189 17.2901C16.1153 17.6381 14.8376 19.2477 14.8464 21.533Z" fill="url(#paint0_linear_543_245)"/>
<path d="M84.1349 15.9028C86.2858 14.0085 88.659 13.9997 91.0634 15.001C93.9171 16.1894 95.4053 18.462 95.684 21.5165C95.879 23.6613 95.3722 25.6249 94.0214 27.3242C92.6345 29.0683 90.7954 29.9858 88.5801 30.169C87.123 30.2899 85.782 29.9965 84.6173 29.0732C84.4516 28.9416 84.3006 28.7944 84.091 28.6082C84.091 28.8314 84.0969 29.005 84.091 29.1785C84.0774 29.5685 83.86 29.7849 83.4653 29.7869C82.4907 29.7869 81.5248 29.781 80.5551 29.7937C80.3183 29.7937 80.2764 29.7089 80.2764 29.5012C80.2809 22.2789 80.2809 15.0569 80.2764 7.8352C80.2764 7.58756 80.3534 7.53491 80.5853 7.54271C81.6515 7.55441 82.7188 7.55734 83.785 7.54271C84.0647 7.54271 84.1446 7.60997 84.1436 7.89465C84.1319 10.4412 84.1368 12.9868 84.1368 15.5323L84.1349 15.9028ZM84.1183 22.2331C84.1183 22.9896 84.1358 23.7462 84.1105 24.5008C84.0998 24.842 84.2245 25.0857 84.4438 25.3216C85.9155 26.9254 88.469 26.8445 90.0907 25.8091C91.9328 24.6275 92.2856 22.0888 91.4698 20.2793C90.3519 17.7981 86.3502 16.9323 84.2216 19.4545C84.1426 19.555 84.1053 19.6821 84.1173 19.8093C84.1193 20.6166 84.1196 21.4245 84.1183 22.2331Z" fill="url(#paint1_linear_543_245)"/>
<path d="M116.87 28.5688C116.87 28.8486 116.877 29.0368 116.87 29.224C116.856 29.5701 116.652 29.7827 116.306 29.7846C115.303 29.7914 114.3 29.7846 113.298 29.7905C113.128 29.7905 113.063 29.7349 113.083 29.5692C113.086 29.5162 113.086 29.4632 113.083 29.4102C113.083 22.2497 113.08 15.089 113.075 7.92847C113.075 7.59991 113.16 7.52386 113.479 7.53068C114.513 7.55213 115.548 7.55213 116.583 7.53068C116.875 7.52483 116.93 7.61942 116.929 7.88948C116.918 10.437 116.922 12.9835 116.922 15.5301V15.9376C117.437 15.4384 117.957 15.0601 118.564 14.8174C120.352 14.1047 122.135 14.2519 123.85 14.9997C126.609 16.2018 128.112 18.3837 128.449 21.3465C128.73 23.8248 128.098 26.0681 126.329 27.864C124.353 29.8684 121.933 30.5938 119.161 29.9669C118.291 29.77 117.559 29.2893 116.87 28.5688ZM120.271 17.9352C119.011 17.9411 118.001 18.4422 117.142 19.3001C117.066 19.372 117.006 19.4595 116.966 19.5568C116.927 19.6541 116.909 19.7588 116.914 19.8636C116.924 21.4294 116.929 22.9942 116.914 24.5589C116.909 24.7008 116.935 24.842 116.989 24.9732C117.044 25.1043 117.125 25.2224 117.229 25.3194C118.17 26.2855 119.32 26.6502 120.651 26.538C124.79 26.1871 125.407 22.0465 124.031 19.8705C123.159 18.489 121.811 17.9888 120.271 17.9352Z" fill="url(#paint2_linear_543_245)"/>
<path d="M57.2637 28.5956C57.0288 28.8052 56.8572 28.9768 56.6672 29.125C55.8087 29.788 54.7604 30.1583 53.6761 30.1818C49.6246 30.3437 46.269 27.5885 45.7164 23.5796C45.3441 20.8644 45.9747 18.4026 48.0155 16.484C49.9969 14.6218 52.374 13.9765 55.0474 14.6248C55.8179 14.8177 56.5202 15.2198 57.0765 15.7869C57.1151 15.8226 57.1565 15.8552 57.2003 15.8844C57.2003 15.8844 57.2188 15.8844 57.2637 15.8688C57.2637 15.7138 57.2637 15.5471 57.2637 15.3813C57.2773 15.0196 57.4742 14.7866 57.8319 14.7817C58.8455 14.7661 59.8591 14.7817 60.8717 14.772C61.0111 14.772 61.0666 14.8256 61.0549 14.9611C61.0549 15.0245 61.0549 15.0888 61.0549 15.1561C61.0549 19.9079 61.0578 24.6598 61.0637 29.4116C61.0637 29.7499 60.9662 29.8104 60.6553 29.8016C59.7499 29.7811 58.8425 29.7948 57.9361 29.7938C57.4342 29.7938 57.2685 29.6271 57.2627 29.124C57.2617 28.9641 57.2637 28.8091 57.2637 28.5956ZM57.2637 22.2868C57.2637 21.5068 57.2529 20.7269 57.2695 19.9538C57.2753 19.8323 57.255 19.7109 57.2099 19.5979C57.1649 19.4848 57.0961 19.3828 57.0083 19.2986C56.0337 18.2944 54.8525 17.8723 53.4519 18.0068C49.3751 18.3968 48.7601 22.5159 50.1626 24.7037C50.9287 25.897 52.0904 26.4371 53.4607 26.5736C54.831 26.7101 56.0288 26.3172 56.9927 25.3003C57.0847 25.2128 57.1571 25.1067 57.205 24.989C57.2529 24.8713 57.2752 24.7448 57.2705 24.6179C57.25 23.8418 57.2637 23.0638 57.2637 22.2868Z" fill="url(#paint3_linear_543_245)"/>
<path d="M100.925 15.9668C101.803 15.1089 102.777 14.6243 103.889 14.4703C106.242 14.1447 108.317 14.6799 109.918 16.543C110.572 17.3044 110.844 18.2326 110.976 19.2066C111.06 19.8935 111.097 20.5853 111.087 21.2773C111.087 24.0159 111.087 26.7535 111.094 29.4921C111.094 29.769 111.032 29.8528 110.744 29.848C109.677 29.8285 108.61 29.8324 107.544 29.848C107.3 29.848 107.242 29.7788 107.243 29.5428C107.251 27.0392 107.251 24.5352 107.243 22.0309C107.243 21.287 107.257 20.5393 107.085 19.8061C106.815 18.6469 106.19 18.0581 105.016 17.903C103.619 17.7178 102.405 18.1166 101.383 19.0954C101.309 19.1619 101.251 19.2441 101.213 19.336C101.174 19.4279 101.157 19.5273 101.162 19.6268C101.169 22.8869 101.162 26.1471 101.174 29.4063C101.174 29.7076 101.111 29.8041 100.794 29.7963C99.7276 29.7749 98.6604 29.7827 97.5942 29.7963C97.3876 29.7963 97.3232 29.7388 97.3232 29.5282C97.3291 24.7023 97.3291 19.876 97.3232 15.0494C97.3232 14.8164 97.4041 14.7667 97.6156 14.7686C98.4479 14.7794 99.2793 14.7686 100.112 14.7686C100.732 14.7686 100.919 14.9519 100.921 15.5622L100.925 15.9668Z" fill="url(#paint4_linear_543_245)"/>
<path d="M73.4827 15.9604C74.2147 15.2313 75.1349 14.72 76.1404 14.4834C76.9484 14.2884 77.7495 14.3859 78.5497 14.5292C78.5759 14.5302 78.6015 14.5366 78.625 14.5482C78.6486 14.5597 78.6694 14.5762 78.6861 14.5963C78.7028 14.6165 78.7151 14.6399 78.7222 14.6652C78.7293 14.6904 78.7309 14.7168 78.7271 14.7427C78.7271 15.7976 78.7193 16.8516 78.7271 17.9064C78.7271 18.1853 78.5604 18.0868 78.4347 18.0565C77.3762 17.8089 76.3246 17.8001 75.2857 18.154C74.7097 18.3534 74.1848 18.6777 73.7487 19.1036C73.6753 19.1704 73.6178 19.2528 73.5803 19.3448C73.5429 19.4367 73.5265 19.5359 73.5324 19.635C73.5392 22.904 73.5324 26.1729 73.5431 29.4428C73.5431 29.747 73.4953 29.8611 73.1532 29.8523C72.1094 29.825 71.0646 29.8367 70.0199 29.8475C69.785 29.8475 69.6914 29.8104 69.6914 29.5403C69.7012 24.7163 69.7012 19.8923 69.6914 15.0684C69.6914 14.8275 69.7548 14.7622 69.9945 14.7661C70.8892 14.7798 71.7849 14.771 72.6806 14.772C73.3111 14.772 73.4836 14.9426 73.4856 15.5607L73.4827 15.9604Z" fill="url(#paint5_linear_543_245)"/>
<path d="M63.4443 22.2703C63.4443 19.8954 63.4443 17.5204 63.4385 15.1445C63.4385 14.8647 63.4931 14.7545 63.803 14.7643C64.8585 14.7847 65.914 14.7808 66.9695 14.7643C67.2434 14.7643 67.3048 14.8491 67.3048 15.1084C67.297 19.9012 67.297 24.6943 67.3048 29.4878C67.3048 29.7178 67.2551 29.7988 67.0065 29.7959C65.9293 29.7809 64.8523 29.7809 63.7757 29.7959C63.5116 29.7959 63.4375 29.7257 63.4395 29.4595C63.4502 27.0622 63.4443 24.6657 63.4443 22.2703Z" fill="url(#paint6_linear_543_245)"/>
<path d="M62.7798 10.1024C62.7732 9.7633 62.8348 9.4263 62.9608 9.11142C63.0868 8.79655 63.2747 8.51017 63.5134 8.26926C63.752 8.02834 64.0366 7.83781 64.3502 7.7089C64.6638 7.58 65.0001 7.51537 65.3391 7.51882C65.6809 7.51393 66.0202 7.57663 66.3377 7.70334C66.6552 7.83004 66.9445 8.01826 67.189 8.25716C67.4335 8.49606 67.6285 8.78094 67.7626 9.09543C67.8967 9.40992 67.9674 9.74779 67.9706 10.0897C67.9729 10.7797 67.7014 11.4424 67.2157 11.9323C66.73 12.4222 66.0698 12.6992 65.38 12.7026C65.0383 12.7038 64.6997 12.6375 64.3837 12.5073C64.0677 12.3771 63.7805 12.1856 63.5388 11.9439C63.2971 11.7022 63.1056 11.4151 62.9754 11.099C62.8451 10.7829 62.7786 10.4443 62.7798 10.1024Z" fill="url(#paint7_linear_543_245)"/>
<defs>
<linearGradient id="paint0_linear_543_245" x1="-22.5701" y1="20.0335" x2="144.061" y2="20.0335" gradientUnits="userSpaceOnUse">
<stop offset="0.28" stop-color="#782671"/>
<stop offset="0.5" stop-color="#7E256F"/>
<stop offset="0.8" stop-color="#8F2269"/>
<stop offset="0.99" stop-color="#9D2064"/>
</linearGradient>
<linearGradient id="paint1_linear_543_245" x1="-22.5698" y1="18.8637" x2="144.061" y2="18.8637" gradientUnits="userSpaceOnUse">
<stop offset="0.28" stop-color="#782671"/>
<stop offset="0.5" stop-color="#7E256F"/>
<stop offset="0.8" stop-color="#8F2269"/>
<stop offset="0.99" stop-color="#9D2064"/>
</linearGradient>
<linearGradient id="paint2_linear_543_245" x1="-22.5697" y1="18.8585" x2="144.061" y2="18.8585" gradientUnits="userSpaceOnUse">
<stop offset="0.28" stop-color="#782671"/>
<stop offset="0.5" stop-color="#7E256F"/>
<stop offset="0.8" stop-color="#8F2269"/>
<stop offset="0.99" stop-color="#9D2064"/>
</linearGradient>
<linearGradient id="paint3_linear_543_245" x1="-22.57" y1="22.2839" x2="144.061" y2="22.2839" gradientUnits="userSpaceOnUse">
<stop offset="0.28" stop-color="#782671"/>
<stop offset="0.5" stop-color="#7E256F"/>
<stop offset="0.8" stop-color="#8F2269"/>
<stop offset="0.99" stop-color="#9D2064"/>
</linearGradient>
<linearGradient id="paint4_linear_543_245" x1="-22.5699" y1="22.1148" x2="144.061" y2="22.1148" gradientUnits="userSpaceOnUse">
<stop offset="0.28" stop-color="#782671"/>
<stop offset="0.5" stop-color="#7E256F"/>
<stop offset="0.8" stop-color="#8F2269"/>
<stop offset="0.99" stop-color="#9D2064"/>
</linearGradient>
<linearGradient id="paint5_linear_543_245" x1="-22.5705" y1="22.1123" x2="144.06" y2="22.1123" gradientUnits="userSpaceOnUse">
<stop offset="0.28" stop-color="#782671"/>
<stop offset="0.5" stop-color="#7E256F"/>
<stop offset="0.8" stop-color="#8F2269"/>
<stop offset="0.99" stop-color="#9D2064"/>
</linearGradient>
<linearGradient id="paint6_linear_543_245" x1="-22.5702" y1="22.2781" x2="144.06" y2="22.2781" gradientUnits="userSpaceOnUse">
<stop offset="0.28" stop-color="#782671"/>
<stop offset="0.5" stop-color="#7E256F"/>
<stop offset="0.8" stop-color="#8F2269"/>
<stop offset="0.99" stop-color="#9D2064"/>
</linearGradient>
<linearGradient id="paint7_linear_543_245" x1="-22.5702" y1="10.1102" x2="144.061" y2="10.1102" gradientUnits="userSpaceOnUse">
<stop offset="0.28" stop-color="#782671"/>
<stop offset="0.5" stop-color="#7E256F"/>
<stop offset="0.8" stop-color="#8F2269"/>
<stop offset="0.99" stop-color="#9D2064"/>
</linearGradient>
</defs>
</svg>
