<svg width="131" height="73" viewBox="0 0 131 73" fill="none" xmlns="http://www.w3.org/2000/svg">
<path d="M44.8784 23.4187C44.8784 17.9654 44.8784 12.5116 44.8784 7.05707C44.8784 5.17444 45.5677 3.56557 46.8791 2.20615C47.7983 1.25444 48.9615 0.574037 50.2415 0.239433C50.8145 0.0819679 51.4059 0.001528 52.0002 0.000244642C60.7854 0.000244642 69.5706 0.000244642 78.3557 0.000244642C79.831 -0.0119375 81.2742 0.431116 82.4887 1.26904C84.1391 2.39581 85.1403 3.95237 85.5008 5.91722C85.5875 6.38908 85.631 6.86788 85.6306 7.34765C85.6306 15.9289 85.6306 24.5109 85.6306 33.0934C85.6306 34.8284 85.1328 36.4065 84.0429 37.778C82.9728 39.1585 81.4333 40.0977 79.7166 40.4174C79.2242 40.5126 78.7237 40.5595 78.2222 40.5576C67.2832 40.5538 56.3445 40.5538 45.4061 40.5576C44.8093 40.5576 44.8747 40.6164 44.8738 40.025C44.8769 34.4877 44.8784 28.9522 44.8784 23.4187ZM69.139 26.8756C69.1942 26.8429 69.1951 26.7822 69.2119 26.7308V26.7383C69.267 26.7046 69.2651 26.6448 69.2838 26.5916L69.2782 26.599C69.338 26.5645 69.3399 26.5056 69.3464 26.4458L69.3361 26.4626C69.4192 26.4122 69.4015 26.3216 69.4192 26.2459C69.4235 26.1895 69.4325 26.1335 69.4463 26.0786C69.7427 25.1505 69.8046 24.1635 69.6266 23.2056C69.4398 22.091 68.9653 21.1259 68.0986 20.3728C67.7436 20.0636 67.3327 19.844 66.9367 19.5973C66.9694 19.5665 67.0011 19.5357 67.0347 19.5039C67.5017 19.0891 67.9529 18.663 68.2658 18.1137C68.3274 18.0053 68.4105 17.9091 68.3694 17.7717L68.3564 17.7867C68.4908 17.7343 68.5114 17.6213 68.5114 17.497V17.5148H68.4927C68.5339 17.4953 68.5697 17.466 68.5971 17.4296C68.6244 17.3931 68.6425 17.3505 68.6496 17.3055C68.758 16.9318 68.9345 16.5692 68.8981 16.1619C68.8914 16.1401 68.8882 16.1174 68.8887 16.0946C69.064 15.0773 68.9131 14.0306 68.4576 13.1042C68.0021 12.1779 67.2654 11.4194 66.3529 10.9372C65.3181 10.3767 64.1926 10.2216 63.0438 10.1795C61.3261 10.1179 59.6085 10.1627 57.8909 10.1795C57.5975 10.1786 57.3082 10.2475 57.0467 10.3806C56.7852 10.5136 56.5592 10.707 56.3872 10.9447C56.0816 11.35 55.9225 11.8471 55.936 12.3546C55.936 18.0725 55.936 23.7902 55.936 29.5075C55.936 29.6327 55.9501 29.7589 55.9566 29.8813C55.9342 30.055 56.0285 30.1401 56.1845 30.1615C56.3087 30.173 56.4334 30.1771 56.5581 30.1737C58.6751 30.1737 60.79 30.1737 62.9027 30.1737C63.4388 30.179 63.9744 30.1383 64.5036 30.0522C65.6244 29.8654 66.6639 29.4917 67.5858 28.818C68.0182 28.5178 68.397 28.147 68.7066 27.7211C68.772 27.6277 68.899 27.5343 68.8206 27.3885L68.8635 27.4203L68.8215 27.3876C69.0195 27.3334 69.0597 27.1774 69.0718 27.0026L69.0671 27.0111C69.1213 26.9784 69.1241 26.9176 69.1419 26.8653L69.139 26.8756ZM71.899 28.9376L71.8943 28.932C71.8966 29.0583 71.9373 29.1808 72.0111 29.2833C72.5715 30.1746 73.7623 30.7249 74.8747 30.3054C75.7732 29.9663 76.3504 29.3412 76.4962 28.3639C76.4926 28.3605 76.4899 28.3563 76.4883 28.3516C76.4867 28.347 76.4862 28.342 76.4868 28.3371C76.4874 28.3322 76.4892 28.3275 76.492 28.3234C76.4947 28.3193 76.4984 28.3159 76.5027 28.3135L76.5251 28.2883L76.5092 28.2584C76.4803 27.9407 76.5344 27.6212 76.4681 27.3016C76.2552 26.2683 75.2539 25.4788 74.2957 25.4059C72.9526 25.3032 71.8252 26.3038 71.6805 27.5016C71.6207 27.9827 71.7328 28.4303 71.8859 28.875C71.8794 28.8825 71.8673 28.8946 71.8691 28.8974C71.8786 28.9125 71.8895 28.9266 71.9018 28.9395L71.899 28.9376Z" fill="url(#paint0_linear_543_195)"/>
<path d="M115.77 57.1834C115.873 57.1834 115.92 57.1114 115.971 57.0516C116.646 56.2734 117.475 55.7333 118.493 55.5867C119.582 55.4297 120.641 55.5418 121.569 56.2248C121.942 56.5051 122.212 56.8704 122.448 57.2665C122.606 57.5347 122.665 57.5375 122.864 57.2955C123.622 56.3761 124.579 55.78 125.76 55.5913C126.995 55.3923 128.173 55.5446 129.193 56.3556C129.558 56.656 129.844 57.0408 130.027 57.4768C130.262 58.0237 130.411 58.604 130.468 59.1968C130.504 59.5722 130.518 59.9493 130.512 60.3264C130.512 62.5949 130.512 64.8631 130.512 67.1309C130.512 67.2244 130.512 67.3178 130.512 67.4066C130.498 67.6672 130.446 67.7261 130.177 67.727C129.674 67.727 129.17 67.727 128.666 67.7102C127.773 67.6738 127.24 67.1711 127.234 66.1826C127.223 64.2813 127.222 62.38 127.212 60.4787C127.22 60.0891 127.158 59.7013 127.031 59.3332C126.849 58.8418 126.486 58.5671 125.963 58.5699C125.043 58.5755 124.334 58.9875 123.852 59.7639C123.4 60.4861 123.16 61.3212 123.16 62.1735C123.156 63.8338 123.16 65.495 123.16 67.1562C123.16 67.2365 123.16 67.3169 123.16 67.3972C123.144 67.6401 123.067 67.7149 122.82 67.7289C122.763 67.7289 122.705 67.7289 122.649 67.7289H120.346C120.267 67.7289 120.186 67.7289 120.106 67.7289C119.936 67.7242 119.859 67.6355 119.861 67.4664C119.861 67.3729 119.861 67.2795 119.861 67.1861C119.861 65.124 119.861 63.062 119.861 61C119.86 60.6562 119.836 60.3128 119.789 59.9723C119.62 58.6643 118.527 58.2074 117.403 58.8231C116.892 59.1034 116.563 59.5584 116.31 60.0704C116.013 60.6778 115.839 61.3384 115.799 62.0137C115.706 63.6497 115.784 65.2838 115.754 66.9235C115.754 67.1104 115.835 67.2973 115.767 67.4991C115.719 67.6439 115.654 67.713 115.511 67.7205C115.476 67.7205 115.442 67.7205 115.407 67.7205C114.561 67.7205 113.714 67.7205 112.867 67.7205C112.537 67.7205 112.505 67.6822 112.505 67.3318C112.505 65.9684 112.505 64.6052 112.505 63.2424V56.3341C112.505 56.2407 112.505 56.1472 112.505 56.0594C112.499 55.8894 112.571 55.8062 112.748 55.8081C113.274 55.8155 113.802 55.8006 114.328 55.8239C114.576 55.8248 114.819 55.8988 115.025 56.0367C115.232 56.1746 115.393 56.3703 115.489 56.5994C115.583 56.7994 115.676 56.9928 115.77 57.1834Z" fill="url(#paint1_linear_543_195)"/>
<path d="M9.04951 58.9545C9.09901 59.0601 9.20829 59.0797 9.29702 59.1264C10.4767 59.7449 11.1342 60.7315 11.3518 62.033C11.5021 62.8583 11.4378 63.7083 11.165 64.5015C10.8398 65.4531 10.1843 66.2566 9.31757 66.7662C8.34258 67.3538 7.22417 67.6604 6.08593 67.6519C4.24222 67.6519 2.39882 67.6519 0.555729 67.6519C0.498755 67.6519 0.440847 67.6519 0.383873 67.6519C0.02335 67.6519 0.000933998 67.6267 0 67.2549C0 65.6516 0 64.048 0 62.4441C0 59.2376 0 56.0298 0 52.8208C0 52.0817 0.502491 51.41 1.19365 51.2437C1.44909 51.1841 1.71031 51.1527 1.9726 51.1502C3.15224 51.1409 4.33282 51.1175 5.51059 51.1568C6.33905 51.1838 7.17684 51.2147 7.97168 51.5155C9.39976 52.0556 10.3833 53.0216 10.6887 54.538C11.0249 56.2039 10.5476 57.6324 9.2251 58.7424C9.14683 58.7941 9.0857 58.8679 9.04951 58.9545ZM3.16532 62.944C3.16532 63.4588 3.16532 63.9717 3.16532 64.4893C3.16532 64.7967 3.20361 64.836 3.49502 64.8369C4.42155 64.8369 5.34901 64.8472 6.27553 64.8285C6.55188 64.8258 6.82366 64.7576 7.06863 64.6297C7.3136 64.5017 7.5248 64.3175 7.68494 64.0922C8.0959 63.5447 8.16875 62.9113 8.1015 62.2629C7.98755 61.1576 7.1675 60.4269 6.11395 60.4251C5.46078 60.4251 4.80698 60.4251 4.15256 60.4251C4.01568 60.4174 3.87855 60.4351 3.74814 60.4774C3.30355 60.6456 3.17092 61.0053 3.16252 61.4323C3.16158 61.9368 3.16906 62.4441 3.16906 62.944H3.16532ZM3.16532 56.217C3.16532 56.6514 3.16065 57.0859 3.16532 57.5203C3.16532 57.7801 3.20642 57.8193 3.46607 57.8212C4.2553 57.8212 5.04453 57.8427 5.83189 57.8146C6.10231 57.8137 6.36815 57.7447 6.60496 57.6141C6.84178 57.4835 7.04196 57.2954 7.18712 57.0672C7.35117 56.8193 7.46295 56.5406 7.51562 56.2481C7.5683 55.9555 7.56076 55.6553 7.49347 55.3658C7.30667 54.4539 6.71265 53.9774 5.83095 53.9148C5.26215 53.8737 4.68867 53.8952 4.11706 53.9148C3.62391 53.927 3.32597 54.1951 3.20455 54.6847C3.17517 54.8071 3.16105 54.9326 3.16252 55.0584C3.16688 55.4396 3.16937 55.8249 3.16999 56.2142L3.16532 56.217Z" fill="url(#paint2_linear_543_195)"/>
<path d="M77.6399 66.613C77.1159 66.9101 76.6256 67.153 76.0913 67.296C74.9265 67.626 73.6816 67.5217 72.5879 67.0026C72.0339 66.7523 71.5296 66.4042 71.0991 65.9749C70.5814 65.4529 70.1789 64.8281 69.9176 64.1408C69.5025 63.0571 69.3378 61.8936 69.4356 60.7372C69.5337 59.5824 69.8793 58.4948 70.5564 57.5353C71.3419 56.4188 72.4319 55.7779 73.7619 55.5518C74.711 55.3758 75.6891 55.4433 76.605 55.748C77.0608 55.9035 77.4842 56.1417 77.8538 56.4506C78.0284 56.5963 78.0406 56.5973 78.1676 56.416C78.3178 56.1912 78.5253 56.0106 78.7687 55.8928C79.012 55.7751 79.2823 55.7244 79.5518 55.7461C79.9749 55.7648 80.3989 55.7461 80.8229 55.7508C81.0705 55.7508 81.1237 55.7994 81.162 56.0376C81.1732 56.1287 81.177 56.2206 81.1732 56.3123C81.1732 57.3316 81.2106 58.3528 81.1657 59.3703C81.0527 61.9807 81.1657 64.5921 81.1031 67.2007C81.0677 68.5928 80.5427 69.8168 79.5153 70.7744C78.7074 71.5265 77.7146 71.9358 76.6517 72.1759C75.9282 72.3469 75.1846 72.417 74.4419 72.3842C73.597 72.3429 72.7623 72.1812 71.963 71.904C71.5493 71.7694 71.1462 71.6039 70.7572 71.4088C70.4397 71.2425 70.421 71.2005 70.5527 70.8791C70.76 70.3708 70.9609 69.8597 71.1813 69.3571C71.3102 69.0618 71.5203 68.8367 71.8696 68.8133C72.0522 68.7946 72.2367 68.8091 72.4142 68.8563C72.7529 68.9572 73.0954 69.0506 73.4416 69.1366C74.3569 69.3561 75.2741 69.4057 76.1791 69.0955C76.9487 68.8311 77.4549 68.3078 77.6389 67.5025C77.6998 67.2091 77.7001 66.9065 77.6399 66.613ZM77.7333 61.423C77.7632 60.8456 77.7211 60.2821 77.4746 59.7459C77.1832 59.1115 76.7218 58.7041 76.0259 58.564C75.6786 58.4925 75.3222 58.4751 74.9696 58.5126C74.115 58.606 73.4985 59.0293 73.195 59.8599C72.8656 60.7081 72.8214 61.6405 73.0689 62.5161C73.28 63.2505 73.6414 63.8877 74.3634 64.2436C74.9331 64.5239 75.5178 64.5398 76.1287 64.3735C76.7899 64.1941 77.2158 63.783 77.4764 63.1673C77.7183 62.6058 77.7716 62.0209 77.7379 61.423H77.7333Z" fill="url(#paint3_linear_543_195)"/>
<path d="M39.4618 59.4666V51.7352C39.4618 51.6324 39.4571 51.5287 39.4618 51.426C39.4758 51.2522 39.5767 51.1457 39.7504 51.1457C40.4229 51.1709 41.0991 51.084 41.7697 51.2101C42.3824 51.326 42.8672 51.7184 42.9083 52.4247C42.9288 52.7658 42.9531 53.1068 42.954 53.4525C42.954 54.953 42.954 56.4532 42.954 57.953C42.9621 58.2963 42.9459 58.6398 42.9055 58.9808C42.8121 59.6161 42.9839 59.7787 43.619 59.7404C44.0104 59.7161 44.2728 59.489 44.4727 59.1798C45.134 58.152 45.7953 57.1243 46.4453 56.0835C46.5051 55.9734 46.5953 55.8829 46.7051 55.8226C46.8148 55.7623 46.9396 55.7348 47.0646 55.7434C48.1069 55.7546 49.1483 55.7434 50.1906 55.7434C50.2593 55.7411 50.3279 55.7438 50.3961 55.7518C50.4895 55.7658 50.5045 55.8247 50.4615 55.9004C50.4185 55.976 50.3681 56.0545 50.3121 56.1302C49.322 57.602 48.3326 59.0739 47.3438 60.5457C47.2433 60.6844 47.1324 60.8152 47.0123 60.9372C46.8339 61.1353 46.803 61.2988 46.974 61.4856C47.3214 61.8668 47.4979 62.3452 47.7361 62.7834C48.544 64.2717 49.3855 65.7395 50.2756 67.1793C50.3634 67.3213 50.5502 67.4858 50.4821 67.624C50.3952 67.8006 50.1524 67.7007 49.9786 67.7025C49.2118 67.7119 48.445 67.6904 47.6782 67.7109C46.8946 67.7315 46.3435 67.3886 45.9727 66.7187C45.8009 66.4085 45.6346 66.0955 45.4693 65.7844C45.0303 64.9547 44.596 64.1232 44.1533 63.2963C43.9459 62.9067 43.6293 62.7031 43.1707 62.7572C42.9456 62.7834 42.9232 62.8021 42.9419 63.0263C42.9494 63.1198 42.955 63.2132 42.955 63.301C42.955 64.5835 42.955 65.8663 42.955 67.1494C42.9584 67.2295 42.9562 67.3097 42.9484 67.3895C42.9157 67.6194 42.8223 67.7119 42.586 67.7137C41.6471 67.7187 40.7084 67.7187 39.77 67.7137C39.5337 67.7137 39.4777 67.6455 39.4599 67.3998C39.4534 67.3064 39.4599 67.213 39.4599 67.1251L39.4618 59.4666Z" fill="url(#paint4_linear_543_195)"/>
<path d="M105.017 55.5372C106.518 55.5045 107.803 55.8866 108.93 56.734C110.192 57.6842 110.947 58.9549 111.217 60.5133C111.468 61.9643 111.316 63.3648 110.641 64.6803C109.856 66.2097 108.597 67.173 106.954 67.643C106.173 67.8692 105.358 67.9593 104.546 67.9092C103.052 67.8158 101.718 67.3048 100.633 66.2322C99.4186 65.0353 98.8713 63.5675 98.8265 61.883C98.8003 60.9318 98.9302 60.0144 99.3047 59.1342C100.017 57.4656 101.266 56.3808 102.98 55.8277C103.636 55.61 104.326 55.5116 105.017 55.5372ZM107.973 61.7774C108 61.5737 107.937 61.3261 107.904 61.0785C107.826 60.3796 107.512 59.7282 107.014 59.2323C105.566 57.7944 103.311 58.3915 102.569 59.9387C102.022 61.0767 102.009 62.2511 102.534 63.4124C102.685 63.7668 102.914 64.0823 103.204 64.335C103.494 64.5877 103.838 64.771 104.21 64.8709C105.313 65.1923 106.297 64.9989 107.095 64.1449C107.699 63.4984 107.956 62.7052 107.973 61.7774Z" fill="url(#paint5_linear_543_195)"/>
<path d="M68.2571 63.4548V67.2004C68.2571 67.2939 68.2571 67.3873 68.2571 67.4751C68.2571 67.6246 68.1749 67.7208 68.0245 67.7152C67.3175 67.6881 66.603 67.8031 65.9044 67.6396C65.4691 67.5377 65.1348 67.2883 64.9778 66.851C64.8766 66.5821 64.8235 66.2975 64.8209 66.0101C64.8265 64.3032 64.8209 62.5971 64.8209 60.8902C64.8306 60.536 64.8056 60.1818 64.7462 59.8325C64.6173 59.1785 64.2661 58.7422 63.4629 58.6954C61.9508 58.6076 60.7991 59.7026 60.4918 61.1573C60.4352 61.4374 60.4082 61.7228 60.4115 62.0085C60.4165 63.7033 60.4165 65.3985 60.4115 67.0939C60.4115 67.1874 60.4171 67.2808 60.4115 67.3686C60.3844 67.6246 60.2966 67.7134 60.0379 67.7152C59.1214 67.719 58.2054 67.719 57.2901 67.7152C57.0202 67.7152 56.9286 67.5985 56.937 67.2892C57.0304 63.6146 56.9511 59.939 56.9763 56.2644C56.9763 55.7477 56.9763 55.7468 57.4816 55.7468C57.8365 55.7468 58.1914 55.7468 58.5463 55.7468C58.7524 55.7485 58.9575 55.7751 59.1572 55.8262C59.3999 55.8748 59.6255 55.9868 59.8109 56.1509C59.9963 56.3151 60.1349 56.5254 60.2126 56.7605C60.306 57.0202 60.3125 57.0146 60.5283 56.8539C60.8085 56.6428 61.0616 56.3868 61.3689 56.1999C61.9681 55.8404 62.6365 55.6115 63.3303 55.5282C64.1817 55.4084 65.0495 55.4979 65.8586 55.7888C66.7982 56.1214 67.4464 56.7633 67.8321 57.6724C68.1211 58.3715 68.2662 59.1218 68.259 59.8783C68.2608 61.0723 68.2571 62.2636 68.2571 63.4548Z" fill="url(#paint6_linear_543_195)"/>
<path d="M18.7678 55.5432C19.6747 55.4852 20.6264 55.7095 21.5249 56.1449C22.4065 56.565 23.1691 57.199 23.7432 57.9892C24.2823 58.7205 24.639 59.57 24.7837 60.467C25.0564 62.1712 24.8453 63.8015 23.8599 65.2637C22.9325 66.6409 21.6324 67.4705 20.0035 67.7863C19.4322 67.9052 18.8479 67.9495 18.2653 67.9181C16.4393 67.792 14.8618 67.1249 13.6887 65.6758C12.9933 64.8155 12.5572 63.7749 12.4315 62.6757C12.3741 62.2334 12.3556 61.787 12.3764 61.3415C12.4624 59.6298 13.0965 58.1648 14.3892 57.0175C15.2578 56.2504 16.3002 55.8235 17.4368 55.6161C17.8478 55.5385 18.2597 55.545 18.7678 55.5432ZM15.7379 61.8348C15.738 62.0862 15.7652 62.3368 15.8191 62.5823C16.0825 64.0771 17.4947 65.2768 19.1143 64.9675C20.1314 64.7732 20.8665 64.2042 21.2522 63.2353C21.5561 62.4512 21.6179 61.594 21.4297 60.7744C21.3446 60.3326 21.1579 59.9168 20.8842 59.5598C20.1417 58.6208 19.1787 58.2518 18.001 58.5068C17.3042 58.6572 16.7307 59.0076 16.3282 59.613C15.8976 60.2586 15.7379 60.9724 15.7379 61.8348Z" fill="url(#paint7_linear_543_195)"/>
<path d="M32.0393 55.5498C33.0596 55.4867 34.0778 55.7021 34.9852 56.173C36.5599 56.9719 37.5686 58.2416 38.0291 59.9504C38.2253 60.6324 38.3095 61.3418 38.2784 62.0508C38.1495 64.1875 37.2641 65.8926 35.383 67.0073C34.5424 67.5052 33.6327 67.7603 32.6632 67.8696C31.6622 67.991 30.6466 67.8791 29.6959 67.5426C29.0152 67.3014 28.3858 66.9347 27.8401 66.4616C26.7926 65.57 26.0972 64.3341 25.8787 62.9757C25.5751 61.2276 25.8161 59.5543 26.8584 58.0603C27.7457 56.7897 28.9711 56.0273 30.4702 55.6881C30.9832 55.5629 31.5123 55.5163 32.0393 55.5498ZM34.9188 61.6967C34.9263 61.1917 34.828 60.6907 34.6302 60.2261C34.0698 58.8246 32.8295 58.2799 31.4546 58.4724C30.7158 58.5751 30.1592 59.0012 29.7323 59.6131C29.3157 60.2208 29.0942 60.9411 29.0972 61.678C29.0976 62.1707 29.1887 62.6591 29.3662 63.1187C29.6343 63.8446 30.0957 64.3996 30.8055 64.7406C31.3018 64.9746 31.8561 65.0568 32.3989 64.977C32.7637 64.939 33.1165 64.8252 33.4348 64.643C33.7531 64.4607 34.0299 64.2139 34.2473 63.9184C34.7479 63.256 34.8964 62.4936 34.9188 61.6967Z" fill="url(#paint8_linear_543_195)"/>
<path d="M96.7859 59.8869C96.5337 59.8869 96.2815 59.8869 96.0293 59.8869C95.5623 59.8785 95.1887 59.6738 95.0281 59.2328C94.774 58.5517 94.2258 58.4004 93.6065 58.378C92.5306 58.3378 91.6339 58.7302 90.9745 59.5926C90.5551 60.1433 90.321 60.8129 90.3058 61.5051C90.274 62.3562 90.4487 63.1457 90.9783 63.8278C91.5265 64.5341 92.27 64.9181 93.1395 65.0358C94.4537 65.2134 95.5474 64.6799 96.5514 63.9025C96.6645 63.8061 96.772 63.7035 96.8737 63.5951C97.0605 63.4083 97.1436 63.4129 97.2921 63.6531C97.4733 63.9446 97.6423 64.2435 97.8198 64.5369C97.9973 64.8303 98.1701 65.0975 98.341 65.3853C98.5334 65.7039 98.5278 65.7842 98.2644 66.0393C97.3537 66.9101 96.303 67.5398 95.0636 67.8145C93.5496 68.1461 92.0524 68.0854 90.6299 67.4482C88.6405 66.5578 87.416 65.0321 87.0807 62.8552C86.8939 61.6256 86.9873 60.4129 87.4776 59.2516C87.9891 57.9979 88.9292 56.9667 90.1302 56.3421C91.8861 55.4078 93.7308 55.3078 95.6202 55.8572C96.2195 56.0226 96.768 56.3347 97.2164 56.7654C97.628 57.1574 97.8674 57.6966 97.8824 58.2649C97.9001 58.7115 97.8908 59.1591 97.8824 59.6057C97.8824 59.8589 97.8544 59.886 97.6022 59.886C97.3276 59.8925 97.053 59.886 96.7784 59.886L96.7859 59.8869Z" fill="url(#paint9_linear_543_195)"/>
<path d="M54.9932 62.2967V67.1075C54.9932 67.2009 54.9978 67.2944 54.9932 67.3822C54.9764 67.6204 54.8923 67.7101 54.6504 67.7166C54.3646 67.7251 54.0778 67.7166 53.792 67.7166C53.2195 67.7166 52.647 67.7232 52.0744 67.7232C51.6635 67.7232 51.5243 67.6027 51.5663 67.1916C51.6775 66.0947 51.5906 64.996 51.6168 63.8991C51.6289 63.3609 51.6448 62.8209 51.6168 62.2837C51.5056 60.2936 51.5878 58.3016 51.5617 56.3106C51.5578 56.2078 51.5599 56.1049 51.5682 56.0023C51.567 55.9675 51.5733 55.9329 51.5868 55.9008C51.6003 55.8687 51.6205 55.8399 51.6462 55.8163C51.6718 55.7928 51.7023 55.7751 51.7354 55.7645C51.7685 55.7538 51.8036 55.7505 51.8381 55.7547C52.4648 55.7771 53.0962 55.6949 53.7201 55.8164C54.5906 55.9855 54.9558 56.533 54.9913 57.2832C55.009 57.657 54.9969 58.0391 54.9969 58.4165C54.995 59.709 54.9938 61.0024 54.9932 62.2967Z" fill="url(#paint10_linear_543_195)"/>
<path d="M84.4723 67.863C84.2114 67.8684 83.952 67.8216 83.7094 67.7254C83.4668 67.6292 83.2458 67.4855 83.0594 67.3028C82.873 67.12 82.7249 66.9019 82.6238 66.6612C82.5228 66.4205 82.4707 66.1621 82.4708 65.901C82.4614 64.7593 83.3114 63.8866 84.4434 63.8726C84.7048 63.8665 84.9648 63.9127 85.208 64.0086C85.4513 64.1045 85.673 64.248 85.86 64.4308C86.047 64.6136 86.1956 64.832 86.297 65.0731C86.3984 65.3142 86.4506 65.5731 86.4505 65.8346C86.4595 66.0993 86.4148 66.3629 86.3192 66.6098C86.2236 66.8567 86.0791 67.0817 85.8942 67.2712C85.7094 67.4607 85.4881 67.6108 85.2438 67.7125C84.9994 67.8143 84.737 67.8654 84.4723 67.863Z" fill="url(#paint11_linear_543_195)"/>
<path d="M51.205 52.6382C51.1042 51.5694 52.1465 50.651 53.1449 50.6397C54.2069 50.6285 55.1596 51.5918 55.139 52.6448C55.1185 53.7519 54.2872 54.6339 53.1776 54.6442C52.1241 54.6535 51.1452 53.8183 51.205 52.6382Z" fill="url(#paint12_linear_543_195)"/>
<path d="M55.9603 29.8883C56.0883 30.0369 56.2601 30.0303 56.4329 30.0303C57.4989 30.0303 58.564 30.0303 59.6281 30.0303C60.8199 30.0303 62.0107 30.0406 63.2016 30.0256C64.2556 30.0171 65.2983 29.8071 66.2735 29.4071C67.3019 29.0001 68.1888 28.3012 68.8252 27.3965C68.9037 27.546 68.7766 27.6357 68.7113 27.7291C68.4017 28.1549 68.0228 28.5257 67.5905 28.826C66.6667 29.4987 65.6291 29.8705 64.5083 30.0602C63.9791 30.1463 63.4435 30.1869 62.9074 30.1817C60.7903 30.1817 58.6754 30.1817 56.5627 30.1817C56.4381 30.185 56.3133 30.181 56.1891 30.1695C56.0322 30.1471 55.9379 30.0621 55.9603 29.8883Z" fill="url(#paint13_linear_543_195)"/>
<path d="M71.8975 28.9333C72.13 29.2874 72.3869 29.6172 72.7493 29.8545C73.0589 30.0603 73.4116 30.1923 73.7802 30.2402C74.1488 30.2881 74.5235 30.2508 74.8755 30.131C75.2274 30.0112 75.5471 29.8122 75.81 29.5493C76.0729 29.2864 76.272 28.9667 76.3919 28.6147C76.4208 28.5306 76.4236 28.4325 76.4965 28.3652C76.3508 29.3425 75.7735 29.9676 74.875 30.3067C73.7627 30.7262 72.5746 30.1759 72.0114 29.2846C71.9387 29.1818 71.8989 29.0593 71.8975 28.9333Z" fill="url(#paint14_linear_543_195)"/>
<path d="M66.9363 19.5992C66.8877 19.587 66.7999 19.5898 66.856 19.5057C66.9119 19.4345 66.9776 19.3716 67.0512 19.3189C67.5759 18.8837 68.022 18.3616 68.37 17.7754C68.4101 17.9127 68.327 18.009 68.2654 18.1174C67.9525 18.6677 67.4986 19.0928 67.0344 19.5076C67.0007 19.5375 66.969 19.5683 66.9363 19.5992Z" fill="url(#paint15_linear_543_195)"/>
<path d="M68.4951 17.5189C68.6706 17.081 68.8063 16.6282 68.9005 16.166C68.9369 16.5734 68.7604 16.934 68.652 17.3096C68.6449 17.3546 68.6268 17.3972 68.5995 17.4337C68.5721 17.4702 68.5363 17.4994 68.4951 17.5189Z" fill="url(#paint16_linear_543_195)"/>
<path d="M68.8262 27.3918C68.909 27.2628 68.9924 27.1345 69.0765 27.0068C69.069 27.1816 69.0242 27.3376 68.8262 27.3918Z" fill="url(#paint17_linear_543_195)"/>
<path d="M68.3555 17.7907C68.3851 17.6852 68.4374 17.5873 68.5086 17.5039C68.5086 17.6254 68.49 17.7384 68.3555 17.7907Z" fill="url(#paint18_linear_543_195)"/>
<path d="M69.335 26.4648C69.3357 26.3849 69.3652 26.3079 69.4181 26.248C69.4003 26.3237 69.4181 26.4143 69.335 26.4648Z" fill="url(#paint19_linear_543_195)"/>
<path d="M69.2109 26.7404C69.2106 26.7121 69.217 26.684 69.2294 26.6585C69.2419 26.6331 69.2602 26.6109 69.2829 26.5938C69.2642 26.6451 69.2661 26.7068 69.2109 26.7404Z" fill="url(#paint20_linear_543_195)"/>
<path d="M69.0693 27.0159C69.0699 26.9875 69.0769 26.9596 69.0899 26.9344C69.1028 26.9091 69.1214 26.8871 69.1441 26.8701C69.1291 26.9224 69.1263 26.9832 69.0693 27.0159Z" fill="url(#paint21_linear_543_195)"/>
<path d="M69.1416 26.8772C69.1414 26.8491 69.1479 26.8212 69.1605 26.796C69.1732 26.7708 69.1917 26.749 69.2145 26.7324C69.1976 26.7847 69.1967 26.8464 69.1416 26.8772Z" fill="url(#paint22_linear_543_195)"/>
<path d="M69.2773 26.6005C69.2773 26.5416 69.2839 26.4809 69.3455 26.4473C69.339 26.5061 69.3371 26.5659 69.2773 26.6005Z" fill="url(#paint23_linear_543_195)"/>
<path d="M71.886 28.877C71.8955 28.8965 71.9009 28.9178 71.9018 28.9395C71.8897 28.9272 71.8787 28.9138 71.8691 28.8994C71.8691 28.8994 71.8794 28.8844 71.886 28.877Z" fill="url(#paint24_linear_543_195)"/>
<path d="M76.5055 28.3159C76.502 28.2973 76.5043 28.278 76.512 28.2607L76.5279 28.2906L76.5055 28.3159Z" fill="url(#paint25_linear_543_195)"/>
<path d="M65.6364 23.0903C65.7487 23.3777 65.7928 23.6873 65.7653 23.9947C65.7391 24.5235 65.6495 25.0364 65.3749 25.5036C64.9863 26.166 64.3951 26.5033 63.6535 26.6117C63.3242 26.6523 62.9924 26.6682 62.6607 26.6593C61.8257 26.6593 60.9898 26.6593 60.1538 26.6593C59.8363 26.6593 59.7905 26.6126 59.7896 26.3043C59.7896 25.0336 59.7896 23.7626 59.7896 22.4914C59.7896 22.3447 59.7774 22.1915 59.8718 22.0616C59.9284 22.0227 59.9757 21.9716 60.01 21.9121C60.103 21.7663 60.2323 21.6471 60.3853 21.5664C60.5382 21.4856 60.7095 21.446 60.8823 21.4515C61.7407 21.4459 62.6009 21.4141 63.4564 21.4599C63.8598 21.4697 64.2532 21.5875 64.5956 21.8012C64.9379 22.0148 65.2167 22.3164 65.4029 22.6745C65.458 22.7735 65.487 22.8894 65.5897 22.9548L65.5785 22.9408C65.5925 22.994 65.5888 23.052 65.6364 23.0903Z" fill="url(#paint26_linear_543_195)"/>
<path d="M64.9514 15.0436C65.2316 16.0415 64.9514 17.2364 64.1033 17.8008C63.6974 18.0619 63.2242 18.1993 62.7416 18.196C61.8617 18.2137 60.9819 18.2035 60.1021 18.2007C59.8536 18.2007 59.792 18.1567 59.792 17.9418C59.792 16.7983 59.7985 15.6556 59.8051 14.512C59.798 14.4725 59.7999 14.432 59.8105 14.3934C59.8212 14.3547 59.8404 14.319 59.8667 14.2887C59.9405 14.2364 59.9162 14.1523 59.9368 14.0822L59.9321 14.0897C59.9487 14.0799 59.9627 14.0663 59.9731 14.0501C59.9835 14.0339 59.9899 14.0154 59.9919 13.9963L59.9863 14.014L59.9695 14.0056C60.0389 13.9984 60.1031 13.965 60.1488 13.9122C60.3893 13.714 60.6918 13.6068 61.0034 13.6095C61.645 13.6095 62.2867 13.5852 62.9256 13.6169C63.6401 13.6524 64.2612 13.9094 64.6712 14.54C64.7151 14.6082 64.7515 14.6793 64.8365 14.7035L64.8253 14.6914C64.819 14.7558 64.827 14.8208 64.8488 14.8817C64.8706 14.9426 64.9056 14.9979 64.9514 15.0436Z" fill="url(#paint27_linear_543_195)"/>
<path d="M65.589 22.9574C65.4882 22.8892 65.4592 22.7706 65.4022 22.6772C65.2161 22.3191 64.9372 22.0175 64.5949 21.8038C64.2525 21.5902 63.8592 21.4723 63.4558 21.4626C62.6002 21.4168 61.74 21.4485 60.8817 21.4541C60.7088 21.4487 60.5375 21.4883 60.3846 21.569C60.2317 21.6498 60.1023 21.7689 60.0093 21.9147C59.975 21.9743 59.9278 22.0254 59.8711 22.0642C59.9645 21.6046 60.2886 21.4102 60.7042 21.3215C60.8398 21.3004 60.9772 21.2929 61.1142 21.2991C61.8558 21.2991 62.5984 21.2832 63.34 21.2991C64.2936 21.3243 65.0212 21.7485 65.4695 22.6071C65.5375 22.7123 65.5785 22.8326 65.589 22.9574Z" fill="url(#paint28_linear_543_195)"/>
<path d="M64.8368 14.7004C64.7518 14.6761 64.7154 14.607 64.6715 14.5369C64.2614 13.9063 63.6441 13.6493 62.9258 13.6138C62.287 13.5821 61.6453 13.6054 61.0037 13.6064C60.6921 13.6037 60.3895 13.7109 60.1491 13.9091C60.1033 13.9619 60.0392 13.9953 59.9697 14.0025C60.0352 13.8543 60.1414 13.7277 60.276 13.6376C60.4106 13.5474 60.5681 13.4974 60.73 13.4933C61.6294 13.4419 62.5364 13.3709 63.4283 13.5391C64.0943 13.6633 64.594 14.0399 64.8368 14.7004Z" fill="url(#paint29_linear_543_195)"/>
<path d="M64.9514 15.0436C64.9057 14.9979 64.8706 14.9426 64.8488 14.8817C64.827 14.8208 64.819 14.7558 64.8253 14.6914C64.9037 14.7924 64.9479 14.9158 64.9514 15.0436Z" fill="url(#paint30_linear_543_195)"/>
<path d="M59.9369 14.082C59.9164 14.1521 59.9369 14.2362 59.8669 14.2885C59.8613 14.251 59.8647 14.2127 59.8769 14.1768C59.8891 14.1409 59.9097 14.1084 59.9369 14.082Z" fill="url(#paint31_linear_543_195)"/>
<path d="M65.637 23.091C65.5893 23.0527 65.5931 22.9975 65.5781 22.9434C65.6021 22.9587 65.6207 22.9812 65.6313 23.0077C65.6418 23.0342 65.6438 23.0633 65.637 23.091Z" fill="url(#paint32_linear_543_195)"/>
<path d="M59.9914 13.9922C59.9894 14.0113 59.983 14.0298 59.9726 14.046C59.9622 14.0622 59.9482 14.0758 59.9316 14.0856C59.9335 14.0464 59.9419 14.0062 59.9914 13.9922Z" fill="url(#paint33_linear_543_195)"/>
<defs>
<linearGradient id="paint0_linear_543_195" x1="-19.531" y1="20.2775" x2="140.156" y2="20.2775" gradientUnits="userSpaceOnUse">
<stop offset="0.28" stop-color="#782671"/>
<stop offset="0.5" stop-color="#7E256F"/>
<stop offset="0.8" stop-color="#8F2269"/>
<stop offset="0.99" stop-color="#9D2064"/>
</linearGradient>
<linearGradient id="paint1_linear_543_195" x1="-19.5303" y1="61.6195" x2="140.156" y2="61.6195" gradientUnits="userSpaceOnUse">
<stop offset="0.28" stop-color="#782671"/>
<stop offset="0.5" stop-color="#7E256F"/>
<stop offset="0.8" stop-color="#8F2269"/>
<stop offset="0.99" stop-color="#9D2064"/>
</linearGradient>
<linearGradient id="paint2_linear_543_195" x1="-19.5308" y1="59.3964" x2="140.156" y2="59.3964" gradientUnits="userSpaceOnUse">
<stop offset="0.28" stop-color="#782671"/>
<stop offset="0.5" stop-color="#7E256F"/>
<stop offset="0.8" stop-color="#8F2269"/>
<stop offset="0.99" stop-color="#9D2064"/>
</linearGradient>
<linearGradient id="paint3_linear_543_195" x1="-19.5305" y1="63.9269" x2="140.156" y2="63.9269" gradientUnits="userSpaceOnUse">
<stop offset="0.28" stop-color="#782671"/>
<stop offset="0.5" stop-color="#7E256F"/>
<stop offset="0.8" stop-color="#8F2269"/>
<stop offset="0.99" stop-color="#9D2064"/>
</linearGradient>
<linearGradient id="paint4_linear_543_195" x1="-19.5305" y1="59.4386" x2="140.156" y2="59.4386" gradientUnits="userSpaceOnUse">
<stop offset="0.28" stop-color="#782671"/>
<stop offset="0.5" stop-color="#7E256F"/>
<stop offset="0.8" stop-color="#8F2269"/>
<stop offset="0.99" stop-color="#9D2064"/>
</linearGradient>
<linearGradient id="paint5_linear_543_195" x1="-19.5307" y1="61.7269" x2="140.156" y2="61.7269" gradientUnits="userSpaceOnUse">
<stop offset="0.28" stop-color="#782671"/>
<stop offset="0.5" stop-color="#7E256F"/>
<stop offset="0.8" stop-color="#8F2269"/>
<stop offset="0.99" stop-color="#9D2064"/>
</linearGradient>
<linearGradient id="paint6_linear_543_195" x1="-19.5313" y1="61.6049" x2="140.155" y2="61.6049" gradientUnits="userSpaceOnUse">
<stop offset="0.28" stop-color="#782671"/>
<stop offset="0.5" stop-color="#7E256F"/>
<stop offset="0.8" stop-color="#8F2269"/>
<stop offset="0.99" stop-color="#9D2064"/>
</linearGradient>
<linearGradient id="paint7_linear_543_195" x1="-19.5308" y1="61.7311" x2="140.156" y2="61.7311" gradientUnits="userSpaceOnUse">
<stop offset="0.28" stop-color="#782671"/>
<stop offset="0.5" stop-color="#7E256F"/>
<stop offset="0.8" stop-color="#8F2269"/>
<stop offset="0.99" stop-color="#9D2064"/>
</linearGradient>
<linearGradient id="paint8_linear_543_195" x1="-19.5305" y1="61.7256" x2="140.156" y2="61.7256" gradientUnits="userSpaceOnUse">
<stop offset="0.28" stop-color="#782671"/>
<stop offset="0.5" stop-color="#7E256F"/>
<stop offset="0.8" stop-color="#8F2269"/>
<stop offset="0.99" stop-color="#9D2064"/>
</linearGradient>
<linearGradient id="paint9_linear_543_195" x1="-19.5306" y1="61.7658" x2="140.156" y2="61.7658" gradientUnits="userSpaceOnUse">
<stop offset="0.28" stop-color="#782671"/>
<stop offset="0.5" stop-color="#7E256F"/>
<stop offset="0.8" stop-color="#8F2269"/>
<stop offset="0.99" stop-color="#9D2064"/>
</linearGradient>
<linearGradient id="paint10_linear_543_195" x1="-19.5306" y1="61.7324" x2="140.156" y2="61.7324" gradientUnits="userSpaceOnUse">
<stop offset="0.28" stop-color="#782671"/>
<stop offset="0.5" stop-color="#7E256F"/>
<stop offset="0.8" stop-color="#8F2269"/>
<stop offset="0.99" stop-color="#9D2064"/>
</linearGradient>
<linearGradient id="paint11_linear_543_195" x1="-19.5311" y1="65.8692" x2="140.155" y2="65.8692" gradientUnits="userSpaceOnUse">
<stop offset="0.28" stop-color="#782671"/>
<stop offset="0.5" stop-color="#7E256F"/>
<stop offset="0.8" stop-color="#8F2269"/>
<stop offset="0.99" stop-color="#9D2064"/>
</linearGradient>
<linearGradient id="paint12_linear_543_195" x1="-19.5304" y1="52.642" x2="140.156" y2="52.642" gradientUnits="userSpaceOnUse">
<stop offset="0.28" stop-color="#782671"/>
<stop offset="0.5" stop-color="#7E256F"/>
<stop offset="0.8" stop-color="#8F2269"/>
<stop offset="0.99" stop-color="#9D2064"/>
</linearGradient>
<linearGradient id="paint13_linear_543_195" x1="-19.531" y1="28.7867" x2="140.156" y2="28.7867" gradientUnits="userSpaceOnUse">
<stop offset="0.28" stop-color="#782671"/>
<stop offset="0.5" stop-color="#7E256F"/>
<stop offset="0.8" stop-color="#8F2269"/>
<stop offset="0.99" stop-color="#9D2064"/>
</linearGradient>
<linearGradient id="paint14_linear_543_195" x1="-19.5307" y1="29.4079" x2="140.156" y2="29.4079" gradientUnits="userSpaceOnUse">
<stop offset="0.28" stop-color="#782671"/>
<stop offset="0.5" stop-color="#7E256F"/>
<stop offset="0.8" stop-color="#8F2269"/>
<stop offset="0.99" stop-color="#9D2064"/>
</linearGradient>
<linearGradient id="paint15_linear_543_195" x1="-19.5306" y1="18.6873" x2="140.156" y2="18.6873" gradientUnits="userSpaceOnUse">
<stop offset="0.28" stop-color="#782671"/>
<stop offset="0.5" stop-color="#7E256F"/>
<stop offset="0.8" stop-color="#8F2269"/>
<stop offset="0.99" stop-color="#9D2064"/>
</linearGradient>
<linearGradient id="paint16_linear_543_195" x1="-19.531" y1="16.8425" x2="140.157" y2="16.8425" gradientUnits="userSpaceOnUse">
<stop offset="0.28" stop-color="#782671"/>
<stop offset="0.5" stop-color="#7E256F"/>
<stop offset="0.8" stop-color="#8F2269"/>
<stop offset="0.99" stop-color="#9D2064"/>
</linearGradient>
<linearGradient id="paint17_linear_543_195" x1="-19.5308" y1="27.1993" x2="140.155" y2="27.1993" gradientUnits="userSpaceOnUse">
<stop offset="0.28" stop-color="#782671"/>
<stop offset="0.5" stop-color="#7E256F"/>
<stop offset="0.8" stop-color="#8F2269"/>
<stop offset="0.99" stop-color="#9D2064"/>
</linearGradient>
<linearGradient id="paint18_linear_543_195" x1="-19.5318" y1="17.6459" x2="140.156" y2="17.6459" gradientUnits="userSpaceOnUse">
<stop offset="0.28" stop-color="#782671"/>
<stop offset="0.5" stop-color="#7E256F"/>
<stop offset="0.8" stop-color="#8F2269"/>
<stop offset="0.99" stop-color="#9D2064"/>
</linearGradient>
<linearGradient id="paint19_linear_543_195" x1="-19.5327" y1="26.3564" x2="140.157" y2="26.3564" gradientUnits="userSpaceOnUse">
<stop offset="0.28" stop-color="#782671"/>
<stop offset="0.5" stop-color="#7E256F"/>
<stop offset="0.8" stop-color="#8F2269"/>
<stop offset="0.99" stop-color="#9D2064"/>
</linearGradient>
<linearGradient id="paint20_linear_543_195" x1="-19.5263" y1="26.6676" x2="140.152" y2="26.6676" gradientUnits="userSpaceOnUse">
<stop offset="0.28" stop-color="#782671"/>
<stop offset="0.5" stop-color="#7E256F"/>
<stop offset="0.8" stop-color="#8F2269"/>
<stop offset="0.99" stop-color="#9D2064"/>
</linearGradient>
<linearGradient id="paint21_linear_543_195" x1="-19.5293" y1="26.943" x2="140.155" y2="26.943" gradientUnits="userSpaceOnUse">
<stop offset="0.28" stop-color="#782671"/>
<stop offset="0.5" stop-color="#7E256F"/>
<stop offset="0.8" stop-color="#8F2269"/>
<stop offset="0.99" stop-color="#9D2064"/>
</linearGradient>
<linearGradient id="paint22_linear_543_195" x1="-19.5277" y1="26.8053" x2="140.152" y2="26.8053" gradientUnits="userSpaceOnUse">
<stop offset="0.28" stop-color="#782671"/>
<stop offset="0.5" stop-color="#7E256F"/>
<stop offset="0.8" stop-color="#8F2269"/>
<stop offset="0.99" stop-color="#9D2064"/>
</linearGradient>
<linearGradient id="paint23_linear_543_195" x1="-19.536" y1="26.5239" x2="140.16" y2="26.5239" gradientUnits="userSpaceOnUse">
<stop offset="0.28" stop-color="#782671"/>
<stop offset="0.5" stop-color="#7E256F"/>
<stop offset="0.8" stop-color="#8F2269"/>
<stop offset="0.99" stop-color="#9D2064"/>
</linearGradient>
<linearGradient id="paint24_linear_543_195" x1="-19.5406" y1="28.9078" x2="140.163" y2="28.9078" gradientUnits="userSpaceOnUse">
<stop offset="0.28" stop-color="#782671"/>
<stop offset="0.5" stop-color="#7E256F"/>
<stop offset="0.8" stop-color="#8F2269"/>
<stop offset="0.99" stop-color="#9D2064"/>
</linearGradient>
<linearGradient id="paint25_linear_543_195" x1="-19.5268" y1="28.2888" x2="140.153" y2="28.2888" gradientUnits="userSpaceOnUse">
<stop offset="0.28" stop-color="#782671"/>
<stop offset="0.5" stop-color="#7E256F"/>
<stop offset="0.8" stop-color="#8F2269"/>
<stop offset="0.99" stop-color="#9D2064"/>
</linearGradient>
<linearGradient id="paint26_linear_543_195" x1="-19.5312" y1="24.047" x2="140.155" y2="24.047" gradientUnits="userSpaceOnUse">
<stop offset="0.28" stop-color="#782671"/>
<stop offset="0.5" stop-color="#7E256F"/>
<stop offset="0.8" stop-color="#8F2269"/>
<stop offset="0.99" stop-color="#9D2064"/>
</linearGradient>
<linearGradient id="paint27_linear_543_195" x1="-19.5306" y1="15.9032" x2="140.156" y2="15.9032" gradientUnits="userSpaceOnUse">
<stop offset="0.28" stop-color="#782671"/>
<stop offset="0.5" stop-color="#7E256F"/>
<stop offset="0.8" stop-color="#8F2269"/>
<stop offset="0.99" stop-color="#9D2064"/>
</linearGradient>
<linearGradient id="paint28_linear_543_195" x1="-19.5309" y1="22.1231" x2="140.156" y2="22.1231" gradientUnits="userSpaceOnUse">
<stop offset="0.28" stop-color="#782671"/>
<stop offset="0.5" stop-color="#7E256F"/>
<stop offset="0.8" stop-color="#8F2269"/>
<stop offset="0.99" stop-color="#9D2064"/>
</linearGradient>
<linearGradient id="paint29_linear_543_195" x1="-19.5303" y1="14.0679" x2="140.156" y2="14.0679" gradientUnits="userSpaceOnUse">
<stop offset="0.28" stop-color="#782671"/>
<stop offset="0.5" stop-color="#7E256F"/>
<stop offset="0.8" stop-color="#8F2269"/>
<stop offset="0.99" stop-color="#9D2064"/>
</linearGradient>
<linearGradient id="paint30_linear_543_195" x1="-19.5292" y1="14.8671" x2="140.155" y2="14.8671" gradientUnits="userSpaceOnUse">
<stop offset="0.28" stop-color="#782671"/>
<stop offset="0.5" stop-color="#7E256F"/>
<stop offset="0.8" stop-color="#8F2269"/>
<stop offset="0.99" stop-color="#9D2064"/>
</linearGradient>
<linearGradient id="paint31_linear_543_195" x1="-19.5299" y1="14.1858" x2="140.156" y2="14.1858" gradientUnits="userSpaceOnUse">
<stop offset="0.28" stop-color="#782671"/>
<stop offset="0.5" stop-color="#7E256F"/>
<stop offset="0.8" stop-color="#8F2269"/>
<stop offset="0.99" stop-color="#9D2064"/>
</linearGradient>
<linearGradient id="paint32_linear_543_195" x1="-19.5306" y1="23.0172" x2="140.156" y2="23.0172" gradientUnits="userSpaceOnUse">
<stop offset="0.28" stop-color="#782671"/>
<stop offset="0.5" stop-color="#7E256F"/>
<stop offset="0.8" stop-color="#8F2269"/>
<stop offset="0.99" stop-color="#9D2064"/>
</linearGradient>
<linearGradient id="paint33_linear_543_195" x1="-19.5329" y1="14.0408" x2="140.157" y2="14.0408" gradientUnits="userSpaceOnUse">
<stop offset="0.28" stop-color="#782671"/>
<stop offset="0.5" stop-color="#7E256F"/>
<stop offset="0.8" stop-color="#8F2269"/>
<stop offset="0.99" stop-color="#9D2064"/>
</linearGradient>
</defs>
</svg>
