<svg width="132" height="38" viewBox="0 0 132 38" fill="none" xmlns="http://www.w3.org/2000/svg">
<path d="M30.0418 10.3037C30.4101 11.0792 30.5869 11.9156 30.7094 12.7511C31.4805 18.0086 30.0353 22.5745 26.2116 26.2735C22.938 29.438 18.9327 30.809 14.4012 30.4331C7.86543 29.8912 2.48801 25.2102 0.943271 18.8376C0.891324 18.6754 0.869589 18.5051 0.879146 18.3351C2.53487 17.9519 4.19225 17.576 5.84469 17.1838C9.92153 16.2134 14.0239 15.3416 18.0349 14.1114C18.2339 14.0497 18.4337 13.9946 18.6326 13.9329C18.7633 13.8926 18.8718 13.9271 18.8949 14.0604C19.0075 14.7084 19.3059 15.3285 19.2467 16.0012C19.0445 18.354 18.8266 20.7052 18.6186 23.0564C18.5849 23.4429 18.5751 23.8311 18.5537 24.2349C19.1711 24.1995 19.4868 23.961 19.6643 23.3705C20.6887 19.9716 21.7665 16.5884 22.8081 13.1944C22.9207 12.8276 23.0999 12.6409 23.4715 12.5414C24.7869 12.1886 26.0826 11.7816 27.3971 11.437C28.3324 11.1995 29.2247 10.8171 30.0418 10.3037Z" fill="url(#paint0_linear_543_230)"/>
<path d="M0.714194 17.5494C0.257923 14.773 0.574436 12.0715 1.68511 9.50154C3.93604 4.29422 7.8945 1.1593 13.4947 0.268663C19.9261 -0.753557 26.193 2.49488 29.197 8.25977C29.3014 8.45961 29.428 8.65119 29.4675 8.87981C28.6353 8.8843 27.8082 9.01065 27.0127 9.25482C25.6373 9.66601 24.2528 10.0443 22.8783 10.4564C22.5396 10.5583 22.3028 10.5386 22.0183 10.282C20.7202 9.12491 19.3925 7.99906 18.0763 6.86088C16.6459 5.62731 15.2113 4.39374 13.789 3.14455C13.5366 2.9225 13.3007 2.80489 12.9792 2.96196C12.8494 3.02446 12.6685 2.96692 12.5772 3.13551C12.6101 3.33124 12.763 3.45539 12.8732 3.6026C14.2297 5.42171 15.573 7.25152 16.9574 9.04843C17.4837 9.71551 17.881 10.4749 18.1289 11.2878C18.2671 11.7499 18.281 11.7458 17.8083 11.8873C17.7179 11.9144 17.6275 11.9424 17.537 11.9695C16.0145 12.4136 14.473 12.8034 12.9718 13.3116C8.87939 14.6965 4.80008 16.1332 0.714194 17.5494Z" fill="url(#paint1_linear_543_230)"/>
<path d="M48.1924 25.9677C48.054 26.953 47.7272 27.9023 47.2297 28.7638C47.0915 29.0105 46.9296 29.0994 46.6484 29.0986C43.8681 29.0879 41.0877 29.0986 38.3073 29.087C37.0519 29.0813 36.178 28.1866 36.1764 26.9226C36.1704 21.5316 36.1704 16.1411 36.1764 10.7512C36.1764 9.47984 37.0528 8.57359 38.2892 8.56948C41.4667 8.55961 44.6441 8.56534 47.8257 8.56534C47.9383 8.56534 48.0542 8.54725 48.1702 8.62373C48.0592 9.61059 47.7163 10.5152 47.2486 11.3927C47.0915 11.6879 46.8942 11.7677 46.5761 11.766C44.5151 11.7537 42.4532 11.7587 40.3914 11.7603C39.7731 11.7603 39.7682 11.6665 39.7698 12.3639C39.7698 13.5153 39.7698 14.6688 39.7698 15.8245C39.7698 16.3179 39.7493 16.2924 40.2286 16.2924H46.3566C46.4889 16.2924 46.6213 16.2924 46.7537 16.2924C46.9181 16.2924 46.9871 16.3747 46.9871 16.5391C46.9871 17.4662 46.9871 18.3931 46.9871 19.3196C46.9871 19.4841 46.9049 19.5581 46.7405 19.5548C46.6081 19.5548 46.4758 19.5548 46.3434 19.5548H40.2705C39.7674 19.5548 39.7657 19.5088 39.7657 20.0376C39.7657 21.8347 39.7657 23.6317 39.7657 25.4283C39.7657 25.9143 39.7723 25.9217 40.2672 25.9217C42.6694 25.9217 45.0713 25.9217 47.473 25.9217C47.6991 25.9176 47.9276 25.8789 48.1924 25.9677Z" fill="url(#paint2_linear_543_230)"/>
<path d="M102.966 29.7678V28.7275C102.716 28.6864 102.555 28.841 102.382 28.9191C101.424 29.3484 100.432 29.6338 99.3786 29.6634C96.4831 29.7456 94.1121 28.1008 93.2128 25.3417C92.62 23.5193 92.6151 21.6813 93.4059 19.914C94.5446 17.3646 96.5785 16.0546 99.3317 15.8268C100.262 15.7495 101.181 15.8696 102.085 16.0949C102.212 16.127 102.332 16.1886 102.473 16.1401C102.57 15.9649 102.523 15.7725 102.524 15.5875C102.524 13.7536 102.539 11.9197 102.516 10.0866C102.511 9.69183 102.641 9.4665 102.97 9.27242C103.874 8.72486 104.881 8.37013 105.929 8.23047C106.04 8.43195 105.995 8.62439 105.995 8.80614C105.995 15.196 105.999 21.5859 106.006 27.9758C106.006 28.364 105.895 28.5934 105.558 28.7842C104.764 29.2398 103.942 29.5951 102.966 29.7678ZM102.53 22.4988V19.8367C102.53 18.7578 102.53 18.7578 101.5 18.4814C99.3079 17.8951 97.3069 18.9749 96.6278 21.127C96.2939 22.177 96.2507 23.2979 96.5028 24.3705C96.927 26.2102 98.3937 27.1822 100.262 26.8969C100.894 26.7881 101.51 26.6036 102.098 26.3475C102.42 26.2143 102.547 26.0301 102.539 25.6707C102.514 24.6139 102.53 23.558 102.53 22.4988Z" fill="url(#paint3_linear_543_230)"/>
<path d="M67.783 29.5097C67.6556 29.7219 67.7098 29.9349 67.709 30.1372C67.709 31.8585 67.6926 33.5805 67.7205 35.3009C67.7271 35.7047 67.58 35.9202 67.2552 36.1061C66.3451 36.6291 65.3874 37.0008 64.3515 37.1348C64.1871 37.0115 64.2438 36.8478 64.2438 36.708C64.2405 30.0692 64.2405 23.4296 64.2438 16.7891C64.2438 16.2957 64.2438 16.2957 64.7305 16.2867C64.844 16.2867 64.9582 16.2867 65.0717 16.2867C66.4693 16.3229 67.8463 16.2513 69.2242 15.915C70.5083 15.6016 71.8278 15.7307 73.0782 16.1896C75.4278 17.0507 76.8032 18.7579 77.28 21.1922C77.5264 22.4036 77.4722 23.6571 77.1222 24.8427C76.356 27.4143 74.5572 28.8617 72.0004 29.4439C70.9098 29.6943 69.7826 29.744 68.6742 29.5903C68.3766 29.5492 68.0765 29.5361 67.783 29.5097ZM67.7156 22.8641H67.7066C67.7066 24.073 67.7197 25.2819 67.6983 26.4899C67.6926 26.8263 67.8101 26.948 68.1267 27.0081C68.7794 27.1322 69.433 27.2276 70.0956 27.1594C71.813 26.9826 73.024 26.1158 73.5961 24.462C73.9965 23.3477 74.0104 22.1311 73.6356 21.008C73.1226 19.466 72.0563 18.5639 70.4146 18.3969C69.6336 18.3147 68.8764 18.4512 68.1184 18.6329C67.7896 18.7152 67.7074 18.8616 67.7074 19.1782C67.7246 20.4085 67.7156 21.6363 67.7156 22.8641Z" fill="url(#paint4_linear_543_230)"/>
<path d="M124.124 16.5911C124.195 16.0154 124.195 16.0105 124.687 16.008C125.311 16.008 125.936 16.008 126.56 16.008C127.208 16.008 127.155 15.9726 127.155 16.5787C127.155 19.6627 127.155 22.7466 127.155 25.8305C127.155 26.6068 127.143 27.3824 127.16 28.1579C127.166 28.421 127.067 28.5732 126.855 28.7048C126.057 29.2135 125.172 29.5722 124.246 29.7632V28.375C124.014 28.2681 123.959 28.435 123.877 28.5131C123.085 29.2648 122.134 29.6184 121.054 29.6645C120.222 29.7162 119.386 29.6329 118.58 29.4178C116.593 28.8536 115.187 27.6192 114.476 25.6702C113.753 23.6833 113.807 21.6923 114.679 19.7589C116.086 16.6388 119.389 15.1461 122.698 16.1092C123.164 16.2391 123.62 16.4192 124.124 16.5911ZM123.713 22.5895C123.713 21.5479 123.713 20.5062 123.713 19.4645C123.713 19.3 123.76 19.1117 123.563 19.0138C122.797 18.6306 122.013 18.295 121.131 18.3658C119.634 18.4842 118.582 19.2605 117.981 20.6166C117.417 21.8727 117.324 23.2903 117.72 24.6093C118.126 26.0172 119.262 26.8692 120.728 26.9523C121.69 27.0074 122.547 26.7014 123.386 26.2804C123.645 26.1504 123.724 25.986 123.72 25.7047C123.701 24.6702 123.71 23.6299 123.71 22.5895H123.713Z" fill="url(#paint5_linear_543_230)"/>
<path d="M82.1026 23.5719C82.2037 25.4264 83.4319 26.6057 85.0926 26.854C86.2501 27.0267 87.3501 26.8195 88.4337 26.4536C89.1325 26.2175 89.7959 25.8968 90.4569 25.5719C90.6213 25.4897 90.7635 25.3433 91.0176 25.3935C91.0176 26.2726 91.0101 27.1559 91.0225 28.0383C91.0266 28.3014 90.84 28.3401 90.6723 28.4084C89.4983 28.8837 88.2997 29.2842 87.055 29.521C85.6516 29.7866 84.2598 29.7365 82.9255 29.2143C80.4025 28.2274 79.0139 26.3359 78.6604 23.6821C78.4779 22.3112 78.6308 20.9592 79.2219 19.6911C80.3038 17.3679 82.1643 16.1129 84.6857 15.8259C85.7215 15.6941 86.7737 15.7981 87.7636 16.1302C89.8954 16.8646 91.3234 18.7083 91.487 20.9518C91.5379 21.6516 91.4952 22.3499 91.459 23.0481C91.4344 23.5242 91.4253 23.5275 90.9197 23.5275C88.1969 23.5275 85.4743 23.5275 82.7521 23.5275C82.5457 23.5292 82.3336 23.4987 82.1026 23.5719ZM82.1733 21.5094C82.2999 21.5193 82.392 21.5332 82.4841 21.5332H87.8171C87.8927 21.5332 87.9683 21.5332 88.044 21.5332C88.2158 21.5332 88.2585 21.4386 88.2561 21.2791C88.2421 20.0784 87.3666 18.9534 86.2008 18.6475C84.296 18.1491 82.4865 19.4074 82.1733 21.5094Z" fill="url(#paint6_linear_543_230)"/>
<path d="M49.0985 16.2868C50.1237 16.2868 51.0823 16.2794 52.04 16.2868C52.433 16.2917 52.8761 16.1519 53.2066 16.3534C53.5116 16.5401 53.7089 16.9069 53.9465 17.1996C54.6256 18.0368 55.2989 18.8781 55.9787 19.7145C56.0716 19.8296 56.1432 19.9719 56.3076 20.0434C56.4646 20.0163 56.5238 19.8617 56.6134 19.7531C57.4692 18.7186 58.3267 17.6857 59.162 16.638C59.2468 16.5167 59.3616 16.4194 59.4951 16.3557C59.6287 16.292 59.7765 16.2641 59.9241 16.2745C60.8678 16.2967 61.8149 16.2827 62.7636 16.2827C62.8154 16.5335 62.6189 16.6363 62.5088 16.7695C61.1589 18.4011 59.8046 20.0292 58.4459 21.6536L58.3004 21.8272C57.9214 22.2828 58.0028 22.2055 58.2938 22.5673C59.7736 24.3864 61.2534 26.2058 62.7332 28.0254C62.9922 28.3445 63.247 28.6677 63.5002 28.9844C63.3786 29.1562 63.2347 29.0913 63.1171 29.0921C62.0196 29.097 60.9229 29.083 59.8287 29.1028C59.5105 29.1085 59.3124 28.9983 59.1176 28.7557C58.1828 27.5913 57.2267 26.4407 56.2829 25.2853C56.1637 25.1397 56.0363 24.9975 55.9228 24.8585C55.7239 24.9144 55.6516 25.0797 55.548 25.2055C54.5738 26.3873 53.5979 27.5674 52.6377 28.7606C52.5584 28.8746 52.4508 28.966 52.3256 29.0258C52.2004 29.0856 52.0617 29.1119 51.9233 29.102C50.9844 29.0822 50.0456 29.0954 49.0615 29.0954C49.1158 28.8487 49.2654 28.7236 49.3789 28.5838C50.8817 26.7351 52.3856 24.8875 53.8906 23.041C54.24 22.6117 54.2137 22.6882 53.8972 22.3009C52.4442 20.5097 50.9918 18.7188 49.54 16.9282C49.3895 16.7531 49.2169 16.6009 49.0985 16.2868Z" fill="url(#paint7_linear_543_230)"/>
<path d="M108.612 22.6946C108.612 20.7286 108.612 18.762 108.612 16.7948C108.612 16.2965 108.617 16.2924 109.095 16.2915C109.927 16.2882 110.759 16.2882 111.591 16.2915C112.039 16.2915 112.044 16.2973 112.044 16.7652C112.044 18.2965 112.044 19.828 112.044 21.3599V28.4504C112.044 28.5828 112.044 28.7153 112.044 28.8477C112.044 29.0023 111.998 29.0993 111.821 29.0944C110.838 29.0944 109.854 29.0944 108.871 29.0944C108.671 29.0944 108.61 28.9982 108.612 28.8164C108.612 28.4003 108.612 27.9842 108.612 27.568C108.611 25.9457 108.611 24.3213 108.612 22.6946Z" fill="url(#paint8_linear_543_230)"/>
<path d="M112.397 11.6081C112.395 12.152 112.177 12.6728 111.792 13.0566C111.407 13.4404 110.886 13.6558 110.342 13.6558C109.798 13.6611 109.275 13.4508 108.886 13.0709C108.497 12.6909 108.274 12.1724 108.267 11.6287C108.263 11.3547 108.312 11.0825 108.413 10.8278C108.515 10.5731 108.665 10.3408 108.856 10.1442C109.047 9.94767 109.274 9.79072 109.526 9.68235C109.778 9.57398 110.048 9.51634 110.322 9.5127C110.596 9.5129 110.868 9.56737 111.121 9.673C111.373 9.77862 111.603 9.93332 111.796 10.1281C111.989 10.3229 112.141 10.554 112.244 10.808C112.348 11.062 112.4 11.3339 112.397 11.6081Z" fill="url(#paint9_linear_543_230)"/>
<path d="M129.915 18.558C129.011 18.5515 128.364 17.8878 128.36 16.9676C128.36 16.0292 129.03 15.3458 129.951 15.3516C130.842 15.3574 131.506 16.035 131.513 16.9454C131.52 17.8755 130.837 18.5646 129.915 18.558ZM128.594 16.9717C128.599 17.8056 129.173 18.4174 129.946 18.4108C130.719 18.4043 131.29 17.7645 131.282 16.9437C131.274 16.123 130.676 15.4889 129.921 15.5004C129.165 15.5119 128.589 16.1427 128.594 16.9717Z" fill="url(#paint10_linear_543_230)"/>
<path d="M30.7627 27.898C30.7627 28.8331 30.0705 29.5272 29.1604 29.5083C28.2668 29.4902 27.6058 28.8035 27.6074 27.8964C27.6074 26.9761 28.3202 26.2631 29.2204 26.2796C30.1033 26.296 30.7635 26.9893 30.7627 27.898ZM30.5259 27.8766C30.5177 27.0345 29.957 26.4506 29.1678 26.463C28.3786 26.4753 27.8417 27.0839 27.8524 27.9252C27.8631 28.7665 28.4221 29.352 29.213 29.3397C29.9915 29.3281 30.5333 28.7237 30.5259 27.8766Z" fill="url(#paint11_linear_543_230)"/>
<path d="M130.246 17.1261L130.647 17.8292C130.396 17.9723 130.313 17.8087 130.221 17.6648C130.108 17.4912 130.016 17.2996 129.879 17.1499C129.777 17.0414 129.626 17.0414 129.601 17.2429C129.579 17.4074 129.592 17.5809 129.578 17.7495C129.575 17.7873 129.556 17.8221 129.527 17.8468C129.498 17.8714 129.461 17.884 129.423 17.8819C129.404 17.884 129.386 17.8821 129.368 17.8763C129.35 17.8705 129.334 17.8609 129.32 17.8481C129.306 17.8354 129.295 17.8198 129.288 17.8025C129.281 17.7852 129.278 17.7665 129.278 17.7478C129.278 17.2209 129.278 16.6938 129.278 16.1664C129.278 16.0512 129.361 16.0068 129.468 16.0068C129.693 16.0068 129.919 16.0068 130.144 16.0192C130.384 16.0331 130.595 16.1113 130.651 16.3802C130.707 16.6491 130.674 16.8736 130.405 17.0069C130.349 17.0426 130.296 17.0825 130.246 17.1261ZM129.904 16.2478C129.689 16.2289 129.547 16.2675 129.551 16.5381C129.554 16.8087 129.685 16.8424 129.902 16.8317C130.231 16.8161 130.416 16.7026 130.383 16.5028C130.336 16.219 130.097 16.2675 129.904 16.2478Z" fill="url(#paint12_linear_543_230)"/>
<path d="M29.4909 28.0511C29.6381 28.3019 29.7786 28.5446 29.9176 28.7798C29.7696 28.9072 29.6545 28.862 29.5707 28.7436C29.4531 28.5741 29.352 28.3933 29.2418 28.2181C29.1793 28.1186 29.1037 28.0355 28.9713 28.0536C28.8127 28.0783 28.8365 28.2074 28.8316 28.3159C28.8258 28.4475 28.8316 28.5791 28.8192 28.7099C28.8135 28.7921 28.7699 28.8521 28.6787 28.8464C28.6598 28.8465 28.641 28.8428 28.6235 28.8357C28.606 28.8286 28.5901 28.8181 28.5767 28.8048C28.5633 28.7915 28.5526 28.7757 28.5452 28.7583C28.5379 28.7409 28.5341 28.7222 28.534 28.7033C28.529 28.177 28.529 27.6506 28.534 27.1243C28.534 26.9771 28.6384 26.9434 28.7625 26.9442C28.9697 26.9442 29.1736 26.9401 29.3832 26.95C29.6488 26.9623 29.865 27.0667 29.9291 27.348C29.9891 27.6136 29.9077 27.8299 29.6512 27.9598C29.6019 27.9853 29.5583 28.0133 29.4909 28.0511ZM29.1037 27.7575C29.4786 27.7625 29.6455 27.6712 29.6282 27.4656C29.6044 27.1819 29.3816 27.1827 29.176 27.1794C28.9886 27.1794 28.8061 27.1514 28.8086 27.4459C28.8102 27.6876 28.8842 27.7946 29.1037 27.7575Z" fill="url(#paint13_linear_543_230)"/>
<defs>
<linearGradient id="paint0_linear_543_230" x1="-7.44389" y1="20.3984" x2="133.113" y2="20.3984" gradientUnits="userSpaceOnUse">
<stop offset="0.28" stop-color="#782671"/>
<stop offset="0.5" stop-color="#7E256F"/>
<stop offset="0.8" stop-color="#8F2269"/>
<stop offset="0.99" stop-color="#9D2064"/>
</linearGradient>
<linearGradient id="paint1_linear_543_230" x1="-7.4436" y1="8.81569" x2="133.113" y2="8.81569" gradientUnits="userSpaceOnUse">
<stop offset="0.28" stop-color="#782671"/>
<stop offset="0.5" stop-color="#7E256F"/>
<stop offset="0.8" stop-color="#8F2269"/>
<stop offset="0.99" stop-color="#9D2064"/>
</linearGradient>
<linearGradient id="paint2_linear_543_230" x1="-7.44392" y1="18.8311" x2="133.113" y2="18.8311" gradientUnits="userSpaceOnUse">
<stop offset="0.28" stop-color="#782671"/>
<stop offset="0.5" stop-color="#7E256F"/>
<stop offset="0.8" stop-color="#8F2269"/>
<stop offset="0.99" stop-color="#9D2064"/>
</linearGradient>
<linearGradient id="paint3_linear_543_230" x1="-7.44387" y1="18.9995" x2="133.113" y2="18.9995" gradientUnits="userSpaceOnUse">
<stop offset="0.28" stop-color="#782671"/>
<stop offset="0.5" stop-color="#7E256F"/>
<stop offset="0.8" stop-color="#8F2269"/>
<stop offset="0.99" stop-color="#9D2064"/>
</linearGradient>
<linearGradient id="paint4_linear_543_230" x1="-7.4433" y1="26.439" x2="133.114" y2="26.439" gradientUnits="userSpaceOnUse">
<stop offset="0.28" stop-color="#782671"/>
<stop offset="0.5" stop-color="#7E256F"/>
<stop offset="0.8" stop-color="#8F2269"/>
<stop offset="0.99" stop-color="#9D2064"/>
</linearGradient>
<linearGradient id="paint5_linear_543_230" x1="-7.44399" y1="22.7894" x2="133.113" y2="22.7894" gradientUnits="userSpaceOnUse">
<stop offset="0.28" stop-color="#782671"/>
<stop offset="0.5" stop-color="#7E256F"/>
<stop offset="0.8" stop-color="#8F2269"/>
<stop offset="0.99" stop-color="#9D2064"/>
</linearGradient>
<linearGradient id="paint6_linear_543_230" x1="-7.44323" y1="22.7257" x2="133.114" y2="22.7257" gradientUnits="userSpaceOnUse">
<stop offset="0.28" stop-color="#782671"/>
<stop offset="0.5" stop-color="#7E256F"/>
<stop offset="0.8" stop-color="#8F2269"/>
<stop offset="0.99" stop-color="#9D2064"/>
</linearGradient>
<linearGradient id="paint7_linear_543_230" x1="-7.44371" y1="22.6759" x2="133.113" y2="22.6759" gradientUnits="userSpaceOnUse">
<stop offset="0.28" stop-color="#782671"/>
<stop offset="0.5" stop-color="#7E256F"/>
<stop offset="0.8" stop-color="#8F2269"/>
<stop offset="0.99" stop-color="#9D2064"/>
</linearGradient>
<linearGradient id="paint8_linear_543_230" x1="-7.4434" y1="22.6938" x2="133.113" y2="22.6938" gradientUnits="userSpaceOnUse">
<stop offset="0.28" stop-color="#782671"/>
<stop offset="0.5" stop-color="#7E256F"/>
<stop offset="0.8" stop-color="#8F2269"/>
<stop offset="0.99" stop-color="#9D2064"/>
</linearGradient>
<linearGradient id="paint9_linear_543_230" x1="-7.44339" y1="11.5843" x2="133.113" y2="11.5843" gradientUnits="userSpaceOnUse">
<stop offset="0.28" stop-color="#782671"/>
<stop offset="0.5" stop-color="#7E256F"/>
<stop offset="0.8" stop-color="#8F2269"/>
<stop offset="0.99" stop-color="#9D2064"/>
</linearGradient>
<linearGradient id="paint10_linear_543_230" x1="-7.443" y1="16.9544" x2="133.114" y2="16.9544" gradientUnits="userSpaceOnUse">
<stop offset="0.28" stop-color="#782671"/>
<stop offset="0.5" stop-color="#7E256F"/>
<stop offset="0.8" stop-color="#8F2269"/>
<stop offset="0.99" stop-color="#9D2064"/>
</linearGradient>
<linearGradient id="paint11_linear_543_230" x1="-7.44322" y1="27.8939" x2="133.114" y2="27.8939" gradientUnits="userSpaceOnUse">
<stop offset="0.28" stop-color="#782671"/>
<stop offset="0.5" stop-color="#7E256F"/>
<stop offset="0.8" stop-color="#8F2269"/>
<stop offset="0.99" stop-color="#9D2064"/>
</linearGradient>
<linearGradient id="paint12_linear_543_230" x1="-7.44392" y1="16.9468" x2="133.114" y2="16.9468" gradientUnits="userSpaceOnUse">
<stop offset="0.28" stop-color="#782671"/>
<stop offset="0.5" stop-color="#7E256F"/>
<stop offset="0.8" stop-color="#8F2269"/>
<stop offset="0.99" stop-color="#9D2064"/>
</linearGradient>
<linearGradient id="paint13_linear_543_230" x1="-7.44319" y1="27.9015" x2="133.114" y2="27.9015" gradientUnits="userSpaceOnUse">
<stop offset="0.28" stop-color="#782671"/>
<stop offset="0.5" stop-color="#7E256F"/>
<stop offset="0.8" stop-color="#8F2269"/>
<stop offset="0.99" stop-color="#9D2064"/>
</linearGradient>
</defs>
</svg>
