<svg width="141" height="31" viewBox="0 0 141 31" fill="none" xmlns="http://www.w3.org/2000/svg">
<path d="M131.941 15.8444C132.243 16.4407 132.522 17.0463 132.973 17.5566C133.973 18.6817 135.212 19.4744 136.518 20.187C136.689 20.2811 137.115 20.2707 136.968 20.5752C136.852 20.8251 136.463 20.8077 136.182 20.6915C135.637 20.452 135.106 20.1765 134.556 19.9475C132.883 19.2501 131.186 18.6515 129.403 18.2621C127.509 17.8495 125.569 17.61 123.745 16.8987C122.875 16.5724 122.131 15.9787 121.619 15.2028C120.518 13.5209 118.8 12.963 117.02 12.4736C116.251 12.2621 115.474 12.0761 114.696 11.7599C114.885 11.7599 115.084 11.7169 115.259 11.7681C116.241 12.0517 117.274 12.0307 118.259 12.2853C118.411 12.3197 118.569 12.3225 118.722 12.2935C118.875 12.2645 119.021 12.2044 119.15 12.1168C120.205 11.4554 121.22 11.7216 122.239 12.1807C123.53 12.7619 124.243 12.3062 124.307 10.8591C124.349 9.92919 124.048 9.07021 123.747 8.21705C123.466 7.4377 123.297 6.62255 123.245 5.79585C123.143 4.07208 124.123 2.9167 125.355 1.96008C126.404 1.1401 127.595 0.521024 128.869 0.134025C129.474 -0.0507892 129.366 0.295593 129.348 0.569908C129.222 2.45409 129.14 4.34058 129.115 6.22941C129.115 6.62112 129.22 6.82691 129.644 6.74322C129.295 7.00823 129.185 7.3488 129.185 7.78934C129.185 8.26241 129.31 8.69127 129.43 9.13297C129.747 10.3023 130.022 11.4844 130.376 12.641C130.691 13.665 131.018 14.6949 131.642 15.5899C131.721 15.6945 131.691 15.9386 131.941 15.8444Z" fill="url(#paint0_linear_543_254)"/>
<path d="M93.6083 19.6881C93.6083 16.4021 93.6199 13.1161 93.5967 9.83013C93.5967 9.30591 93.7628 9.1502 94.2613 9.18158C94.8213 9.21587 95.3828 9.21587 95.9427 9.18158C96.4319 9.15252 96.5655 9.33382 96.562 9.81503C96.5423 13.1789 96.5516 16.5416 96.5516 19.9043C96.5516 20.7017 96.5795 20.7272 97.365 20.6819C98.4247 20.6226 99.1463 19.9938 99.7458 19.2104C100.613 18.0759 101.461 16.9267 102.287 15.7628C102.593 15.3316 102.905 15.0828 103.471 15.127C104.168 15.1816 104.865 15.1375 105.563 15.1421C105.689 15.1421 105.851 15.0747 105.932 15.2223C106.013 15.3699 105.872 15.4687 105.795 15.571C104.505 17.2797 103.225 18.9965 101.919 20.6935C101.065 21.8024 101.037 21.7966 101.813 22.9706C103.3 25.2225 104.797 27.4677 106.303 29.7064C106.399 29.8517 106.569 29.997 106.505 30.1598C106.414 30.3922 106.166 30.2829 105.984 30.2841C105.23 30.2934 104.474 30.276 103.722 30.2934C103.579 30.3075 103.435 30.2789 103.308 30.2113C103.182 30.1436 103.078 30.04 103.01 29.9133C101.895 28.1535 100.761 26.4053 99.6401 24.6502C99.4267 24.3054 99.1812 23.9816 98.9069 23.6831C98.3027 23.0461 97.5276 23.167 96.7851 23.224C96.4667 23.2496 96.5527 23.5808 96.5527 23.7982C96.5527 25.7312 96.5295 27.6641 96.5632 29.5971C96.5736 30.1725 96.3819 30.3457 95.8346 30.2946C95.3698 30.2527 94.9051 30.2853 94.4403 30.2853C93.6071 30.2853 93.6071 30.2853 93.6071 29.4809V19.6823L93.6083 19.6881Z" fill="url(#paint1_linear_543_254)"/>
<path d="M82.9569 30.6281C79.3815 30.7513 76.2174 28.8148 74.9962 25.6916C73.2533 21.2409 75.5598 16.4276 80.1879 15.1223C83.79 14.1064 87.4595 15.4291 89.414 18.1735C92.334 22.2731 90.5085 28.3092 85.7932 30.0434C85.3088 30.2314 84.8103 30.3809 84.3024 30.4909C83.8569 30.5625 83.4077 30.6083 82.9569 30.6281ZM82.7524 17.3308C80.0206 17.2912 77.5072 19.1998 77.434 22.5788C77.3643 25.8671 79.758 28.0209 82.4433 28.0918C85.4516 28.172 87.7791 25.8496 87.8209 22.7682C87.8674 19.76 85.648 17.3784 82.757 17.3308H82.7524Z" fill="url(#paint2_linear_543_254)"/>
<path d="M59.7478 23.1676C58.1048 23.1676 56.4606 23.1792 54.8164 23.1595C54.3516 23.1537 54.211 23.292 54.2587 23.7651C54.5003 26.1328 56.4664 27.9367 58.9623 28.0739C60.6472 28.1669 62.1147 27.6089 63.4429 26.636C63.7705 26.3931 63.9518 26.3722 64.1459 26.7628C64.3762 27.2296 64.6331 27.6828 64.9151 28.1204C65.1022 28.4063 65.0197 28.5749 64.7826 28.7458C62.4657 30.4242 59.9163 31.0309 57.1055 30.3846C53.1699 29.4792 50.8157 26.0119 51.1794 21.889C51.4583 18.7739 52.9282 16.3597 55.9853 15.2555C59.0192 14.1594 62.6794 14.7614 64.4131 17.9684C65.2137 19.4504 65.4298 21.0684 65.2927 22.734C65.2602 23.1339 64.9953 23.1699 64.6769 23.1687C63.0327 23.1687 61.3885 23.1687 59.7443 23.1687L59.7478 23.1676ZM58.2953 20.9487C59.4724 20.9487 60.6506 20.9487 61.8277 20.9487C62.0775 20.9487 62.3785 20.9835 62.3285 20.586C62.1043 18.7844 61.1666 17.2919 59.0111 17.1233C56.7871 16.949 55.0325 18.2241 54.376 20.4059C54.247 20.8324 54.4074 20.9591 54.8199 20.9545C55.9784 20.9428 57.1369 20.9521 58.2953 20.9521V20.9487Z" fill="url(#paint3_linear_543_254)"/>
<path d="M120.24 24.3884C120.24 26.3574 120.226 28.0196 120.248 29.6818C120.255 30.1607 120.11 30.3444 119.618 30.3002C119.155 30.2605 118.688 30.2605 118.224 30.3002C117.677 30.3467 117.437 30.1688 117.489 29.5923C117.514 29.2982 117.655 28.8414 117.412 28.7252C117.107 28.581 116.977 29.0553 116.762 29.2471C114.743 31.0569 111.056 31.1069 108.993 29.3482C106.841 27.5082 107.061 23.9549 109.414 22.3741C110.499 21.6465 111.715 21.2838 112.981 21.078C114.22 20.8602 115.478 20.7659 116.736 20.7967C117.175 20.813 117.307 20.6608 117.291 20.2319C117.225 18.4325 116.142 17.3643 114.308 17.2853C112.824 17.2202 111.481 17.6572 110.251 18.4349C109.827 18.7034 109.653 18.6046 109.458 18.2187C109.25 17.806 109.004 17.4143 108.776 17.0121C108.643 16.7796 108.569 16.5402 108.862 16.3612C111.535 14.7339 114.364 14.1864 117.325 15.3941C119.135 16.1334 119.981 17.7049 120.173 19.5914C120.346 21.2885 120.206 22.9947 120.24 24.3884ZM110.48 25.8263C110.506 27.3106 111.836 28.4206 113.447 28.3032C115.603 28.1475 117.663 25.5485 117.347 23.3981C117.299 23.0727 117.128 23.0041 116.834 23.0006C115.402 22.9843 113.985 23.0924 112.596 23.4655C111.345 23.7968 110.464 24.7778 110.483 25.8263H110.48Z" fill="url(#paint4_linear_543_254)"/>
<path d="M34.0777 24.7192C34.0777 26.5894 34.0626 28.1353 34.0858 29.6801C34.094 30.1636 33.9313 30.3357 33.4491 30.3008C32.946 30.2699 32.4416 30.2699 31.9385 30.3008C31.497 30.3229 31.3076 30.1683 31.3087 29.7057C31.3087 29.379 31.5132 28.892 31.1809 28.7571C30.9322 28.6537 30.7243 29.1442 30.4721 29.3383C28.7931 30.653 26.8921 30.8924 24.8807 30.4147C23.7187 30.1404 22.7473 29.5255 22.092 28.4968C20.607 26.1791 21.4308 23.2278 23.8919 21.9957C25.464 21.2077 27.1605 20.974 28.8814 20.8462C29.4775 20.802 30.0782 20.7904 30.6766 20.7985C31.0682 20.8044 31.167 20.6509 31.1414 20.2766C31.0043 18.2878 29.9794 17.3219 27.9727 17.2871C26.5481 17.2627 25.2723 17.7195 24.0882 18.4494C23.6862 18.697 23.5142 18.6052 23.3271 18.2471C23.0948 17.8031 22.8554 17.3615 22.5939 16.9337C22.4371 16.6768 22.4777 16.5106 22.7252 16.3606C25.4199 14.7334 28.2644 14.1952 31.2355 15.4308C32.9204 16.1282 33.7768 17.5939 33.9906 19.3688C34.2113 21.2518 34.0243 23.1523 34.0777 24.7192ZM24.3474 25.9303C24.3546 26.2591 24.4297 26.5829 24.5681 26.8812C25.2758 28.2899 27.4196 28.7641 28.9267 27.7901C30.4826 26.7835 31.0949 25.2468 31.2158 23.4661C31.2378 23.1569 31.0996 23.007 30.7754 23.0012C29.2834 22.9861 27.8019 23.0512 26.3599 23.4964C25.0759 23.8962 24.359 24.7459 24.3474 25.9303Z" fill="url(#paint5_linear_543_254)"/>
<path d="M43.0794 30.2912C42.7505 30.2912 42.4171 30.2529 42.0952 30.3005C41.5514 30.3807 41.312 30.1401 41.1308 29.6507C39.4064 24.9874 37.6661 20.3298 35.91 15.6781C35.7183 15.1701 35.8961 15.1283 36.3155 15.1388C36.9918 15.1562 37.6704 15.1678 38.3455 15.1388C38.729 15.1202 38.9265 15.2911 39.0357 15.6037C39.8739 17.9447 40.7101 20.286 41.5444 22.6278C41.9197 23.6809 42.2881 24.7363 42.6611 25.7906C42.6866 25.8626 42.7192 25.9336 42.7505 26.0045C42.8667 26.2637 42.6773 26.7681 43.0736 26.7565C43.385 26.7472 43.2874 26.2497 43.3873 25.9754C44.3169 23.4182 45.241 20.8611 46.1598 18.3039C46.4793 17.4147 46.793 16.5243 47.0824 15.6305C47.1986 15.2585 47.3926 15.1132 47.7935 15.1341C48.4488 15.169 49.1088 15.162 49.7688 15.1341C50.2336 15.1155 50.3893 15.2015 50.1941 15.7095C49.4969 17.5251 48.8381 19.3581 48.1607 21.183C47.362 23.3311 46.5622 25.4787 45.7612 27.6259C45.5056 28.3117 45.2383 28.994 45.0024 29.6868C44.8549 30.1227 44.6399 30.3749 44.1263 30.297C43.7824 30.2494 43.428 30.2912 43.0794 30.2912Z" fill="url(#paint6_linear_543_254)"/>
<path d="M2.4741 21.8794C2.4741 20.681 2.46364 19.4826 2.48107 18.2854C2.48688 17.8867 2.34977 17.7449 1.94424 17.7379C0.513858 17.7135 0.513857 17.6996 0.512695 16.2943C0.512695 15.3435 0.512696 15.347 1.45041 15.3435C2.66931 15.3435 2.58333 15.5027 2.58333 14.2392C2.58333 13.3314 2.59146 12.4225 2.57752 11.5147C2.57171 11.1323 2.68093 10.9486 3.10738 10.9742C3.68774 11.0121 4.26997 11.0121 4.85033 10.9742C5.33023 10.9405 5.46502 11.1509 5.46037 11.5775C5.45107 12.6015 5.48593 13.6267 5.44526 14.6496C5.42202 15.2238 5.6335 15.3865 6.18079 15.3586C6.97209 15.3179 7.76688 15.3656 8.55935 15.34C8.97301 15.3261 9.1078 15.4795 9.08572 15.8793C9.06269 16.344 9.0654 16.8097 9.09385 17.2741C9.1136 17.6298 8.97765 17.7635 8.62906 17.7589C7.74015 17.7461 6.85008 17.7588 5.95653 17.7507C5.61956 17.7507 5.42783 17.8123 5.43364 18.2343C5.45921 20.244 5.44642 22.2537 5.45456 24.2634C5.45456 24.8446 5.48361 25.4258 5.69276 25.9756C6.16685 27.2111 7.31952 27.8969 8.81149 27.7877C9.24607 27.7551 9.36575 27.869 9.35181 28.2735C9.33205 28.8338 9.34251 29.394 9.35181 29.9543C9.35181 30.2042 9.28209 30.3553 9.00322 30.3739C7.60885 30.4611 6.26794 30.3321 5.01069 29.6591C3.33512 28.7617 2.65305 27.2623 2.52872 25.4746C2.44505 24.2832 2.51245 23.0801 2.51245 21.8829L2.4741 21.8794Z" fill="url(#paint7_linear_543_254)"/>
<path d="M68.0368 18.2199C68.0368 15.4001 68.0484 12.5802 68.0264 9.76034C68.0264 9.28494 68.1774 9.15592 68.6259 9.17917C69.1854 9.21637 69.7467 9.21637 70.3062 9.17917C70.8209 9.14313 71.0033 9.28145 71.0033 9.84287C70.9801 15.0735 70.9882 20.311 70.9929 25.5451C70.9879 25.873 71.0163 26.2005 71.0777 26.5227C71.2578 27.3956 71.6227 27.7187 72.5069 27.7292C72.9822 27.7292 73.1704 27.8768 73.1332 28.3696C73.0937 28.888 73.1193 29.4157 73.1332 29.933C73.1332 30.155 73.0728 30.2817 72.8381 30.3503C71.4937 30.7466 69.5149 30.0701 68.7433 28.9136C68.2344 28.1523 68.0461 27.2863 68.0461 26.3855C68.0399 23.6656 68.0368 20.9437 68.0368 18.2199Z" fill="url(#paint8_linear_543_254)"/>
<path d="M15.0126 18.2132C15.3775 17.632 15.6703 16.9997 16.1549 16.5033C17.1472 15.4851 18.3254 14.9307 19.7651 14.9528C20.2113 14.9598 20.3914 15.1295 20.3728 15.5804C20.3461 16.1977 20.3577 16.8172 20.3728 17.4402C20.3786 17.761 20.2682 17.8947 19.9289 17.8621C17.4133 17.6297 15.6297 19.6173 15.1428 21.9199C14.929 22.93 14.8999 23.9471 14.9104 24.9722C14.9209 26.5554 14.9034 28.1397 14.9243 29.724C14.9302 30.1413 14.8221 30.3249 14.3759 30.3052C13.7577 30.2773 13.1384 30.2831 12.5167 30.3052C12.1263 30.318 11.9578 30.1889 11.959 29.7763C11.9667 25.0447 11.9667 20.3124 11.959 15.5793C11.959 15.248 12.0833 15.1399 12.404 15.1469C13.0617 15.1632 13.7194 15.1643 14.3794 15.1469C14.728 15.1376 14.8604 15.2724 14.8511 15.6223C14.8314 16.2988 14.8372 16.9753 14.8453 17.6506C14.8407 17.8203 14.7675 18.0318 15.0126 18.2132Z" fill="url(#paint9_linear_543_254)"/>
<path d="M131.941 15.844C131.691 15.937 131.721 15.6929 131.648 15.5882C131.024 14.6932 130.696 13.6634 130.381 12.6394C130.027 11.4829 129.753 10.3007 129.436 9.13139C129.319 8.68969 129.19 8.26078 129.19 7.7877C129.19 7.34252 129.3 7.00195 129.649 6.74158L129.766 6.64629L129.898 6.57307C130.122 6.53123 130.247 6.26616 130.513 6.31381C132.002 5.71753 133.472 5.06196 135.011 4.60167C136.197 4.24599 137.408 3.97285 138.613 3.66367L138.838 3.63926C139.241 3.68479 139.648 3.61126 140.01 3.42773H140.242C140.214 3.73343 139.951 3.86826 139.77 4.05772C139.266 4.58311 138.753 5.10381 138.384 5.73729L138.152 5.96976C137.589 6.36729 137.222 6.92642 136.857 7.49598L136.775 7.5785C136.417 7.79121 136.206 8.12014 136.05 8.49209L136.029 8.51184C135.776 8.61529 135.671 8.83502 135.587 9.07214C135.542 9.25114 135.377 9.32783 135.268 9.45104C135.224 9.46331 135.186 9.49049 135.16 9.52783C135.134 9.56517 135.122 9.61031 135.126 9.65558C135.097 9.70208 135.069 9.74979 135.041 9.79628C134.78 9.88462 134.732 10.1229 134.659 10.3426C134.616 10.3914 134.572 10.4402 134.527 10.4878C134.462 10.5239 134.373 10.5436 134.334 10.6041C133.532 11.7303 132.789 12.8973 132.108 14.1005C131.965 14.3562 131.793 14.6432 131.933 14.9734C131.99 15.2604 131.993 15.5559 131.941 15.844Z" fill="url(#paint10_linear_543_254)"/>
<path d="M138.605 3.6605C137.405 3.96968 136.194 4.24165 135.003 4.5985C133.464 5.06344 131.995 5.71436 130.505 6.31064C131.01 5.79805 131.719 5.67366 132.337 5.39353C134.196 4.55082 136.172 4.06729 138.154 3.63257C138.304 3.60003 138.462 3.56286 138.605 3.6605Z" fill="url(#paint11_linear_543_254)"/>
<path d="M131.935 14.9785C131.796 14.6484 131.968 14.3613 132.111 14.1056C132.791 12.8966 133.533 11.7237 134.335 10.5918C134.373 10.5372 134.463 10.5174 134.528 10.4756C134.006 11.4764 133.293 12.3575 132.742 13.3443C132.445 13.8836 132.225 14.4496 131.935 14.9785Z" fill="url(#paint12_linear_543_254)"/>
<path d="M138.383 5.73198C138.752 5.09617 139.265 4.57774 139.769 4.05235C139.95 3.86289 140.213 3.72806 140.241 3.42237C140.281 3.32589 140.357 3.22244 140.45 3.30613C140.575 3.42237 140.489 3.54906 140.393 3.65484C139.938 4.14884 139.497 4.65797 139.021 5.13105C138.814 5.33214 138.677 5.61574 138.383 5.73198Z" fill="url(#paint13_linear_543_254)"/>
<path d="M136.857 7.48905C137.218 6.91949 137.589 6.36042 138.152 5.96289C137.824 6.5511 137.384 7.06952 136.857 7.48905Z" fill="url(#paint14_linear_543_254)"/>
<path d="M140.001 3.42453C139.64 3.60806 139.233 3.68164 138.83 3.63611C139.171 3.29089 139.589 3.37222 140.001 3.42453Z" fill="url(#paint15_linear_543_254)"/>
<path d="M136.05 8.48488C136.207 8.11293 136.417 7.78749 136.775 7.57129C136.653 7.97114 136.366 8.23963 136.05 8.48488Z" fill="url(#paint16_linear_543_254)"/>
<path d="M135.587 9.06517C135.671 8.8327 135.776 8.60833 136.028 8.50488C135.919 8.72108 135.858 8.97567 135.587 9.06517Z" fill="url(#paint17_linear_543_254)"/>
<path d="M134.665 10.3363C134.738 10.1166 134.781 9.87838 135.047 9.79004C135.039 9.90726 134.999 10.0201 134.932 10.1163C134.865 10.2126 134.772 10.2886 134.665 10.3363Z" fill="url(#paint18_linear_543_254)"/>
<path d="M135.13 9.64894C135.126 9.60367 135.138 9.55847 135.164 9.52113C135.19 9.48379 135.228 9.45661 135.271 9.44434C135.321 9.58266 135.23 9.61988 135.13 9.64894Z" fill="url(#paint19_linear_543_254)"/>
<path d="M129.901 6.57031L129.768 6.64404L129.901 6.57031Z" fill="url(#paint20_linear_543_254)"/>
<defs>
<linearGradient id="paint0_linear_543_254" x1="-33.3109" y1="10.4267" x2="165.352" y2="10.4267" gradientUnits="userSpaceOnUse">
<stop offset="0.28" stop-color="#782671"/>
<stop offset="0.5" stop-color="#7E256F"/>
<stop offset="0.8" stop-color="#8F2269"/>
<stop offset="0.99" stop-color="#9D2064"/>
</linearGradient>
<linearGradient id="paint1_linear_543_254" x1="-33.3115" y1="19.7439" x2="165.352" y2="19.7439" gradientUnits="userSpaceOnUse">
<stop offset="0.28" stop-color="#782671"/>
<stop offset="0.5" stop-color="#7E256F"/>
<stop offset="0.8" stop-color="#8F2269"/>
<stop offset="0.99" stop-color="#9D2064"/>
</linearGradient>
<linearGradient id="paint2_linear_543_254" x1="-33.3111" y1="22.7078" x2="165.352" y2="22.7078" gradientUnits="userSpaceOnUse">
<stop offset="0.28" stop-color="#782671"/>
<stop offset="0.5" stop-color="#7E256F"/>
<stop offset="0.8" stop-color="#8F2269"/>
<stop offset="0.99" stop-color="#9D2064"/>
</linearGradient>
<linearGradient id="paint3_linear_543_254" x1="-33.3109" y1="22.698" x2="165.352" y2="22.698" gradientUnits="userSpaceOnUse">
<stop offset="0.28" stop-color="#782671"/>
<stop offset="0.5" stop-color="#7E256F"/>
<stop offset="0.8" stop-color="#8F2269"/>
<stop offset="0.99" stop-color="#9D2064"/>
</linearGradient>
<linearGradient id="paint4_linear_543_254" x1="-33.3109" y1="22.6902" x2="165.353" y2="22.6902" gradientUnits="userSpaceOnUse">
<stop offset="0.28" stop-color="#782671"/>
<stop offset="0.5" stop-color="#7E256F"/>
<stop offset="0.8" stop-color="#8F2269"/>
<stop offset="0.99" stop-color="#9D2064"/>
</linearGradient>
<linearGradient id="paint5_linear_543_254" x1="-33.3108" y1="22.6967" x2="165.353" y2="22.6967" gradientUnits="userSpaceOnUse">
<stop offset="0.28" stop-color="#782671"/>
<stop offset="0.5" stop-color="#7E256F"/>
<stop offset="0.8" stop-color="#8F2269"/>
<stop offset="0.99" stop-color="#9D2064"/>
</linearGradient>
<linearGradient id="paint6_linear_543_254" x1="-33.3109" y1="22.7243" x2="165.352" y2="22.7243" gradientUnits="userSpaceOnUse">
<stop offset="0.28" stop-color="#782671"/>
<stop offset="0.5" stop-color="#7E256F"/>
<stop offset="0.8" stop-color="#8F2269"/>
<stop offset="0.99" stop-color="#9D2064"/>
</linearGradient>
<linearGradient id="paint7_linear_543_254" x1="-33.3111" y1="20.6799" x2="165.352" y2="20.6799" gradientUnits="userSpaceOnUse">
<stop offset="0.28" stop-color="#782671"/>
<stop offset="0.5" stop-color="#7E256F"/>
<stop offset="0.8" stop-color="#8F2269"/>
<stop offset="0.99" stop-color="#9D2064"/>
</linearGradient>
<linearGradient id="paint8_linear_543_254" x1="-33.3115" y1="19.824" x2="165.352" y2="19.824" gradientUnits="userSpaceOnUse">
<stop offset="0.28" stop-color="#782671"/>
<stop offset="0.5" stop-color="#7E256F"/>
<stop offset="0.8" stop-color="#8F2269"/>
<stop offset="0.99" stop-color="#9D2064"/>
</linearGradient>
<linearGradient id="paint9_linear_543_254" x1="-33.3114" y1="22.6267" x2="165.352" y2="22.6267" gradientUnits="userSpaceOnUse">
<stop offset="0.28" stop-color="#782671"/>
<stop offset="0.5" stop-color="#7E256F"/>
<stop offset="0.8" stop-color="#8F2269"/>
<stop offset="0.99" stop-color="#9D2064"/>
</linearGradient>
<linearGradient id="paint10_linear_543_254" x1="-33.3112" y1="9.64284" x2="165.352" y2="9.64284" gradientUnits="userSpaceOnUse">
<stop offset="0.28" stop-color="#782671"/>
<stop offset="0.5" stop-color="#7E256F"/>
<stop offset="0.8" stop-color="#8F2269"/>
<stop offset="0.99" stop-color="#9D2064"/>
</linearGradient>
<linearGradient id="paint11_linear_543_254" x1="-33.3111" y1="4.95418" x2="165.352" y2="4.95418" gradientUnits="userSpaceOnUse">
<stop offset="0.28" stop-color="#782671"/>
<stop offset="0.5" stop-color="#7E256F"/>
<stop offset="0.8" stop-color="#8F2269"/>
<stop offset="0.99" stop-color="#9D2064"/>
</linearGradient>
<linearGradient id="paint12_linear_543_254" x1="-33.3104" y1="12.7305" x2="165.352" y2="12.7305" gradientUnits="userSpaceOnUse">
<stop offset="0.28" stop-color="#782671"/>
<stop offset="0.5" stop-color="#7E256F"/>
<stop offset="0.8" stop-color="#8F2269"/>
<stop offset="0.99" stop-color="#9D2064"/>
</linearGradient>
<linearGradient id="paint13_linear_543_254" x1="-33.3116" y1="4.50103" x2="165.352" y2="4.50103" gradientUnits="userSpaceOnUse">
<stop offset="0.28" stop-color="#782671"/>
<stop offset="0.5" stop-color="#7E256F"/>
<stop offset="0.8" stop-color="#8F2269"/>
<stop offset="0.99" stop-color="#9D2064"/>
</linearGradient>
<linearGradient id="paint14_linear_543_254" x1="-33.3111" y1="6.72539" x2="165.352" y2="6.72539" gradientUnits="userSpaceOnUse">
<stop offset="0.28" stop-color="#782671"/>
<stop offset="0.5" stop-color="#7E256F"/>
<stop offset="0.8" stop-color="#8F2269"/>
<stop offset="0.99" stop-color="#9D2064"/>
</linearGradient>
<linearGradient id="paint15_linear_543_254" x1="-33.3126" y1="3.51056" x2="165.352" y2="3.51056" gradientUnits="userSpaceOnUse">
<stop offset="0.28" stop-color="#782671"/>
<stop offset="0.5" stop-color="#7E256F"/>
<stop offset="0.8" stop-color="#8F2269"/>
<stop offset="0.99" stop-color="#9D2064"/>
</linearGradient>
<linearGradient id="paint16_linear_543_254" x1="-33.3107" y1="8.02808" x2="165.352" y2="8.02808" gradientUnits="userSpaceOnUse">
<stop offset="0.28" stop-color="#782671"/>
<stop offset="0.5" stop-color="#7E256F"/>
<stop offset="0.8" stop-color="#8F2269"/>
<stop offset="0.99" stop-color="#9D2064"/>
</linearGradient>
<linearGradient id="paint17_linear_543_254" x1="-33.3135" y1="8.78503" x2="165.352" y2="8.78503" gradientUnits="userSpaceOnUse">
<stop offset="0.28" stop-color="#782671"/>
<stop offset="0.5" stop-color="#7E256F"/>
<stop offset="0.8" stop-color="#8F2269"/>
<stop offset="0.99" stop-color="#9D2064"/>
</linearGradient>
<linearGradient id="paint18_linear_543_254" x1="-33.3126" y1="10.0632" x2="165.353" y2="10.0632" gradientUnits="userSpaceOnUse">
<stop offset="0.28" stop-color="#782671"/>
<stop offset="0.5" stop-color="#7E256F"/>
<stop offset="0.8" stop-color="#8F2269"/>
<stop offset="0.99" stop-color="#9D2064"/>
</linearGradient>
<linearGradient id="paint19_linear_543_254" x1="-33.3076" y1="9.54664" x2="165.352" y2="9.54664" gradientUnits="userSpaceOnUse">
<stop offset="0.28" stop-color="#782671"/>
<stop offset="0.5" stop-color="#7E256F"/>
<stop offset="0.8" stop-color="#8F2269"/>
<stop offset="0.99" stop-color="#9D2064"/>
</linearGradient>
<linearGradient id="paint20_linear_543_254" x1="-34.4621" y1="6.60659" x2="165.603" y2="6.60659" gradientUnits="userSpaceOnUse">
<stop offset="0.28" stop-color="#782671"/>
<stop offset="0.5" stop-color="#7E256F"/>
<stop offset="0.8" stop-color="#8F2269"/>
<stop offset="0.99" stop-color="#9D2064"/>
</linearGradient>
</defs>
</svg>
