<svg width="108" height="41" viewBox="0 0 108 41" fill="none" xmlns="http://www.w3.org/2000/svg">
<path d="M65.6494 30.6552C65.6494 27.6435 65.6402 24.6304 65.6494 21.6201C65.6558 20.4833 65.8377 19.3543 66.1884 18.273C66.9891 15.7874 68.6627 14.2052 71.2067 13.6003C73.1301 13.1427 75.1347 13.1504 77.0546 13.6226C79.7616 14.2802 81.4799 15.9767 82.1938 18.6557C82.8361 21.0274 82.8556 23.5248 82.2503 25.9062C81.3774 29.3664 78.8071 31.3798 75.1693 31.5034C73.4601 31.5613 71.751 31.5337 70.0524 31.5416C69.2018 31.5416 69.2018 31.5416 69.2018 32.424C69.2018 34.1258 69.211 35.8276 69.2018 37.5308C69.1873 39.4575 67.9344 40.7003 65.9978 40.7779C65.4719 40.7989 65.6402 40.4478 65.6389 40.2137C65.6297 37.0271 65.6389 33.8405 65.6389 30.6552H65.6494ZM69.3122 24.157C69.3122 25.4432 69.3122 26.5111 69.3122 27.5764C69.3122 27.8539 69.2912 28.0867 69.7066 28.0748C71.6051 28.0183 73.5088 28.1748 75.4033 27.9697C77.4056 27.7527 78.5441 26.7492 78.8833 24.8435C79.162 23.2946 79.1687 21.7089 78.9031 20.1576C78.6467 18.661 77.8513 17.5905 76.342 17.1552C74.9505 16.7442 73.4699 16.7442 72.0784 17.1552C70.7636 17.5379 69.9288 18.4098 69.5804 19.7565C69.1886 21.2795 69.3621 22.8326 69.3122 24.157Z" fill="url(#paint0_linear_543_276)"/>
<path d="M35.4719 25.7106C35.4719 27.7201 35.4614 29.3575 35.4811 30.9935C35.4811 31.4065 35.3878 31.5748 34.9408 31.5551C34.1322 31.5209 33.3211 31.5169 32.5138 31.5551C32.0234 31.5801 31.8867 31.4341 31.892 30.9409C31.9156 28.1252 31.9012 25.3081 31.9038 22.4924C31.9045 21.6852 31.8319 20.8797 31.6869 20.0857C31.3819 18.4167 30.3958 17.4251 28.7445 17.0608C27.5042 16.7715 26.2105 16.8032 24.9858 17.1529C23.2293 17.6619 22.3287 18.8757 22.1986 20.909C21.9856 24.2232 22.1263 27.5426 22.1223 30.8594C22.1223 31.5459 21.9238 31.709 21.2835 31.6616C20.5223 31.6051 19.7545 31.638 18.9893 31.6524C18.6791 31.659 18.5108 31.6116 18.5187 31.2342C18.5949 27.657 18.3727 24.0758 18.6501 20.5025C18.9841 16.1889 21.8528 13.4626 26.1769 13.3126C27.6034 13.2626 29.0206 13.3126 30.3945 13.744C33.1659 14.612 34.6213 16.6123 35.1932 19.3571C35.656 21.577 35.3957 23.8338 35.4719 25.7106Z" fill="url(#paint1_linear_543_276)"/>
<path d="M20.7363 13.6015C18.5959 14.5221 17.2615 16.1818 16.4214 18.2466C14.6965 22.4867 13.0176 26.7464 11.3452 31.0101C11.1572 31.4915 10.9508 31.6941 10.4105 31.6546C9.66638 31.6024 8.91954 31.6024 8.17545 31.6546C7.68769 31.6862 7.50363 31.4823 7.33666 31.0628C5.12794 25.4892 2.90869 19.9191 0.678935 14.3525C0.404159 13.6646 0.40679 13.662 1.17721 13.6607C1.98708 13.6607 2.79826 13.687 3.6055 13.6501C4.088 13.6278 4.32333 13.7659 4.51002 14.2459C6.00091 18.0875 7.53387 21.9146 9.04579 25.7456C9.1089 25.9061 9.17726 26.0626 9.28902 26.323C9.8951 24.8276 10.4723 23.4178 11.0402 22.0066C11.737 20.289 12.4325 18.571 13.1267 16.8525C13.9379 14.8285 15.4932 13.879 17.6099 13.6673C18.6491 13.5702 19.6939 13.5483 20.7363 13.6015Z" fill="url(#paint2_linear_543_276)"/>
<path d="M38.35 17.9129C38.35 15.3799 38.3724 12.8469 38.3342 10.3152C38.325 9.72079 38.5591 9.68792 39.014 9.7642C40.6403 10.0377 41.7841 11.2937 41.8866 13.0297C41.9169 13.5492 42.0786 13.7005 42.5808 13.6676C43.1708 13.6332 43.7625 13.6389 44.3517 13.6847C45.9044 13.8004 47.1928 15.009 47.39 16.478C47.4387 16.8344 47.3729 16.9765 46.9667 16.9712C45.435 16.9475 43.9034 16.9712 42.3731 16.9528C41.9786 16.9528 41.8472 17.0331 41.8472 17.4513C41.8695 20.0066 41.8472 22.5606 41.8656 25.116C41.8735 26.4206 42.3915 27.1203 43.6233 27.5806C44.6646 27.9751 45.7624 28.0251 46.8523 28.0448C47.3295 28.0527 47.4308 28.2052 47.4137 28.6432C47.3808 29.5164 47.3953 30.3897 47.4137 31.263C47.4137 31.5339 47.3558 31.6509 47.0534 31.643C45.251 31.5944 43.4761 31.3971 41.8117 30.6488C39.5661 29.6414 38.4355 27.8594 38.3829 25.4474C38.3211 22.9381 38.3697 20.4261 38.3697 17.9155L38.35 17.9129Z" fill="url(#paint3_linear_543_276)"/>
<path d="M49.2192 25.1565C49.2192 23.5428 49.2192 21.9278 49.2192 20.3128C49.2271 16.7619 50.7167 14.8457 54.1494 13.9883C55.3425 13.7133 56.5616 13.5669 57.7859 13.5516C58.2092 13.5384 58.3013 13.6832 58.2881 14.0698C58.2592 14.876 58.2618 15.6848 58.2881 16.491C58.2999 16.8645 58.1816 16.9815 57.8082 16.9736C56.8237 16.9397 55.8397 17.0523 54.8882 17.3077C53.3803 17.7298 52.7979 18.4914 52.7952 20.0511C52.7873 23.6744 52.7808 27.2963 52.8057 30.9182C52.8057 31.4443 52.6585 31.5758 52.1484 31.5534C51.3596 31.5113 50.5707 31.5166 49.7819 31.5534C49.3323 31.5745 49.189 31.4548 49.1955 30.984C49.235 29.0415 49.2192 27.099 49.2192 25.1565Z" fill="url(#paint4_linear_543_276)"/>
<path d="M59.8791 13.4863C61.086 14.3635 62.2456 14.407 63.4288 13.5258C63.4407 13.8099 63.4564 13.998 63.4564 14.1834C63.4564 19.7899 63.4564 25.3964 63.4683 31.0029C63.4683 31.5026 63.3605 31.6828 62.8319 31.6499C62.0464 31.6039 61.2589 31.6039 60.4734 31.6499C59.979 31.6775 59.8607 31.5329 59.8633 31.0423C59.8857 27.1376 59.8752 23.233 59.8752 19.3283L59.8791 13.4863Z" fill="url(#paint5_linear_543_276)"/>
<path d="M57.4862 11.3283C54.7542 11.1784 52.1077 10.7364 49.4665 10.2261C47.6903 9.88156 45.9259 9.47655 44.1576 9.09515C43.4735 8.94853 42.8183 8.68987 42.2184 8.3297C41.4848 7.8878 41.1035 7.08693 41.2574 6.34124C41.3438 5.93214 41.558 5.56107 41.869 5.28167C42.18 5.00226 42.5717 4.82893 42.9875 4.78669C43.5533 4.71563 44.1277 4.76037 44.6756 4.9182C48.9642 6.18732 53.2108 7.57612 57.264 9.49098C57.7512 9.73511 58.2239 10.0069 58.68 10.3051C58.8996 10.4366 59.1651 10.6102 59.1112 10.9061C59.0468 11.2704 58.6787 11.227 58.4171 11.2691C58.1082 11.3065 57.7974 11.3263 57.4862 11.3283Z" fill="url(#paint6_linear_543_276)"/>
<path d="M65.8361 11.3281C65.4202 11.341 65.0044 11.3034 64.5976 11.2163C64.1217 11.0848 64.0888 10.8401 64.4267 10.5311C64.8769 10.1497 65.3788 9.83399 65.9176 9.59339C69.1781 7.99549 72.6108 6.84342 76.0514 5.71633C76.9835 5.41122 77.9328 5.16129 78.8728 4.87985C79.3391 4.75683 79.8246 4.72424 80.3032 4.78384C80.7194 4.81331 81.1154 4.97508 81.4332 5.2455C81.7511 5.51591 81.9743 5.88085 82.0702 6.28709C82.2437 7.09459 81.8887 7.86524 81.121 8.33212C79.8996 9.07913 78.5007 9.27113 77.1426 9.56835C73.6889 10.3219 70.2154 10.9769 66.6854 11.278C66.4027 11.3017 66.1227 11.311 65.8361 11.3281Z" fill="url(#paint7_linear_543_276)"/>
<path d="M105.828 28.1019C105.828 29.0633 105.811 30.0247 105.835 30.9847C105.846 31.3924 105.749 31.5476 105.299 31.5516C103.59 31.5674 103.606 31.5844 103.582 29.8734C103.558 28.1624 103.7 26.4225 103.487 24.7049C103.319 23.3424 102.699 22.74 101.344 22.5691C101.171 22.5467 100.997 22.5165 100.819 22.5059C98.7347 22.381 97.7237 23.2793 97.6869 25.3428C97.6527 27.2208 97.6619 29.0988 97.6737 30.9768C97.6737 31.3714 97.5975 31.5476 97.1386 31.5529C95.4834 31.57 95.4676 31.5884 95.4873 29.9379C95.5084 28.2361 95.4111 26.5342 95.5557 24.8324C95.862 21.2026 98.3521 19.9835 101.479 20.3189C104.306 20.6213 105.7 22.2916 105.807 25.2862C105.839 26.2239 105.807 27.1629 105.807 28.1019H105.828Z" fill="url(#paint8_linear_543_276)"/>
<path d="M89.7624 28.2462C90.542 26.3129 91.2703 24.5454 91.9698 22.766C92.639 21.0563 93.437 20.4868 95.2697 20.4671C95.662 20.4556 96.0545 20.4749 96.4438 20.5249C94.9515 21.3298 94.2955 22.7041 93.7394 24.1692C92.8572 26.4892 91.929 28.792 91.0495 31.1133C90.8904 31.5302 90.6905 31.6617 90.2475 31.6538C88.7711 31.6301 88.7684 31.6538 88.2373 30.2992C87.0251 27.2191 85.8248 24.1338 84.5955 21.0603C84.3904 20.55 84.489 20.45 85.0189 20.4553C86.7056 20.4684 86.707 20.4487 87.3328 22.0426C88.119 24.0482 88.9039 26.0552 89.7624 28.2462Z" fill="url(#paint9_linear_543_276)"/>
<path d="M46.8779 1.67651C46.8779 0.698037 47.8127 -0.033187 48.7185 0.0983281C49.1311 0.156865 49.5228 0.31683 49.8584 0.563897C52.7863 2.74179 55.6431 5.00383 58.2068 7.61177C58.5541 7.94455 58.8525 8.32495 59.093 8.74153C59.2968 9.11766 59.1508 9.2794 58.7525 9.236C58.1792 9.17155 57.6573 8.93613 57.1472 8.69414C53.9051 7.15541 50.8523 5.29187 47.8982 3.26522C47.2894 2.8549 46.9279 2.27622 46.8779 1.67651Z" fill="url(#paint10_linear_543_276)"/>
<path d="M76.5648 1.54333C76.5017 2.29691 76.0599 2.84796 75.4814 3.25303C72.4576 5.34149 69.3391 7.25893 65.9944 8.79503C65.6149 8.96258 65.2233 9.10152 64.823 9.21064C64.6284 9.26587 64.3694 9.35791 64.2275 9.12645C64.1118 8.93707 64.2432 8.73978 64.3589 8.58722C64.6169 8.23478 64.897 7.89921 65.1977 7.58249C67.8061 4.99033 70.6775 2.70719 73.6435 0.542452C74.5638 -0.133535 75.4972 -0.041485 76.2032 0.663436C76.3242 0.774692 76.4192 0.911158 76.4817 1.06318C76.5442 1.21521 76.5725 1.37914 76.5648 1.54333Z" fill="url(#paint11_linear_543_276)"/>
<path d="M59.7217 10.7651C59.7226 10.509 59.7739 10.2557 59.8728 10.0195C59.9717 9.78336 60.1163 9.56899 60.2981 9.38879C60.48 9.20859 60.6956 9.0661 60.9326 8.9694C61.1696 8.87269 61.4234 8.82367 61.6793 8.82523C62.1966 8.82744 62.6928 9.03105 63.0626 9.3929C63.4325 9.75476 63.6469 10.2465 63.6606 10.7638C63.6764 11.8159 62.7061 12.7746 61.6465 12.7562C61.1292 12.7415 60.6383 12.5249 60.2787 12.1528C59.919 11.7807 59.7191 11.2827 59.7217 10.7651Z" fill="url(#paint12_linear_543_276)"/>
<path d="M61.707 8.07333C61.5048 8.08171 61.303 8.04891 61.1138 7.97694C60.9247 7.90497 60.7521 7.79532 60.6065 7.65464C60.461 7.51396 60.3455 7.34516 60.2671 7.15851C60.1887 6.97185 60.149 6.77126 60.1504 6.56881C60.1534 6.1716 60.3105 5.79107 60.5887 5.50763C60.8669 5.22419 61.2444 5.06 61.6413 5.04977C61.8436 5.04257 62.0452 5.07672 62.2338 5.15014C62.4225 5.22356 62.5942 5.33468 62.7384 5.47674C62.8826 5.6188 62.9964 5.78881 63.0727 5.97635C63.149 6.16388 63.1862 6.36502 63.1822 6.56746C63.1888 6.76443 63.1553 6.96069 63.0839 7.14438C63.0125 7.32806 62.9046 7.49538 62.7667 7.63615C62.6288 7.77692 62.4638 7.88825 62.2817 7.96339C62.0995 8.03854 61.9041 8.07593 61.707 8.07333Z" fill="url(#paint13_linear_543_276)"/>
<path d="M84.3421 28.6144C84.5432 28.6113 84.743 28.6482 84.9297 28.723C85.1164 28.7978 85.2864 28.9089 85.4298 29.05C85.5732 29.1911 85.6871 29.3593 85.7649 29.5449C85.8427 29.7304 85.8828 29.9296 85.883 30.1308C85.885 30.327 85.8484 30.5217 85.7752 30.7037C85.7019 30.8857 85.5935 31.0514 85.4561 31.1914C85.3187 31.3314 85.155 31.4429 84.9745 31.5195C84.7939 31.5962 84.6 31.6364 84.4039 31.6379C84.2024 31.6425 84.0019 31.6068 83.8143 31.533C83.6267 31.4592 83.4557 31.3487 83.3113 31.208C83.1668 31.0673 83.0519 30.8992 82.9731 30.7136C82.8943 30.528 82.8534 30.3285 82.8525 30.1269C82.8607 29.7321 83.0196 29.3555 83.2966 29.0742C83.5736 28.793 83.9477 28.6285 84.3421 28.6144Z" fill="url(#paint14_linear_543_276)"/>
<path d="M106.231 22.0621C106.231 21.8438 106.245 21.6268 106.247 21.4045C106.247 21.1415 106.191 20.8903 106.615 20.8784C107.04 20.8666 107.141 21.0613 107.132 21.4256C107.124 21.5965 107.14 21.7702 107.145 21.9424C106.936 21.6044 106.724 21.2756 106.5 21.9319C106.451 22.0779 106.33 22.041 106.231 22.0621Z" fill="url(#paint15_linear_543_276)"/>
<path d="M106.344 22.3346C106.659 22.3477 106.974 22.3031 107.273 22.2031C107.017 22.6187 106.697 22.5964 106.344 22.3346Z" fill="url(#paint16_linear_543_276)"/>
<path d="M106.211 22.0846L106.356 22.3476C105.981 22.4358 105.939 22.0846 105.698 21.8847C105.985 21.7874 106.027 22.107 106.211 22.0846Z" fill="url(#paint17_linear_543_276)"/>
<path d="M107.263 22.2093L107.41 21.9463C107.499 21.9805 107.541 22.0476 107.49 22.1291C107.439 22.2107 107.378 22.3027 107.263 22.2093Z" fill="url(#paint18_linear_543_276)"/>
<defs>
<linearGradient id="paint0_linear_543_276" x1="-63.4571" y1="27.0201" x2="161.321" y2="27.0201" gradientUnits="userSpaceOnUse">
<stop offset="0.28" stop-color="#782671"/>
<stop offset="0.5" stop-color="#7E256F"/>
<stop offset="0.8" stop-color="#8F2269"/>
<stop offset="0.99" stop-color="#9D2064"/>
</linearGradient>
<linearGradient id="paint1_linear_543_276" x1="-63.4566" y1="22.4766" x2="161.322" y2="22.4766" gradientUnits="userSpaceOnUse">
<stop offset="0.28" stop-color="#782671"/>
<stop offset="0.5" stop-color="#7E256F"/>
<stop offset="0.8" stop-color="#8F2269"/>
<stop offset="0.99" stop-color="#9D2064"/>
</linearGradient>
<linearGradient id="paint2_linear_543_276" x1="-63.4569" y1="22.6169" x2="161.322" y2="22.6169" gradientUnits="userSpaceOnUse">
<stop offset="0.28" stop-color="#782671"/>
<stop offset="0.5" stop-color="#7E256F"/>
<stop offset="0.8" stop-color="#8F2269"/>
<stop offset="0.99" stop-color="#9D2064"/>
</linearGradient>
<linearGradient id="paint3_linear_543_276" x1="-63.4564" y1="20.6892" x2="161.322" y2="20.6892" gradientUnits="userSpaceOnUse">
<stop offset="0.28" stop-color="#782671"/>
<stop offset="0.5" stop-color="#7E256F"/>
<stop offset="0.8" stop-color="#8F2269"/>
<stop offset="0.99" stop-color="#9D2064"/>
</linearGradient>
<linearGradient id="paint4_linear_543_276" x1="-63.4573" y1="22.5538" x2="161.321" y2="22.5538" gradientUnits="userSpaceOnUse">
<stop offset="0.28" stop-color="#782671"/>
<stop offset="0.5" stop-color="#7E256F"/>
<stop offset="0.8" stop-color="#8F2269"/>
<stop offset="0.99" stop-color="#9D2064"/>
</linearGradient>
<linearGradient id="paint5_linear_543_276" x1="-63.4571" y1="22.5714" x2="161.321" y2="22.5714" gradientUnits="userSpaceOnUse">
<stop offset="0.28" stop-color="#782671"/>
<stop offset="0.5" stop-color="#7E256F"/>
<stop offset="0.8" stop-color="#8F2269"/>
<stop offset="0.99" stop-color="#9D2064"/>
</linearGradient>
<linearGradient id="paint6_linear_543_276" x1="-63.4572" y1="8.0417" x2="161.321" y2="8.0417" gradientUnits="userSpaceOnUse">
<stop offset="0.28" stop-color="#782671"/>
<stop offset="0.5" stop-color="#7E256F"/>
<stop offset="0.8" stop-color="#8F2269"/>
<stop offset="0.99" stop-color="#9D2064"/>
</linearGradient>
<linearGradient id="paint7_linear_543_276" x1="-63.4572" y1="8.0428" x2="161.321" y2="8.0428" gradientUnits="userSpaceOnUse">
<stop offset="0.28" stop-color="#782671"/>
<stop offset="0.5" stop-color="#7E256F"/>
<stop offset="0.8" stop-color="#8F2269"/>
<stop offset="0.99" stop-color="#9D2064"/>
</linearGradient>
<linearGradient id="paint8_linear_543_276" x1="-63.4568" y1="25.9109" x2="161.322" y2="25.9109" gradientUnits="userSpaceOnUse">
<stop offset="0.28" stop-color="#782671"/>
<stop offset="0.5" stop-color="#7E256F"/>
<stop offset="0.8" stop-color="#8F2269"/>
<stop offset="0.99" stop-color="#9D2064"/>
</linearGradient>
<linearGradient id="paint9_linear_543_276" x1="-63.4574" y1="26.0552" x2="161.321" y2="26.0552" gradientUnits="userSpaceOnUse">
<stop offset="0.28" stop-color="#782671"/>
<stop offset="0.5" stop-color="#7E256F"/>
<stop offset="0.8" stop-color="#8F2269"/>
<stop offset="0.99" stop-color="#9D2064"/>
</linearGradient>
<linearGradient id="paint10_linear_543_276" x1="-63.4571" y1="4.66717" x2="161.321" y2="4.66717" gradientUnits="userSpaceOnUse">
<stop offset="0.28" stop-color="#782671"/>
<stop offset="0.5" stop-color="#7E256F"/>
<stop offset="0.8" stop-color="#8F2269"/>
<stop offset="0.99" stop-color="#9D2064"/>
</linearGradient>
<linearGradient id="paint11_linear_543_276" x1="-63.4565" y1="4.67335" x2="161.322" y2="4.67335" gradientUnits="userSpaceOnUse">
<stop offset="0.28" stop-color="#782671"/>
<stop offset="0.5" stop-color="#7E256F"/>
<stop offset="0.8" stop-color="#8F2269"/>
<stop offset="0.99" stop-color="#9D2064"/>
</linearGradient>
<linearGradient id="paint12_linear_543_276" x1="-63.4568" y1="10.7901" x2="161.322" y2="10.7901" gradientUnits="userSpaceOnUse">
<stop offset="0.28" stop-color="#782671"/>
<stop offset="0.5" stop-color="#7E256F"/>
<stop offset="0.8" stop-color="#8F2269"/>
<stop offset="0.99" stop-color="#9D2064"/>
</linearGradient>
<linearGradient id="paint13_linear_543_276" x1="-63.4566" y1="6.56089" x2="161.322" y2="6.56089" gradientUnits="userSpaceOnUse">
<stop offset="0.28" stop-color="#782671"/>
<stop offset="0.5" stop-color="#7E256F"/>
<stop offset="0.8" stop-color="#8F2269"/>
<stop offset="0.99" stop-color="#9D2064"/>
</linearGradient>
<linearGradient id="paint14_linear_543_276" x1="-63.4574" y1="30.1268" x2="161.322" y2="30.1268" gradientUnits="userSpaceOnUse">
<stop offset="0.28" stop-color="#782671"/>
<stop offset="0.5" stop-color="#7E256F"/>
<stop offset="0.8" stop-color="#8F2269"/>
<stop offset="0.99" stop-color="#9D2064"/>
</linearGradient>
<linearGradient id="paint15_linear_543_276" x1="-63.4582" y1="21.4729" x2="161.323" y2="21.4729" gradientUnits="userSpaceOnUse">
<stop offset="0.28" stop-color="#782671"/>
<stop offset="0.5" stop-color="#7E256F"/>
<stop offset="0.8" stop-color="#8F2269"/>
<stop offset="0.99" stop-color="#9D2064"/>
</linearGradient>
<linearGradient id="paint16_linear_543_276" x1="-63.4559" y1="22.3636" x2="161.321" y2="22.3636" gradientUnits="userSpaceOnUse">
<stop offset="0.28" stop-color="#782671"/>
<stop offset="0.5" stop-color="#7E256F"/>
<stop offset="0.8" stop-color="#8F2269"/>
<stop offset="0.99" stop-color="#9D2064"/>
</linearGradient>
<linearGradient id="paint17_linear_543_276" x1="-63.4572" y1="22.1096" x2="161.321" y2="22.1096" gradientUnits="userSpaceOnUse">
<stop offset="0.28" stop-color="#782671"/>
<stop offset="0.5" stop-color="#7E256F"/>
<stop offset="0.8" stop-color="#8F2269"/>
<stop offset="0.99" stop-color="#9D2064"/>
</linearGradient>
<linearGradient id="paint18_linear_543_276" x1="-63.4558" y1="22.1002" x2="161.321" y2="22.1002" gradientUnits="userSpaceOnUse">
<stop offset="0.28" stop-color="#782671"/>
<stop offset="0.5" stop-color="#7E256F"/>
<stop offset="0.8" stop-color="#8F2269"/>
<stop offset="0.99" stop-color="#9D2064"/>
</linearGradient>
</defs>
</svg>
